<svg width="60" height="60" viewBox="0 0 60 60" fill="none" xmlns="http://www.w3.org/2000/svg">
<g clip-path="url(#clip0_104_50184)">
<path d="M19.2147 56.9402C19.1185 57.161 18.9385 57.3345 18.7144 57.4227C18.4902 57.5109 18.2403 57.5064 18.0194 57.4103C11.5944 54.5857 6.35848 49.6046 3.21701 43.3285C0.0755427 37.0524 -0.773943 29.8757 0.815448 23.0396C0.879516 22.8148 1.02775 22.6234 1.22933 22.5051C1.43091 22.3868 1.67032 22.3508 1.89779 22.4045C2.12525 22.4582 2.32327 22.5975 2.45066 22.7935C2.57805 22.9894 2.62502 23.2269 2.58179 23.4566C1.09015 29.8786 1.88895 36.62 4.84014 42.5156C7.79133 48.4112 12.7095 53.0905 18.7445 55.7449C18.9649 55.8416 19.138 56.0216 19.2261 56.2456C19.3141 56.4695 19.31 56.7192 19.2147 56.9402ZM9.49578 10.221C12.8678 7.21167 16.7609 4.84338 20.9837 3.2326C21.0967 3.19388 21.201 3.13329 21.2906 3.05427C21.3802 2.97525 21.4533 2.87935 21.5059 2.77206C21.5584 2.66477 21.5893 2.54818 21.5968 2.42895C21.6042 2.30972 21.5882 2.19019 21.5494 2.07717C21.5107 1.96416 21.4501 1.85988 21.3711 1.77028C21.2921 1.68069 21.1962 1.60753 21.0889 1.555C20.9816 1.50246 20.865 1.47157 20.7458 1.46409C20.6266 1.45661 20.507 1.47269 20.394 1.51141C16.0521 2.99251 12.1057 5.44538 8.85565 8.68304C8.73541 8.81142 8.65479 8.97178 8.62345 9.14485C8.59212 9.31793 8.6114 9.49637 8.67899 9.65875C8.74658 9.82114 8.85961 9.96056 9.00449 10.0603C9.14938 10.16 9.31997 10.2158 9.49578 10.221ZM59.1925 23.0396C59.1372 22.805 58.991 22.602 58.786 22.4752C58.5811 22.3484 58.3341 22.3083 58.0995 22.3636C57.8649 22.4189 57.6619 22.5651 57.5352 22.7701C57.4084 22.9751 57.3682 23.222 57.4235 23.4566C58.9152 29.8786 58.1164 36.62 55.1652 42.5156C52.214 48.4112 47.2959 53.0905 41.2608 55.7449C41.075 55.8325 40.9242 55.9802 40.8326 56.1641C40.741 56.3479 40.7141 56.5573 40.7562 56.7584C40.7982 56.9594 40.9068 57.1405 41.0644 57.2723C41.222 57.404 41.4194 57.4789 41.6247 57.4847C48.1539 54.7487 53.5018 49.7866 56.7183 43.4802C59.9347 37.1738 60.8114 29.9313 59.1925 23.0396ZM39.0296 3.2326C43.1075 4.62059 46.8148 6.92077 49.8694 9.958C49.954 10.0422 50.0544 10.109 50.1647 10.1544C50.2751 10.1999 50.3934 10.2232 50.5128 10.2229C50.6321 10.2227 50.7503 10.1989 50.8605 10.153C50.9707 10.1071 51.0708 10.0399 51.155 9.95534C51.2392 9.87076 51.306 9.77041 51.3514 9.66002C51.3969 9.54964 51.4202 9.43138 51.4199 9.312C51.4197 9.19263 51.3959 9.07447 51.35 8.96427C51.3041 8.85407 51.2369 8.754 51.1523 8.66976C47.9 5.43678 43.9528 2.98853 39.6113 1.51141C39.4983 1.47322 39.3789 1.45766 39.2598 1.46562C39.1408 1.47358 39.0245 1.50491 38.9176 1.55781C38.7017 1.66466 38.537 1.85291 38.4599 2.08116C38.3827 2.3094 38.3994 2.55894 38.5063 2.77488C38.6131 2.99082 38.8014 3.15546 39.0296 3.2326ZM24.4792 5.46112C24.4792 3.99655 25.061 2.59197 26.0966 1.55637C27.1322 0.520762 28.5368 -0.0610352 30.0013 -0.0610352C31.4659 -0.0610352 32.8705 0.520762 33.9061 1.55637C34.9417 2.59197 35.5235 3.99655 35.5235 5.46112C35.5235 6.92569 34.9417 8.33027 33.9061 9.36587C32.8705 10.4015 31.4659 10.9833 30.0013 10.9833C28.5368 10.9833 27.1322 10.4015 26.0966 9.36587C25.061 8.33027 24.4792 6.92569 24.4792 5.46112ZM26.2987 5.46112C26.3809 6.3867 26.8068 7.24794 27.4923 7.87524C28.1779 8.50254 29.0734 8.85045 30.0027 8.85045C30.9319 8.85045 31.8275 8.50254 32.513 7.87524C33.1986 7.24794 33.6244 6.3867 33.7067 5.46112C33.628 4.53257 33.2035 3.6674 32.5173 3.03689C31.8311 2.40638 30.9332 2.0565 30.0013 2.0565C29.0695 2.0565 28.1715 2.40638 27.4853 3.03689C26.7991 3.6674 26.3747 4.53257 26.296 5.46112H26.2987ZM37.6936 20.4126L38.8224 34.2061C38.827 34.3567 38.7968 34.5064 38.7341 34.6434C38.6715 34.7804 38.5781 34.9012 38.4611 34.9963C38.3442 35.0913 38.207 35.1582 38.06 35.1916C37.9131 35.225 37.7604 35.2241 37.6139 35.1889V55.6758C37.5938 56.5527 37.3052 57.4023 36.787 58.11C36.2689 58.8177 35.5461 59.3494 34.7163 59.6334C33.8865 59.9175 32.9895 59.9401 32.1464 59.6984C31.3033 59.4567 30.5546 58.9621 30.0013 58.2815C29.4486 58.9626 28.7 59.4576 27.8569 59.6996C27.0138 59.9416 26.1167 59.919 25.2869 59.6349C24.457 59.3507 23.7344 58.8187 23.2166 58.1107C22.6988 57.4027 22.4107 56.5528 22.3914 55.6758V35.1889C22.2449 35.2241 22.0922 35.225 21.9453 35.1916C21.7984 35.1582 21.6611 35.0913 21.5442 34.9963C21.4273 34.9012 21.3339 34.7804 21.2712 34.6434C21.2085 34.5064 21.1783 34.3567 21.1829 34.2061L22.3118 20.4126H6.72275C5.783 20.4126 4.88175 20.0393 4.21725 19.3748C3.55274 18.7103 3.17943 17.8091 3.17943 16.8693C3.17943 15.9296 3.55274 15.0283 4.21725 14.3638C4.88175 13.6993 5.783 13.326 6.72275 13.326H53.2826C54.2223 13.326 55.1236 13.6993 55.7881 14.3638C56.4526 15.0283 56.8259 15.9296 56.8259 16.8693C56.8259 17.8091 56.4526 18.7103 55.7881 19.3748C55.1236 20.0393 54.2223 20.4126 53.2826 20.4126H37.6936ZM35.7971 35.1889H24.2083V55.6758C24.2292 56.3096 24.4956 56.9105 24.9514 57.3514C25.4071 57.7924 26.0164 58.0389 26.6506 58.0389C27.2847 58.0389 27.8941 57.7924 28.3498 57.3514C28.8056 56.9105 29.072 56.3096 29.0929 55.6758V39.9062C29.1055 39.6734 29.2068 39.4543 29.3761 39.294C29.5453 39.1337 29.7696 39.0443 30.0027 39.0443C30.2358 39.0443 30.46 39.1337 30.6293 39.294C30.7985 39.4543 30.8998 39.6734 30.9124 39.9062V55.6758C30.9333 56.3096 31.1998 56.9105 31.6555 57.3514C32.1113 57.7924 32.7206 58.0389 33.3547 58.0389C33.9889 58.0389 34.5982 57.7924 35.054 57.3514C35.5097 56.9105 35.7762 56.3096 35.7971 55.6758V35.1889ZM53.2826 18.5932C53.7405 18.5932 54.1796 18.4113 54.5034 18.0875C54.8272 17.7637 55.0091 17.3246 55.0091 16.8667C55.0091 16.4088 54.8272 15.9696 54.5034 15.6458C54.1796 15.3221 53.7405 15.1402 53.2826 15.1402H6.72275C6.26485 15.1402 5.82571 15.3221 5.50193 15.6458C5.17814 15.9696 4.99624 16.4088 4.99624 16.8667C4.99624 17.3246 5.17814 17.7637 5.50193 18.0875C5.82571 18.4113 6.26485 18.5932 6.72275 18.5932H23.2998C23.4254 18.5939 23.5496 18.6205 23.6644 18.6713C23.7793 18.7221 23.8824 18.7961 23.9674 18.8886C24.0524 18.981 24.1174 19.09 24.1584 19.2088C24.1994 19.3275 24.2155 19.4534 24.2056 19.5786L23.0741 33.3694H36.9206L35.7918 19.5786C35.7822 19.4526 35.7989 19.326 35.8407 19.2067C35.8824 19.0874 35.9484 18.9781 36.0345 18.8855C36.1205 18.793 36.2248 18.7192 36.3407 18.6689C36.4567 18.6186 36.5818 18.5928 36.7081 18.5932H53.2826Z" fill="#6B6B6B"/>
</g>
<defs>
<clipPath id="clip0_104_50184">
<rect width="60" height="59.8805" fill="white"/>
</clipPath>
</defs>
</svg>
