<svg width="60" height="61" viewBox="0 0 60 61" fill="none" xmlns="http://www.w3.org/2000/svg">
<g clip-path="url(#clip0_333_3536)">
<path fill-rule="evenodd" clip-rule="evenodd" d="M27.9757 2.00272C28.5053 1.47306 29.2292 1.20728 30.0149 1.20728C30.8006 1.20728 31.5245 1.47306 32.0541 2.00272C32.5838 2.53239 32.8496 3.25624 32.8496 4.04194V7.93266C32.8496 8.71836 32.5838 9.44222 32.0541 9.97188C31.5245 10.5015 30.8006 10.7673 30.0149 10.7673C29.2292 10.7673 28.5053 10.5015 27.9757 9.97188C27.446 9.44222 27.1802 8.71836 27.1802 7.93266V4.04194C27.1802 3.25624 27.446 2.53239 27.9757 2.00272ZM29.2334 3.26039C29.0821 3.4116 28.9589 3.66043 28.9589 4.04194V7.93266C28.9589 8.31418 29.0821 8.563 29.2334 8.71421C29.3846 8.86542 29.6334 8.98871 30.0149 8.98871C30.3964 8.98871 30.6452 8.86542 30.7965 8.71421C30.9477 8.563 31.071 8.31418 31.071 7.93266V4.04194C31.071 3.66043 30.9477 3.4116 30.7965 3.26039C30.6452 3.10918 30.3964 2.98589 30.0149 2.98589C29.6334 2.98589 29.3846 3.10918 29.2334 3.26039Z" fill="#6B6B6B"/>
<path fill-rule="evenodd" clip-rule="evenodd" d="M14.1217 5.35614C15.3788 4.85333 17.0689 5.05381 17.9381 6.50244L17.9421 6.50907L19.9216 9.87426L19.9466 9.93681C20.4494 11.1938 20.2489 12.884 18.8003 13.7532L18.771 13.7707L18.7405 13.786C18.4881 13.9122 18.2568 13.9956 18.0026 14.038C17.7825 14.0747 17.5704 14.0746 17.3981 14.0744C17.3886 14.0744 17.3793 14.0744 17.3701 14.0744C16.247 14.0744 15.405 13.4943 14.8793 12.7057L14.8654 12.6849L12.8732 9.29817L12.8482 9.23562C12.3454 7.9786 12.5459 6.28844 13.9945 5.41926L14.0556 5.3826L14.1217 5.35614ZM14.8528 6.9809C14.4119 7.28385 14.2447 7.87807 14.4778 8.51794L16.3719 11.7379C16.6225 12.1043 16.9441 12.2958 17.3701 12.2958C17.5821 12.2958 17.6506 12.2935 17.7102 12.2836C17.7446 12.2779 17.7984 12.2658 17.9124 12.2112C18.3753 11.9148 18.5552 11.3085 18.317 10.6545L16.4113 7.4147C16.1227 6.93703 15.513 6.74593 14.8528 6.9809Z" fill="#6B6B6B"/>
<path fill-rule="evenodd" clip-rule="evenodd" d="M2.21183 17.2019C3.08101 15.7533 4.77117 15.5528 6.02819 16.0556L6.09074 16.0806L9.46258 18.0641C10.7881 18.8594 11.4212 20.5486 10.5457 22.0077L10.5349 22.0259L10.5231 22.0435C10.2321 22.4799 9.81929 22.8139 9.40233 23.0384C8.98944 23.2607 8.50456 23.4122 8.03234 23.4122C8.02768 23.4122 8.02282 23.4122 8.01777 23.4122C7.80345 23.4123 7.24008 23.4128 6.66195 23.1237L6.63487 23.1102L3.29499 21.1456C1.84636 20.2764 1.6459 18.5862 2.14871 17.3292L2.17517 17.263L2.21183 17.2019ZM3.77347 18.0602C3.5385 18.7204 3.7296 19.3301 4.20727 19.6187L7.47955 21.5436C7.65969 21.6267 7.85299 21.6335 8.03234 21.6335C8.14374 21.6335 8.33973 21.5905 8.55909 21.4724C8.76611 21.3609 8.93195 21.2157 9.03161 21.0738C9.30811 20.5906 9.15989 19.9584 8.55042 19.591L5.31051 17.6852C4.67064 17.4521 4.07643 17.6193 3.77347 18.0602Z" fill="#6B6B6B"/>
<path fill-rule="evenodd" clip-rule="evenodd" d="M54.0016 16.0556C55.2586 15.5528 56.9488 15.7533 57.818 17.2019L57.8546 17.263L57.8811 17.3292C58.3839 18.5862 58.1834 20.2764 56.7348 21.1455L56.7282 21.1495L53.3949 23.1102L53.3679 23.1237C53.1155 23.2499 52.8842 23.3334 52.63 23.3757C52.4099 23.4124 52.1978 23.4123 52.0255 23.4122C52.016 23.4122 52.0067 23.4122 51.9975 23.4122C50.8744 23.4122 50.0324 22.832 49.5067 22.0435L49.4553 21.9664L49.4209 21.8805C48.9181 20.6234 49.1186 18.9333 50.5672 18.0641L50.5739 18.0601L53.9391 16.0806L54.0016 16.0556ZM54.7193 17.6852L51.4795 19.591C51.0059 19.877 50.814 20.4788 51.0398 21.1325C51.2843 21.4619 51.5941 21.6335 51.9975 21.6335C52.2095 21.6335 52.278 21.6313 52.3376 21.6213C52.3728 21.6155 52.4282 21.603 52.5475 21.5452L55.8225 19.6187C56.3002 19.3301 56.4913 18.7205 56.2563 18.0602C55.9534 17.6193 55.3592 17.4521 54.7193 17.6852Z" fill="#6B6B6B"/>
<path fill-rule="evenodd" clip-rule="evenodd" d="M42.0917 6.50244C42.887 5.17696 44.5762 4.54381 46.0353 5.41926C47.484 6.28844 47.6844 7.9786 47.1816 9.23562L47.1566 9.29817L45.1644 12.6849L45.1505 12.7057C44.8595 13.1422 44.4467 13.4761 44.0297 13.7007C43.6168 13.923 43.132 14.0744 42.6597 14.0744C42.6505 14.0744 42.6412 14.0744 42.6317 14.0744C42.4594 14.0746 42.2473 14.0747 42.0272 14.038C41.773 13.9956 41.5417 13.9122 41.2893 13.786L41.2588 13.7707L41.2295 13.7532C39.7809 12.884 39.5804 11.1938 40.0832 9.93681L40.1082 9.87426L42.0917 6.50244ZM43.6186 7.41457L41.7128 10.6545C41.4746 11.3085 41.6545 11.9148 42.1174 12.2112C42.2314 12.2658 42.2852 12.2779 42.3196 12.2836C42.3792 12.2935 42.4477 12.2958 42.6597 12.2958C42.7711 12.2958 42.9671 12.2527 43.1865 12.1346C43.3935 12.0232 43.5594 11.8779 43.659 11.7361L45.552 8.51794C45.7949 7.85128 45.6032 7.23419 45.1202 6.94441C44.6347 6.65312 43.9908 6.79718 43.6186 7.41457Z" fill="#6B6B6B"/>
<path fill-rule="evenodd" clip-rule="evenodd" d="M42.8737 24.0353L42.8698 24.0117C42.255 20.3228 39.0173 17.6706 35.2674 17.6706H24.7624C21.0125 17.6706 17.7749 20.3228 17.16 24.0117L17.1561 24.0353L13.9017 40.9927H46.1282L42.8737 24.0353ZM48.4958 42.9491H11.534L15.2302 23.6901C16.0083 19.0212 20.0936 15.7141 24.7624 15.7141H35.2674C39.9362 15.7141 44.0215 19.0212 44.7996 23.6901L48.4958 42.9491Z" fill="#6B6B6B"/>
<path fill-rule="evenodd" clip-rule="evenodd" d="M8.37345 58.5009H51.7092C51.7117 58.4996 51.7144 58.4981 51.7172 58.4966C51.7504 58.4785 51.7929 58.4513 51.8411 58.4142C51.8485 58.4085 51.8558 58.4028 51.8631 58.3969C53.8285 55.3803 53.7564 51.704 51.7731 48.958L51.6564 48.7963H8.32063C8.31811 48.7976 8.31545 48.7991 8.31265 48.8006C8.27944 48.8187 8.23695 48.8459 8.18871 48.883C8.18134 48.8887 8.17402 48.8945 8.16674 48.9003C6.20131 51.9169 6.27346 55.5932 8.25667 58.3392L8.37345 58.5009ZM51.8029 46.8398C52.3865 46.8398 53.1647 47.2289 53.3592 47.8125C55.8882 51.3142 55.8882 55.983 53.3592 59.6792C52.9701 60.0683 52.3865 60.4574 51.8029 60.4574H8.22688C7.64327 60.4574 6.86513 60.0683 6.67059 59.4847C4.14162 55.983 4.14162 51.3142 6.67059 47.618C7.05966 47.2289 7.64327 46.8398 8.22688 46.8398H51.8029Z" fill="#6B6B6B"/>
<path fill-rule="evenodd" clip-rule="evenodd" d="M35.7734 21.0738C37.0305 20.571 38.7206 20.7715 39.5898 22.2201L39.5938 22.2268L40.556 25.592L40.5811 25.6545C41.0839 26.9115 40.8834 28.6017 39.4348 29.4709L39.4055 29.4884L39.3749 29.5037C39.1226 29.6299 38.8913 29.7133 38.6371 29.7557C38.417 29.7924 38.2048 29.7923 38.0325 29.7922C38.0231 29.7921 38.0137 29.7921 38.0045 29.7921C36.8814 29.7921 36.0395 29.212 35.5138 28.4234L35.4999 28.4026L34.5249 25.0159L34.4999 24.9533C33.9971 23.6963 34.1976 22.0061 35.6462 21.137L35.7073 21.1003L35.7734 21.0738ZM36.5045 22.6986C36.0636 23.0016 35.8964 23.5958 36.1295 24.2356L37.0063 27.4556C37.257 27.822 37.5786 28.0135 38.0045 28.0135C38.2166 28.0135 38.2851 28.0112 38.3447 28.0013C38.3791 27.9956 38.4328 27.9835 38.5469 27.9289C39.0098 27.6325 39.1897 27.0262 38.9515 26.3722L38.063 23.1324C37.7744 22.6547 37.1647 22.4636 36.5045 22.6986Z" fill="#6B6B6B"/>
</g>
<defs>
<clipPath id="clip0_333_3536">
<rect width="60" height="60" fill="white" transform="translate(0 0.880371)"/>
</clipPath>
</defs>
</svg>
