<svg width="70" height="70" viewBox="0 0 70 70" fill="none" xmlns="http://www.w3.org/2000/svg">
<mask id="mask0_809_164" style="mask-type:luminance" maskUnits="userSpaceOnUse" x="10" y="12" width="50" height="46">
<path d="M59.8795 12.4047H10.1957V57.505H59.8795V12.4047Z" fill="white"/>
</mask>
<g mask="url(#mask0_809_164)">
<path d="M20.6777 51.5068C21.1974 51.7671 21.3718 52.1302 21.2601 52.7213C21.1666 53.3274 21.1611 53.9442 21.2438 54.552C21.3679 55.6956 21.981 57.0163 23.0333 57.2126C23.7421 57.3506 24.4621 57.4224 25.1842 57.428C26.1546 57.4369 27.1182 57.2643 28.025 56.9185C29.1467 56.4864 29.675 55.5056 29.4367 54.2953C29.3817 54.0126 29.3223 53.7305 29.26 53.4316L29.2233 53.2548C29.6182 53.2914 30.0062 53.3336 30.3834 53.3741C31.3808 53.4992 32.384 53.5724 33.389 53.5942C34.399 53.5922 35.3742 53.5026 36.412 53.4003C36.7802 53.3638 37.1589 53.3272 37.5381 53.295C37.5308 53.3503 37.5236 53.4043 37.5165 53.457C37.4772 53.7003 37.456 53.9464 37.4527 54.1934C37.4675 55.3624 37.7755 56.2649 38.343 56.8012C38.795 57.2288 39.4053 57.4297 40.1536 57.3973C41.776 57.328 43.1131 57.2154 44.3617 57.0428C45.2631 56.9185 45.7916 56.3068 45.8101 55.3646C45.8274 54.5029 45.7941 53.6266 45.762 52.7797C45.752 52.5151 45.7416 52.2506 45.7332 51.9861C45.724 51.7062 45.7006 51.4291 45.6782 51.1612C45.6721 51.0889 45.6659 51.0171 45.6601 50.9464C46.0989 50.7559 46.5324 50.5693 46.9606 50.3864C48.007 49.9378 48.9958 49.514 49.9883 49.0559C52.4103 47.9389 54.1497 46.257 55.1598 44.0579C55.2075 43.954 55.2668 43.8526 55.3296 43.7462C55.3391 43.7302 55.348 43.7138 55.3578 43.6978C55.4408 43.7087 55.5221 43.7199 55.6022 43.7316C55.8718 43.7693 56.1263 43.8051 56.3877 43.8199C56.8128 43.8439 57.2327 43.8353 57.6235 43.8216C58.9735 43.7763 59.502 43.2758 59.643 41.9096C59.905 39.3776 59.533 36.8594 59.1723 34.4239L59.1553 34.3095C58.9654 33.0242 58.4383 32.5778 57.0673 32.5402C56.4838 32.5246 55.8927 32.5286 55.3207 32.5325C55.107 32.5339 54.8936 32.5354 54.6807 32.5358C53.2754 28.4675 50.971 26.087 47.4472 25.068C47.7274 24.4743 47.969 23.863 48.1704 23.2381C48.5084 22.2598 48.8274 21.3355 49.4682 20.546C49.8651 20.0565 49.9162 19.5501 49.6048 19.1912C49.4634 19.0567 49.2955 18.9536 49.1117 18.8885C48.9279 18.8234 48.7324 18.7977 48.5383 18.8133C45.1112 19.1322 42.6534 20.4193 41.0265 22.7484C40.9475 22.8575 40.8631 22.9626 40.7737 23.0632L40.7592 23.0801C40.5749 23.0665 40.3975 23.0504 40.2246 23.0348C39.8098 22.9886 39.3927 22.9661 38.9757 22.9673C37.7957 22.9934 36.5072 23.048 35.0363 23.1347C29.8692 23.4398 25.4543 24.7576 21.5393 27.1637C17.9779 29.3523 15.8635 32.2819 15.0748 36.1201C14.985 36.5572 14.8146 36.8168 14.5332 36.9342C14.5165 36.7519 14.5037 36.5686 14.4908 36.3895C14.4694 35.8059 14.3883 35.2262 14.249 34.6593C14.1285 34.2173 13.8527 33.8334 13.4723 33.5782C13.0918 33.323 12.6321 33.2134 12.1774 33.2695C11.7438 33.3362 11.3456 33.5476 11.0473 33.8694C10.7491 34.1909 10.5684 34.604 10.5345 35.0414C10.5099 35.5828 10.5411 36.1253 10.6274 36.6603C10.6562 36.8885 10.6861 37.1248 10.7061 37.3544C10.7097 37.3969 10.7277 37.4367 10.7571 37.4677C10.4408 37.8408 10.083 38.3346 10.5292 38.9283C10.9538 39.4931 11.5854 39.3813 12.0932 39.2924L12.2399 39.2651C12.4433 39.2165 12.6522 39.1941 12.8614 39.1987C13.2647 39.2268 13.6743 39.2799 14.1081 39.336C14.2437 39.3544 14.3831 39.3714 14.527 39.3896C14.527 39.3969 14.526 39.4042 14.5257 39.4116C14.5182 39.5527 14.5106 39.6963 14.4965 39.8395C14.3214 41.3668 14.5286 42.9138 15.0995 44.3411C15.2025 44.5948 15.2964 44.8604 15.387 45.1168C15.5276 45.5406 15.6929 45.9559 15.882 46.3604C16.2035 47.0501 16.6011 47.702 17.0674 48.3037C18.0028 49.4467 19.1281 50.7308 20.6777 51.5068ZM46.6324 21.2711C46.4165 21.7029 46.2285 22.1482 46.0701 22.6041C45.7682 23.5434 45.4986 24.5499 45.269 25.5963C45.112 26.3113 45.3992 26.7396 46.1469 26.9052C48.481 27.4216 50.2743 28.8119 51.6285 31.154C52.0528 31.9335 52.3913 32.7569 52.6385 33.6094C52.9458 34.5855 53.2802 35.0271 54.4489 35.0645C54.9804 35.0817 55.5173 35.0777 56.0858 35.0735C56.2992 35.072 56.519 35.0704 56.7472 35.0698L57.1967 41.1836C56.9841 41.2316 56.7788 41.2752 56.5796 41.3191C56.0089 41.442 55.4701 41.5573 54.9522 41.7249C54.5793 41.8448 54.1087 42.1023 53.9103 42.4657C52.164 45.6484 49.157 47.133 46.4464 48.1657L46.0939 48.2995C45.4092 48.5598 44.7006 48.8291 44.0115 49.1126C43.3363 49.39 43.2936 50.109 43.2729 50.4548C43.2207 51.3244 43.1994 52.2084 43.1785 53.0638C43.171 53.3825 43.1631 53.7009 43.1539 54.0196C43.1503 54.1411 43.1508 54.2632 43.1517 54.4205V54.5369L40.4165 54.8224C40.3816 54.5953 40.3433 54.3732 40.3067 54.1548C40.1997 53.5942 40.126 53.028 40.0852 52.459C40.0469 51.695 39.8014 51.1456 39.3556 50.8255C38.8791 50.4836 38.1877 50.428 37.354 50.664C35.6829 51.1364 34.041 51.1473 32.5022 51.1185C32.0411 51.1098 31.5689 51.0548 31.1118 51.0015C30.7804 50.9626 30.4374 50.9227 30.0969 50.8998C29.6765 50.8677 29.2539 50.8853 28.8379 50.9526C27.7929 51.1322 27.2572 51.6738 27.0445 52.7626C26.9763 53.111 26.9378 53.4668 26.9039 53.8006C26.8826 54.0126 26.8716 54.2241 26.8588 54.4691C26.8553 54.5369 26.8516 54.6079 26.8474 54.6822L23.9236 54.8836C23.8968 54.6104 23.8668 54.3422 23.8372 54.0783C23.7449 53.376 23.6922 52.6693 23.6794 51.9612C23.6807 51.2928 23.582 50.5939 22.856 50.0157L22.4637 49.7043C21.5633 49.0179 20.703 48.2808 19.887 47.4962C18.892 46.5341 18.1166 45.3688 17.6139 44.0794C17.1111 42.79 16.8928 41.4073 16.9739 40.0259C17.077 37.6374 17.5522 35.5859 18.4269 33.754C19.1263 32.289 20.2475 31.0145 21.8552 29.8577C25.6858 27.0999 30.2307 25.6645 35.7493 25.4694C36.4161 25.446 37.0953 25.4346 37.7524 25.4238C38.7497 25.4073 39.7807 25.3903 40.7947 25.33C41.274 25.3013 41.7307 24.7616 41.8592 24.5957C43.1112 22.9895 44.2665 22.0087 45.605 21.4161C45.914 21.2794 46.2335 21.1567 46.6039 21.0146L46.7841 20.9453C46.733 21.0579 46.6818 21.1661 46.6324 21.2711Z" fill="white"/>
<path d="M30.4445 12.4675C28.7199 12.6179 27.2674 13.6365 26.3541 15.3355C25.7375 16.4828 25.5554 17.5921 25.813 18.6327C26.3287 20.7159 27.9886 21.7767 30.747 21.7861C30.8172 21.7898 30.8869 21.7914 30.9564 21.7914C32.6231 21.7914 34.1207 20.7541 34.9936 18.9803C35.7806 17.3805 35.8142 16.0625 35.0959 14.9508C33.9559 13.1871 32.3057 12.3058 30.4445 12.4675ZM32.5641 17.8042C32.0175 18.8153 31.2558 19.3947 30.5281 19.3382H30.5158C29.4848 19.3333 28.727 19.054 28.3242 18.5315C27.9797 18.0844 27.8992 17.4559 28.0913 16.7145C28.1877 16.3099 28.3468 15.9227 28.5628 15.5672C28.7221 15.3099 28.9443 15.0975 29.2087 14.9499C29.4729 14.8024 29.7704 14.7245 30.0729 14.7238C30.3439 14.7249 30.6113 14.7842 30.8572 14.8974C31.3271 15.1003 31.7691 15.3623 32.1726 15.677C32.9842 16.335 33.0787 16.852 32.5641 17.8042Z" fill="white"/>
<path d="M34.2917 26.9998C30.9367 27.2613 28.0359 28.0432 25.4209 29.3905C24.9436 29.6509 24.4957 29.962 24.085 30.3184C23.5883 30.7329 23.475 31.3042 23.8028 31.7398C23.874 31.8402 23.9687 31.9215 24.0787 31.9768C24.1887 32.032 24.3105 32.0593 24.4335 32.0566C24.6832 32.0452 24.9271 31.977 25.1465 31.8573C27.2257 30.8288 29.6072 30.1283 32.4268 29.7158C33.256 29.5944 34.0967 29.4431 34.9248 29.2664C35.5664 29.13 35.928 28.7275 35.9452 28.1339V28.128C35.9491 27.9811 35.9219 27.8351 35.8653 27.6994C35.8088 27.5637 35.7241 27.4415 35.6171 27.3408C35.3268 27.0728 34.8685 26.9535 34.2917 26.9998Z" fill="white"/>
<path d="M43.7159 31.6846C43.6997 31.9279 43.7329 32.1719 43.8131 32.402C43.8936 32.6323 44.0195 32.844 44.1835 33.0246C44.3475 33.205 44.5461 33.3506 44.7676 33.4527C44.9891 33.5546 45.2288 33.6111 45.4723 33.6184C45.5 33.6197 45.5274 33.6202 45.555 33.6202C46.0293 33.619 46.4846 33.4329 46.8237 33.1014C47.0086 32.9237 47.1558 32.7105 47.2561 32.4746C47.3564 32.2386 47.4081 31.9847 47.4078 31.7284C47.4025 30.7308 46.6715 29.9374 45.7438 29.9218C44.576 29.9099 43.7578 30.6106 43.7159 31.6846Z" fill="white"/>
</g>
<rect x="1" y="1" width="68" height="68" rx="34" stroke="white" stroke-width="2"/>
</svg>
