<svg width="130" height="130" viewBox="0 0 130 130" fill="none" xmlns="http://www.w3.org/2000/svg">
<path d="M44.9488 88.109C45.6764 88.4735 45.9205 88.9819 45.7642 89.8094C45.6333 90.658 45.6255 91.5214 45.7413 92.3724C45.9151 93.9734 46.7733 95.8223 48.2466 96.0972C49.239 96.2904 50.247 96.3909 51.2579 96.3988C52.6165 96.4113 53.9655 96.1696 55.235 95.6855C56.8054 95.0805 57.5451 93.7075 57.2114 92.013C57.1344 91.6172 57.0513 91.2223 56.964 90.8038L56.9126 90.5563C57.4655 90.6075 58.0086 90.6666 58.5368 90.7233C59.9331 90.8985 61.3376 91.0009 62.7447 91.0314C64.1587 91.0287 65.5239 90.9032 66.9769 90.76C67.4923 90.7088 68.0225 90.6576 68.5533 90.6126C68.5431 90.69 68.5331 90.7655 68.5231 90.8394C68.4681 91.18 68.4384 91.5246 68.4337 91.8703C68.4545 93.5069 68.8857 94.7704 69.6802 95.5212C70.313 96.1199 71.1674 96.4011 72.2151 96.3557C74.4864 96.2588 76.3584 96.1012 78.1064 95.8595C79.3684 95.6855 80.1083 94.829 80.1341 93.51C80.1583 92.3036 80.1118 91.0768 80.0668 89.8911C80.0528 89.5208 80.0383 89.1504 80.0266 88.7801C80.0137 88.3882 79.9808 88.0003 79.9495 87.6253C79.9409 87.524 79.9323 87.4235 79.9241 87.3246C80.5385 87.0579 81.1454 86.7966 81.7449 86.5405C83.2098 85.9124 84.5942 85.3192 85.9836 84.6779C89.3745 83.114 91.8096 80.7594 93.2237 77.6806C93.2906 77.5351 93.3735 77.3932 93.4615 77.2442C93.4748 77.2219 93.4873 77.1988 93.501 77.1765C93.6171 77.1918 93.7309 77.2074 93.8431 77.2238C94.2205 77.2766 94.5768 77.3267 94.9428 77.3474C95.538 77.381 96.1258 77.3689 96.6729 77.3498C98.5629 77.2864 99.3028 76.5856 99.5002 74.6729C99.8671 71.1282 99.3462 67.6027 98.8413 64.1931L98.8175 64.0329C98.5515 62.2334 97.8136 61.6084 95.8943 61.5558C95.0773 61.534 94.2499 61.5396 93.449 61.545C93.1498 61.5471 92.851 61.5492 92.553 61.5497C90.5856 55.8541 87.3593 52.5213 82.4261 51.0947C82.8183 50.2635 83.1566 49.4078 83.4386 48.5329C83.9117 47.1633 84.3583 45.8692 85.2554 44.764C85.8111 44.0787 85.8827 43.3698 85.4467 42.8672C85.2488 42.679 85.0138 42.5346 84.7564 42.4434C84.4991 42.3523 84.2254 42.3164 83.9536 42.3382C79.1557 42.7846 75.7147 44.5866 73.4372 47.8473C73.3265 48.0001 73.2084 48.1472 73.0833 48.288L73.0629 48.3116C72.8048 48.2926 72.5565 48.2701 72.3144 48.2483C71.7337 48.1836 71.1499 48.1521 70.566 48.1538C68.914 48.1903 67.1101 48.2668 65.0508 48.3881C57.8169 48.8153 51.636 50.6602 46.1551 54.0287C41.1691 57.0928 38.2089 61.1941 37.1047 66.5678C36.9789 67.1797 36.7405 67.5431 36.3465 67.7074C36.3231 67.4523 36.3052 67.1956 36.2872 66.9448C36.2571 66.1279 36.1437 65.3162 35.9487 64.5226C35.7799 63.9038 35.3939 63.3663 34.8612 63.0091C34.3285 62.6518 33.6849 62.4983 33.0483 62.5768C32.4414 62.6702 31.8838 62.9662 31.4663 63.4167C31.0487 63.8669 30.7957 64.4451 30.7483 65.0575C30.7139 65.8155 30.7575 66.575 30.8784 67.3239C30.9187 67.6435 30.9606 67.9743 30.9885 68.2957C30.9935 68.3552 31.0187 68.4109 31.0599 68.4543C30.6171 68.9766 30.1162 69.6681 30.7409 70.4992C31.3353 71.2899 32.2196 71.1334 32.9305 71.0089L33.1358 70.9706C33.4207 70.9026 33.7131 70.8713 34.0059 70.8778C34.5706 70.917 35.144 70.9914 35.7513 71.07C35.9413 71.0957 36.1363 71.1195 36.3378 71.1449C36.3378 71.1552 36.3365 71.1655 36.336 71.1758C36.3254 71.3734 36.3149 71.5744 36.2952 71.7748C36.05 73.9131 36.3401 76.0788 37.1394 78.0771C37.2836 78.4322 37.415 78.8041 37.5418 79.1631C37.7387 79.7563 37.9701 80.3379 38.2348 80.9041C38.6849 81.8696 39.2415 82.7824 39.8944 83.6247C41.2039 85.225 42.7794 87.0227 44.9488 88.109ZM81.2854 45.7791C80.9831 46.3836 80.7199 47.007 80.4982 47.6454C80.0754 48.9603 79.6981 50.3694 79.3766 51.8344C79.1568 52.8354 79.5588 53.435 80.6057 53.6668C83.8734 54.3898 86.384 56.3361 88.2799 59.6151C88.8739 60.7065 89.3479 61.8592 89.694 63.0527C90.1242 64.4192 90.5923 65.0375 92.2285 65.0899C92.9726 65.114 93.7243 65.1084 94.5201 65.1025C94.8188 65.1004 95.1266 65.0981 95.4461 65.0973L96.0753 73.6566C95.7777 73.7238 95.4903 73.7848 95.2115 73.8462C94.4125 74.0183 93.6582 74.1798 92.9331 74.4144C92.4111 74.5822 91.7521 74.9428 91.4745 75.4515C89.0296 79.9073 84.8198 81.9858 81.0249 83.4315L80.5314 83.6189C79.5729 83.9833 78.5808 84.3603 77.6161 84.7572C76.6709 85.1456 76.611 86.1522 76.5821 86.6363C76.509 87.8537 76.4792 89.0914 76.4499 90.2888C76.4394 90.735 76.4284 91.1808 76.4155 91.627C76.4104 91.7971 76.4112 91.968 76.4124 92.1882V92.3513L72.5831 92.7509C72.5342 92.433 72.4806 92.1221 72.4294 91.8163C72.2796 91.0314 72.1764 90.2388 72.1193 89.4422C72.0657 88.3726 71.722 87.6034 71.0978 87.1552C70.4307 86.6766 69.4628 86.5987 68.2957 86.9292C65.9561 87.5905 63.6574 87.6057 61.5031 87.5655C60.8576 87.5533 60.1965 87.4763 59.5566 87.4016C59.0925 87.3472 58.6123 87.2913 58.1357 87.2593C57.5471 87.2143 56.9555 87.2389 56.3731 87.3332C54.91 87.5846 54.1601 88.3429 53.8624 89.8672C53.7669 90.3549 53.7129 90.8531 53.6655 91.3204C53.6357 91.6172 53.6203 91.9133 53.6023 92.2562C53.5974 92.3513 53.5923 92.4506 53.5864 92.5546L49.493 92.8366C49.4556 92.4541 49.4135 92.0787 49.3722 91.7091C49.2428 90.726 49.1691 89.7366 49.1512 88.7453C49.153 87.8095 49.0148 86.831 47.9985 86.0215L47.4492 85.5855C46.1886 84.6247 44.9842 83.5927 43.8418 82.4942C42.4488 81.1474 41.3633 79.5158 40.6594 77.7107C39.9555 75.9056 39.6499 73.9698 39.7635 72.0359C39.9078 68.692 40.5731 65.8199 41.7976 63.2552C42.7768 61.2042 44.3466 59.4198 46.5973 57.8004C51.9601 53.9394 58.323 51.9299 66.049 51.6568C66.9825 51.6239 67.9335 51.608 68.8534 51.5929C70.2496 51.5698 71.693 51.5459 73.1126 51.4615C73.7837 51.4214 74.423 50.6658 74.6029 50.4335C76.3557 48.1849 77.9731 46.8117 79.8471 45.9821C80.2796 45.7907 80.727 45.619 81.2455 45.4201L81.4977 45.323C81.4262 45.4806 81.3546 45.6321 81.2854 45.7791Z" fill="white"/>
<path d="M58.6223 33.4542C56.2078 33.6646 54.1743 35.0907 52.8957 37.4693C52.0325 39.0755 51.7776 40.6285 52.1382 42.0854C52.8602 45.0019 55.1841 46.487 59.0458 46.5001C59.1441 46.5053 59.2416 46.5075 59.3389 46.5075C61.6723 46.5075 63.769 45.0553 64.991 42.572C66.0929 40.3323 66.1399 38.4872 65.1342 36.9307C63.5383 34.4616 61.228 33.2278 58.6223 33.4542ZM61.5897 40.9255C60.8245 42.341 59.758 43.1521 58.7393 43.0731H58.7222C57.2786 43.0662 56.2178 42.6752 55.6538 41.9437C55.1715 41.3177 55.0588 40.4379 55.3278 39.3999C55.4628 38.8334 55.6855 38.2914 55.9879 37.7937C56.2109 37.4335 56.522 37.136 56.8921 36.9295C57.262 36.7229 57.6785 36.614 58.102 36.613C58.4814 36.6145 58.8559 36.6974 59.2001 36.856C59.8579 37.14 60.4767 37.5068 61.0417 37.9474C62.1779 38.8686 62.3101 39.5923 61.5897 40.9255Z" fill="white"/>
<path d="M64.0084 53.7993C59.3114 54.1654 55.2502 55.26 51.5893 57.1463C50.921 57.5108 50.294 57.9463 49.719 58.4453C49.0237 59.0256 48.8651 59.8254 49.324 60.4353C49.4236 60.5759 49.5562 60.6896 49.7102 60.7671C49.8641 60.8444 50.0347 60.8826 50.2069 60.8788C50.5565 60.8629 50.898 60.7674 51.2051 60.5998C54.116 59.1599 57.45 58.1791 61.3976 57.6016C62.5585 57.4317 63.7353 57.2199 64.8947 56.9725C65.793 56.7815 66.2992 56.2181 66.3233 55.387V55.3788C66.3287 55.1731 66.2907 54.9686 66.2114 54.7787C66.1323 54.5888 66.0138 54.4177 65.8639 54.2767C65.4576 53.9015 64.8159 53.7344 64.0084 53.7993Z" fill="white"/>
<path d="M77.2023 60.3581C77.1796 60.6986 77.2262 61.0403 77.3384 61.3624C77.451 61.6848 77.6274 61.9812 77.8569 62.234C78.0865 62.4866 78.3645 62.6904 78.6747 62.8334C78.9848 62.9761 79.3203 63.0551 79.6613 63.0654C79.7 63.0672 79.7383 63.068 79.7771 63.068C80.4411 63.0662 81.0785 62.8056 81.5533 62.3416C81.8121 62.0928 82.0182 61.7943 82.1586 61.464C82.299 61.1337 82.3714 60.7782 82.371 60.4194C82.3635 59.0228 81.3401 57.9119 80.0414 57.8901C78.4064 57.8734 77.261 58.8544 77.2023 60.3581Z" fill="white"/>
<rect x="1" y="1" width="128" height="128" rx="64" stroke="white" stroke-width="2"/>
</svg>
