<svg width="92" height="92" viewBox="0 0 92 92" fill="none" xmlns="http://www.w3.org/2000/svg">
<path d="M66.814 28.995L64.5531 29.9747L66.814 28.995Z" fill="#008734"/>
<path fill-rule="evenodd" clip-rule="evenodd" d="M64.5531 29.9747L66.814 28.995L56.4814 39.3275L58.0025 40.8487L72.1851 26.6671C73.129 25.7213 73.6598 24.4391 73.6599 23.1028C73.66 21.7699 73.1328 20.4913 72.1935 19.546C71.2305 18.6305 69.9525 18.1198 68.6235 18.1198C67.2942 18.1198 66.0159 18.6307 65.0528 19.5466L50.8766 33.722L52.3978 35.2431L54.659 34.2631M66.814 28.995L70.6646 25.1444L70.6657 25.1432C71.2058 24.6012 71.509 23.8673 71.509 23.1022C71.509 22.337 71.2058 21.6031 70.6657 21.0611L70.6576 21.0529L70.6493 21.045C70.1032 20.5241 69.3775 20.2335 68.6228 20.2335C67.8681 20.2335 67.1423 20.5241 66.5962 21.045L66.5885 21.0524L52.3978 35.2431L54.659 34.2631" fill="#008734"/>
<path fill-rule="evenodd" clip-rule="evenodd" d="M31.497 61.8039L33.7088 64.016C33.8087 64.1158 33.8883 64.2347 33.9424 64.3651C33.9964 64.4956 34.0243 64.6354 34.0243 64.7766C34.0243 64.9178 33.9964 65.0576 33.9424 65.1881C33.8883 65.3185 33.8091 65.437 33.7092 65.5368L25.7818 73.4642C25.6819 73.5641 25.5632 73.6436 25.4327 73.6977C25.3023 73.7517 25.1625 73.7795 25.0212 73.7795C24.88 73.7795 24.7402 73.7517 24.6097 73.6977C24.4793 73.6436 24.3608 73.5644 24.261 73.4645L18.3154 67.5189C18.2155 67.4191 18.136 67.3003 18.0819 67.1698C18.0278 67.0394 18 66.8996 18 66.7584C18 66.6172 18.0278 66.4774 18.0819 66.3469C18.136 66.2165 18.2152 66.098 18.3151 65.9981L26.2425 58.0707C26.3423 57.9708 26.4611 57.8913 26.5916 57.8372C26.722 57.7832 26.8618 57.7553 27.003 57.7553C27.1442 57.7553 27.2841 57.7832 27.4145 57.8372C27.5449 57.8913 27.6635 57.9706 27.7633 58.0704L29.9757 60.2826L38.4123 51.8466L39.9334 53.3678L31.497 61.8039ZM25.0212 71.1825L31.4272 64.7766L27.003 60.3525L20.5971 66.7584L25.0212 71.1825Z" fill="#008734"/>
<path fill-rule="evenodd" clip-rule="evenodd" d="M20.7572 25.1079L21.3571 23.5784L26.9504 29.1718L26.958 29.179C27.5038 29.7003 28.2296 29.9912 28.9843 29.9912C29.7391 29.9912 30.4648 29.7003 31.0106 29.179L31.0179 29.1721L31.025 29.165C31.2935 28.897 31.5065 28.5786 31.6519 28.2282C31.7972 27.8777 31.8721 27.502 31.8721 27.1226C31.8721 26.7432 31.7972 26.3675 31.6519 26.017C31.5065 25.6666 31.2935 25.3483 31.0251 25.0803L25.4393 19.4928L26.9704 18.8935L26.9745 18.8919C28.6372 18.2317 30.4364 17.9893 32.2145 18.1859C33.9926 18.3826 35.6954 19.0123 37.1735 20.02C38.6517 21.0276 39.8603 22.3824 40.6932 23.9656C41.5262 25.5488 41.9582 27.3121 41.9513 29.101L41.9513 29.1032C41.95 30.0581 41.8204 31.0084 41.5661 31.9288L41.4255 32.4376L59.3418 50.3528L59.8502 50.2127C60.7709 49.959 61.7214 49.8297 62.6765 49.8283L62.6789 49.8283C64.468 49.8209 66.2316 50.2526 67.815 51.0855C69.3985 51.9185 70.7534 53.1271 71.7609 54.6056C72.7685 56.0841 73.3979 57.7871 73.5941 59.5655C73.7902 61.3438 73.5471 63.1432 72.8859 64.8057L72.2852 66.3388L66.6912 60.7457L66.6837 60.7385C66.1379 60.2172 65.4122 59.9263 64.6574 59.9263C63.9026 59.9263 63.1769 60.2172 62.6311 60.7385L62.624 60.7453L62.617 60.7523C62.3484 61.0202 62.1352 61.3385 61.9897 61.6889C61.8443 62.0393 61.7693 62.415 61.7692 62.7944C61.769 63.1738 61.8437 63.5495 61.989 63.9C62.1342 64.2505 62.3471 64.5689 62.6155 64.8371L68.2014 70.4236L66.6716 71.0238L66.6677 71.0254C65.3966 71.5311 64.0419 71.7931 62.674 71.7978C59.7621 71.7939 56.9706 70.6355 54.9116 68.5765C52.8524 66.5173 51.694 63.7254 51.6904 60.8133C51.6918 59.8588 51.8214 58.9087 52.0756 57.9887L52.2162 57.48L34.2998 39.564L33.7912 39.7043C32.8707 39.9583 31.9202 40.0878 30.9652 40.0892L30.9629 40.0892C29.1738 40.0965 27.4102 39.6648 25.8268 38.8319C24.2434 37.9989 22.8885 36.7903 21.8809 35.3118C20.8733 33.8334 20.2439 32.1303 20.0477 30.352C19.8515 28.5736 20.0946 26.7743 20.7556 25.1118L20.7572 25.1079ZM34.1802 37.3102L34.1829 37.3091L34.8329 37.0539L54.7252 56.9467L54.47 57.5969L54.469 57.5995C53.9523 58.8925 53.7504 60.2898 53.88 61.6762C54.0096 63.0636 54.4674 64.4002 55.2156 65.5757C55.9638 66.7512 56.9808 67.7318 58.1828 68.4366C59.3848 69.1415 60.7372 69.5502 62.1283 69.6292L64.5 69.7638L61.094 66.3578C60.6259 65.8899 60.2545 65.3343 60.0012 64.723C59.7479 64.1116 59.6175 63.4564 59.6175 62.7946C59.6175 62.1329 59.7479 61.4776 60.0012 60.8662C60.2532 60.2581 60.6219 59.7053 61.0865 59.239C62.0498 58.3233 63.3282 57.8126 64.6575 57.8128C65.987 57.8129 67.2654 58.324 68.2285 59.2401L71.6263 62.6387L71.4913 60.2661C71.4122 58.8749 71.0032 57.5226 70.2983 56.3206C69.5933 55.1187 68.6126 54.1016 67.4371 53.3535C66.2615 52.6054 64.9249 52.1476 63.5375 52.0179C62.1513 51.8884 60.7543 52.0902 59.4614 52.6066L59.458 52.6079L58.8083 52.8622L38.9173 32.9711L39.1725 32.3211L39.1735 32.3185C39.6902 31.0254 39.8921 29.6281 39.7626 28.2417C39.633 26.8543 39.1753 25.5177 38.4271 24.3421C37.679 23.1666 36.6619 22.1859 35.46 21.481C34.258 20.7762 32.9056 20.3673 31.5144 20.2883L29.1436 20.1536L32.5476 23.5596C33.0156 24.0274 33.3872 24.5832 33.6405 25.1945C33.8938 25.8059 34.0242 26.4611 34.0242 27.1229C34.0242 27.7847 33.8938 28.4399 33.6405 29.0513C33.3885 29.6594 33.0198 30.2123 32.5553 30.6785C31.592 31.5942 30.3136 32.1049 28.9842 32.1047C27.6548 32.1046 26.3763 31.5935 25.4132 30.6774L22.016 27.2794L22.1504 29.6512C22.2293 31.0424 22.638 32.3949 23.3428 33.5969C24.0476 34.799 25.0283 35.8161 26.2038 36.5642C27.3794 37.3124 28.716 37.7702 30.1034 37.8997C31.4899 38.0291 32.8872 37.8271 34.1802 37.3102Z" fill="#008734"/>
<rect x="1" y="1" width="90" height="90" rx="45" stroke="#008734" stroke-width="2"/>
</svg>
