<svg width="20" height="20" viewBox="0 0 20 20" fill="none" xmlns="http://www.w3.org/2000/svg">
<path fill-rule="evenodd" clip-rule="evenodd" d="M6.36364 0C6.86571 0 7.27273 0.407014 7.27273 0.909091V1.81818H12.7273V0.909091C12.7273 0.407014 13.1343 0 13.6364 0C14.1384 0 14.5455 0.407014 14.5455 0.909091V1.81818H17.2727C18.779 1.81818 20 3.03922 20 4.54545V17.2727C20 18.779 18.779 20 17.2727 20H2.72727C1.22104 20 0 18.779 0 17.2727V4.54545C0 3.03922 1.22104 1.81818 2.72727 1.81818H5.45455V0.909091C5.45455 0.407014 5.86156 0 6.36364 0ZM5.45455 3.63636H2.72727C2.2252 3.63636 1.81818 4.04338 1.81818 4.54545V7.27273H18.1818V4.54545C18.1818 4.04338 17.7748 3.63636 17.2727 3.63636H14.5455V4.54545C14.5455 5.04753 14.1384 5.45455 13.6364 5.45455C13.1343 5.45455 12.7273 5.04753 12.7273 4.54545V3.63636H7.27273V4.54545C7.27273 5.04753 6.86571 5.45455 6.36364 5.45455C5.86156 5.45455 5.45455 5.04753 5.45455 4.54545V3.63636ZM18.1818 9.09091H1.81818V17.2727C1.81818 17.7748 2.2252 18.1818 2.72727 18.1818H17.2727C17.7748 18.1818 18.1818 17.7748 18.1818 17.2727V9.09091Z" fill="#6B6B6B"/>
</svg>
