<svg width="40" height="41" viewBox="0 0 40 41" fill="none" xmlns="http://www.w3.org/2000/svg">
<rect x="39" y="39.5" width="38" height="38" rx="19" transform="rotate(-180 39 39.5)" fill="white"/>
<path d="M23.106 20.5046L16.8004 26.8117C16.4164 27.1958 16.4164 27.8278 16.8004 28.2119C17.1844 28.596 17.8162 28.596 18.2003 28.2119L25.212 21.1985C25.596 20.8144 25.596 20.1825 25.212 19.7984L18.2003 12.785C18.0021 12.5867 17.7543 12.5 17.4942 12.5C17.234 12.5 16.9862 12.5991 16.788 12.785C16.404 13.1691 16.404 13.8011 16.788 14.1852L23.106 20.5046Z" fill="#6B6B6B"/>
<rect x="39" y="39.5" width="38" height="38" rx="19" transform="rotate(-180 39 39.5)" stroke="#6B6B6B" stroke-width="2"/>
</svg>
