<svg width="70" height="70" viewBox="0 0 70 70" fill="none" xmlns="http://www.w3.org/2000/svg">
<path fill-rule="evenodd" clip-rule="evenodd" d="M34.4826 11.513C34.8083 11.3502 35.1916 11.3502 35.5173 11.513L55.4749 21.4918C55.8668 21.6878 56.1143 22.0883 56.1143 22.5264C56.1143 29.1847 54.3356 37.1657 50.8903 43.9758C47.4533 50.7693 42.2586 56.5815 35.3177 58.5646C35.11 58.6239 34.8899 58.6239 34.6822 58.5646C27.7413 56.5815 22.5465 50.7694 19.1096 43.9758C15.6643 37.1657 13.8856 29.1847 13.8856 22.5264C13.8856 22.0883 14.1331 21.6878 14.525 21.4918L34.4826 11.513ZM35.3194 14.0006C35.1183 13.9001 34.8816 13.9001 34.6805 14.0006L16.6125 23.0346C16.3631 23.1593 16.2091 23.4177 16.218 23.6964C16.4121 29.7491 18.0927 36.8411 21.1739 42.9314C24.366 49.2411 28.9644 54.2968 34.7803 56.1765C34.9231 56.2226 35.0768 56.2226 35.2196 56.1765C41.0354 54.2968 45.6338 49.2411 48.826 42.9314C51.9071 36.8411 53.5878 29.7491 53.7818 23.6964C53.7908 23.4177 53.6367 23.1593 53.3874 23.0346L35.3194 14.0006Z" fill="white"/>
<path d="M43.7992 26.2008C44.2302 26.6319 44.2302 27.3306 43.7992 27.7617L38.9103 32.6505V46.2261C38.9103 46.8357 38.4161 47.3298 37.8066 47.3298H37.0047C36.3951 47.3298 35.901 46.8357 35.901 46.2261V40.113H34.0991V46.2261C34.0991 46.8357 33.6049 47.3298 32.9954 47.3298H32.1935C31.5839 47.3298 31.0897 46.8357 31.0897 46.2261V32.6505L26.2009 27.7617C25.7698 27.3307 25.7698 26.6319 26.2009 26.2008C26.6319 25.7698 27.3308 25.7698 27.7618 26.2008L32.2497 30.6887H37.7503L42.2383 26.2008C42.6693 25.7698 43.3682 25.7698 43.7992 26.2008Z" fill="white"/>
<path d="M31.8916 25.7784C31.8916 24.0617 33.2833 22.67 35 22.67C36.7168 22.67 38.1084 24.0617 38.1084 25.7784C38.1084 27.4951 36.7168 28.8869 35 28.8869C33.2833 28.8869 31.8916 27.4951 31.8916 25.7784Z" fill="white"/>
<rect x="1" y="1" width="68" height="68" rx="34" stroke="white" stroke-width="2"/>
</svg>
