<svg width="130" height="130" viewBox="0 0 130 130" fill="none" xmlns="http://www.w3.org/2000/svg">
<path fill-rule="evenodd" clip-rule="evenodd" d="M64.2757 32.1182C64.7316 31.8903 65.2683 31.8903 65.7242 32.1182L93.6649 46.0886C94.2135 46.3629 94.5601 46.9237 94.5601 47.5371C94.5601 56.8586 92.0698 68.0321 87.2464 77.5661C82.4347 87.0771 75.162 95.2141 65.4448 97.9904C65.1541 98.0735 64.8458 98.0735 64.5551 97.9904C54.8378 95.2141 47.5651 87.0771 42.7534 77.5661C37.9301 68.0321 35.4398 56.8586 35.4398 47.5371C35.4398 46.9237 35.7864 46.3629 36.335 46.0886L64.2757 32.1182ZM65.4472 35.6009C65.1656 35.4601 64.8343 35.4601 64.5527 35.6009L39.2576 48.2485C38.9084 48.4231 38.6928 48.7848 38.7053 49.175C38.977 57.6488 41.3299 67.5775 45.6435 76.104C50.1125 84.9376 56.5502 92.0156 64.6924 94.6471C64.8923 94.7117 65.1076 94.7117 65.3075 94.6471C73.4496 92.0156 79.8874 84.9376 84.3564 76.104C88.67 67.5775 91.0229 57.6488 91.2946 49.175C91.3071 48.7848 91.0915 48.4231 90.7423 48.2485L65.4472 35.6009Z" fill="white"/>
<path d="M77.3189 52.6812C77.9223 53.2846 77.9223 54.2629 77.3189 54.8664L70.4745 61.7108V80.7166C70.4745 81.57 69.7826 82.2618 68.9292 82.2618H67.8066C66.9532 82.2618 66.2614 81.57 66.2614 80.7166V72.1583H63.7388V80.7166C63.7388 81.57 63.0469 82.2618 62.1935 82.2618H61.0709C60.2175 82.2618 59.5257 81.57 59.5257 80.7166V61.7108L52.6813 54.8665C52.0778 54.263 52.0778 53.2846 52.6813 52.6812C53.2847 52.0777 54.2631 52.0777 54.8665 52.6812L61.1496 58.9643H68.8505L75.1336 52.6812C75.737 52.0777 76.7155 52.0777 77.3189 52.6812Z" fill="white"/>
<path d="M60.6483 52.0899C60.6483 49.6864 62.5966 47.7381 65.0001 47.7381C67.4035 47.7381 69.3519 49.6864 69.3519 52.0899C69.3519 54.4933 67.4035 56.4416 65.0001 56.4416C62.5966 56.4416 60.6483 54.4933 60.6483 52.0899Z" fill="white"/>
<rect x="1" y="1" width="128" height="128" rx="64" stroke="white" stroke-width="2"/>
</svg>
