<svg width="12" height="12" viewBox="0 0 12 12" fill="none" xmlns="http://www.w3.org/2000/svg">
<path d="M0.172419 11.8276C-0.0574729 11.5977 -0.0574729 11.225 0.172419 10.9951L10.9951 0.172419C11.225 -0.0574727 11.5977 -0.0574725 11.8276 0.172419C12.0575 0.402311 12.0575 0.775039 11.8276 1.00493L1.00493 11.8276C0.775038 12.0575 0.402311 12.0575 0.172419 11.8276Z" fill="white"/>
<path d="M0.17242 0.172419C0.402311 -0.0574729 0.77504 -0.0574729 1.00493 0.172419L11.8276 10.9951C12.0575 11.225 12.0575 11.5977 11.8276 11.8276C11.5977 12.0575 11.225 12.0575 10.9951 11.8276L0.172419 1.00493C-0.0574722 0.775038 -0.057472 0.402311 0.17242 0.172419Z" fill="white"/>
</svg>
