<svg width="25" height="24" viewBox="0 0 25 24" fill="none" xmlns="http://www.w3.org/2000/svg">
<path d="M10.3508 16.8085L6.89027 13.348C6.48293 12.9406 6.48293 12.2802 6.89027 11.8728C7.29762 11.4655 7.95805 11.4655 8.3654 11.8728L11.0698 14.5772L16.6594 7.38949C17.038 6.90257 17.7578 6.85774 18.1939 7.2939C18.5654 7.66536 18.5961 8.25747 18.2649 8.66531L11.7107 16.7381C11.368 17.1602 10.7353 17.193 10.3508 16.8085Z" fill="#FFCB08"/>
<path fill-rule="evenodd" clip-rule="evenodd" d="M12.5 21.1667C17.5626 21.1667 21.6667 17.0626 21.6667 12C21.6667 6.93739 17.5626 2.83333 12.5 2.83333C7.43739 2.83333 3.33333 6.93739 3.33333 12C3.33333 17.0626 7.43739 21.1667 12.5 21.1667ZM12.5 23C18.5751 23 23.5 18.0751 23.5 12C23.5 5.92487 18.5751 1 12.5 1C6.42487 1 1.5 5.92487 1.5 12C1.5 18.0751 6.42487 23 12.5 23Z" fill="#FFCB08"/>
</svg>
