<svg width="62" height="62" viewBox="0 0 62 62" fill="none" xmlns="http://www.w3.org/2000/svg">
<path d="M20 52.1202C20 53.6383 18.818 54.8804 17.3733 54.8804H6.90299C5.45828 54.8804 4.27625 53.6383 4.27625 52.1202V39.6077C4.27625 38.0896 5.45828 36.8475 6.90299 36.8475H17.3733C18.818 36.8475 20 38.0896 20 39.6077V52.1202Z" stroke="#6B6B6B" stroke-width="2.2"/>
<path d="M39.6935 52.1202C39.6935 53.6383 38.5114 54.8804 37.0667 54.8804H26.2095C24.7648 54.8804 23.5828 53.6383 23.5828 52.1202V32.9834C23.5828 31.4653 24.7648 30.2232 26.2095 30.2232H37.0667C38.5114 30.2232 39.6935 31.4653 39.6935 32.9834V52.1202Z" stroke="#6B6B6B" stroke-width="2.2"/>
<path d="M59 52.1202C59 53.6383 57.818 54.8804 56.3733 54.8804H46.1267C44.682 54.8804 43.5 53.6383 43.5 52.1202V25.623C43.5 24.105 44.682 22.8629 46.1267 22.8629H56.3733C57.818 22.8629 59 24.105 59 25.623V52.1202Z" stroke="#6B6B6B" stroke-width="2.2"/>
<path d="M56.7277 1.93186L44.9293 4.94812C43.9931 5.18623 43.7845 5.96661 44.4655 6.68222L46.9832 9.26588C47.1946 9.51908 46.9438 9.85581 46.7449 9.99842C45.1595 11.1356 42.6436 12.8042 39.166 14.7107C20.2333 25.09 4.62648 24.4534 4.39182 24.4422C3.13904 24.3754 2.06786 25.3894 2.00306 26.708C1.93845 28.0274 2.90369 29.1522 4.15927 29.2201C4.25155 29.2251 5.25777 29.2429 5.25777 29.2429C5.25777 29.2429 23.8395 28.5093 41.2721 18.9524C45.397 16.6912 48.2559 14.7409 49.9253 13.5062C50.1614 13.3315 50.5727 13.0305 50.9524 13.4366L53.7061 16.33C54.3871 17.0456 55.1261 16.8253 55.3488 15.8407L58.0255 3.28929C58.2479 2.30448 57.6637 1.69375 56.7277 1.93186Z" stroke="#6B6B6B" stroke-width="2.2"/>
</svg>
