<svg width="60" height="60" viewBox="0 0 60 60" fill="none" xmlns="http://www.w3.org/2000/svg">
<path d="M56.0255 20.7951L30.5075 8.03312C30.2121 7.90088 29.8921 7.83252 29.5685 7.83252C29.2448 7.83252 28.9248 7.90088 28.6295 8.03312L3.11745 20.7951C2.95856 20.8469 2.82012 20.9477 2.72196 21.0829C2.62379 21.2182 2.57092 21.381 2.57092 21.5481C2.57092 21.7152 2.62379 21.8781 2.72196 22.0133C2.82012 22.1486 2.95856 22.2493 3.11745 22.3011L6.97545 24.2271H6.77145V45.5511C6.48541 45.7147 6.2538 45.9589 6.10545 46.2531L4.43745 49.6251C4.30993 49.8819 4.24998 50.1669 4.26326 50.4533C4.27655 50.7396 4.36263 51.0179 4.51338 51.2617C4.66412 51.5056 4.87456 51.7069 5.12479 51.8468C5.37502 51.9867 5.65678 52.0604 5.94345 52.0611H9.32145C9.60946 52.062 9.89288 51.989 10.1447 51.8493C10.3965 51.7095 10.6083 51.5076 10.7599 51.2627C10.9115 51.0178 10.9979 50.7382 11.0108 50.4505C11.0236 50.1628 10.9626 49.8766 10.8335 49.6191L9.17145 46.2531C9.02311 45.9589 8.7915 45.7147 8.50545 45.5511V24.9771L12.7055 27.0891V37.5171C12.7055 39.8811 14.5055 42.0771 17.7575 43.7031C20.9255 45.2871 25.1255 46.1571 29.5835 46.1571C34.0415 46.1571 38.2415 45.2871 41.4095 43.7031C44.6675 42.0771 46.4615 39.8751 46.4615 37.5171V27.0891L56.0615 22.2891C56.2204 22.2373 56.3588 22.1366 56.457 22.0013C56.5551 21.8661 56.608 21.7032 56.608 21.5361C56.608 21.369 56.5551 21.2062 56.457 21.0709C56.3588 20.9357 56.2204 20.8349 56.0615 20.7831L56.0255 20.7951ZM9.5 50.5H5.5L7.62945 46.2L9.5 50.5ZM44.7575 37.5171C44.7575 39.2091 43.2935 40.8711 40.6415 42.1971C37.7075 43.6611 33.7715 44.4771 29.5715 44.4771C25.3715 44.4771 21.4355 43.6611 18.5015 42.1971C15.8495 40.8711 14.3855 39.1971 14.3855 37.5171V27.9171L28.6295 35.0571C28.9248 35.1894 29.2448 35.2577 29.5685 35.2577C29.8921 35.2577 30.2121 35.1894 30.5075 35.0571L44.7575 27.9291V37.5171ZM29.7575 33.5391C29.6939 33.5494 29.629 33.5494 29.5655 33.5391C29.5038 33.5477 29.4412 33.5477 29.3795 33.5391L5.37945 21.5391L29.3795 9.53912C29.443 9.52881 29.5079 9.52881 29.5715 9.53912C29.6332 9.5305 29.6958 9.5305 29.7575 9.53912L53.7575 21.5391L29.7575 33.5391Z" fill="#6B6B6B" stroke="#6B6B6B" stroke-width="0.4"/>
</svg>
