<svg width="92" height="92" viewBox="0 0 92 92" fill="none" xmlns="http://www.w3.org/2000/svg">
<path d="M35.7835 29.0191H63.9683C66.0606 29.0215 68.0665 29.8537 69.546 31.3331C71.0255 32.8126 71.8577 34.8186 71.86 36.9109V63.9683C71.8577 66.0606 71.0255 68.0665 69.546 69.546C68.0665 71.0255 66.0606 71.8577 63.9683 71.86H27.8917C25.7994 71.8577 23.7935 71.0255 22.314 69.546C20.8345 68.0665 20.0023 66.0606 20 63.9683V62.8877C20 62.5887 20.1188 62.3019 20.3302 62.0905C20.5416 61.879 20.8284 61.7603 21.1274 61.7603C21.4264 61.7603 21.7132 61.879 21.9246 62.0905C22.136 62.3019 22.2548 62.5887 22.2548 62.8877V63.9683C22.2565 65.4627 22.851 66.8955 23.9078 67.9522C24.9645 69.009 26.3973 69.6035 27.8917 69.6052H63.9683C65.4627 69.6035 66.8955 69.009 67.9522 67.9522C69.009 66.8955 69.6035 65.4627 69.6052 63.9683V36.9109C69.6035 35.4164 69.009 33.9836 67.9522 32.9269C66.8955 31.8701 65.4627 31.2757 63.9683 31.2739H27.8917C26.3973 31.2757 24.9645 31.8701 23.9078 32.9269C22.851 33.9836 22.2565 35.4164 22.2548 36.9109V56.0765C22.2548 56.3755 22.136 56.6623 21.9246 56.8737C21.7132 57.0851 21.4264 57.2039 21.1274 57.2039C20.8284 57.2039 20.5416 57.0851 20.3302 56.8737C20.1188 56.6623 20 56.3755 20 56.0765V36.9109C20.0023 34.8186 20.8345 32.8126 22.314 31.3331C23.7935 29.8537 25.7994 29.0215 27.8917 29.0191H33.5287V23.3822C33.5297 22.4855 33.8863 21.6258 34.5204 20.9917C35.1545 20.3576 36.0142 20.001 36.9109 20H54.9491C55.8458 20.001 56.7055 20.3576 57.3396 20.9917C57.9737 21.6258 58.3303 22.4855 58.3313 23.3822V25.637C58.3313 25.936 58.2125 26.2227 58.0011 26.4341C57.7897 26.6456 57.5029 26.7643 57.2039 26.7643C56.9049 26.7643 56.6182 26.6456 56.4067 26.4341C56.1953 26.2227 56.0765 25.936 56.0765 25.637V23.3822C56.0761 23.0833 55.9572 22.7968 55.7459 22.5854C55.5345 22.3741 55.248 22.2552 54.9491 22.2548H36.9109C36.612 22.2552 36.3255 22.3741 36.1141 22.5854C35.9028 22.7968 35.7839 23.0833 35.7835 23.3822V29.0191Z" fill="#008734"/>
<path fill-rule="evenodd" clip-rule="evenodd" d="M44.8026 40.2931H47.0573C47.9541 40.2941 48.8138 40.6508 49.4478 41.2848C50.0819 41.9189 50.4385 42.7786 50.4395 43.6753V45.9301H52.6943C53.591 45.9311 54.4507 46.2877 55.0848 46.9218C55.7188 47.5559 56.0755 48.4156 56.0765 49.3123V51.567C56.0755 52.4637 55.7188 53.3235 55.0848 53.9575C54.4507 54.5916 53.591 54.9482 52.6943 54.9492H50.4395V57.204C50.4385 58.1007 50.0819 58.9604 49.4478 59.5945C48.8138 60.2285 47.9541 60.5852 47.0573 60.5862H44.8026C43.9059 60.5852 43.0462 60.2285 42.4121 59.5945C41.778 58.9604 41.4214 58.1007 41.4204 57.204V54.9492H39.1656C38.2689 54.9482 37.4092 54.5916 36.7751 53.9575C36.1411 53.3235 35.7844 52.4637 35.7834 51.567V49.3123C35.7844 48.4156 36.1411 47.5559 36.7751 46.9218C37.4092 46.2877 38.2689 45.9311 39.1656 45.9301H41.4204V43.6753C41.4214 42.7786 41.778 41.9189 42.4121 41.2848C43.0462 40.6508 43.9059 40.2941 44.8026 40.2931ZM53.4911 48.5155C53.2797 48.3042 52.9932 48.1853 52.6943 48.1849H49.3121C49.0131 48.1849 48.7264 48.0661 48.5149 47.8547C48.3035 47.6432 48.1847 47.3565 48.1847 47.0575V43.6753C48.1844 43.3764 48.0655 43.0899 47.8541 42.8785C47.6428 42.6672 47.3562 42.5483 47.0573 42.5479H44.8026C44.5037 42.5483 44.2172 42.6672 44.0058 42.8785C43.7945 43.0899 43.6756 43.3764 43.6752 43.6753V47.0575C43.6752 47.3565 43.5564 47.6432 43.345 47.8547C43.1335 48.0661 42.8468 48.1849 42.5478 48.1849H39.1656C38.8667 48.1853 38.5802 48.3042 38.3689 48.5155C38.1575 48.7268 38.0386 49.0134 38.0382 49.3123V51.567C38.0386 51.8659 38.1575 52.1525 38.3689 52.3638C38.5802 52.5751 38.8667 52.694 39.1656 52.6944H42.5478C42.8468 52.6944 43.1335 52.8132 43.345 53.0246C43.5564 53.2361 43.6752 53.5228 43.6752 53.8218V57.204C43.6756 57.5029 43.7945 57.7894 44.0058 58.0008C44.2172 58.2121 44.5037 58.331 44.8026 58.3314H47.0573C47.3562 58.331 47.6428 58.2121 47.8541 58.0008C48.0655 57.7894 48.1844 57.5029 48.1847 57.204V53.8218C48.1847 53.5228 48.3035 53.2361 48.5149 53.0246C48.7264 52.8132 49.0131 52.6944 49.3121 52.6944H52.6943C52.9932 52.694 53.2797 52.5751 53.4911 52.3638C53.7024 52.1525 53.8213 51.8659 53.8217 51.567V49.3123C53.8213 49.0134 53.7024 48.7268 53.4911 48.5155Z" fill="#008734"/>
<rect x="1" y="1" width="90" height="90" rx="45" stroke="#008734" stroke-width="2"/>
</svg>
