<svg width="60" height="60" viewBox="0 0 60 60" fill="none" xmlns="http://www.w3.org/2000/svg">
<path d="M19.7835 13.0191H47.9683C50.0606 13.0215 52.0665 13.8537 53.546 15.3331C55.0255 16.8126 55.8577 18.8186 55.86 20.9109V47.9683C55.8577 50.0606 55.0255 52.0665 53.546 53.546C52.0665 55.0255 50.0606 55.8577 47.9683 55.86H11.8917C9.79943 55.8577 7.79349 55.0255 6.31401 53.546C4.83452 52.0665 4.00233 50.0606 4 47.9683V46.8877C4 46.5887 4.11878 46.3019 4.33021 46.0905C4.54163 45.879 4.82839 45.7603 5.12739 45.7603C5.42639 45.7603 5.71315 45.879 5.92458 46.0905C6.136 46.3019 6.25478 46.5887 6.25478 46.8877V47.9683C6.25654 49.4627 6.851 50.8955 7.90775 51.9522C8.96451 53.009 10.3973 53.6035 11.8917 53.6052H47.9683C49.4627 53.6035 50.8955 53.009 51.9522 51.9522C53.009 50.8955 53.6035 49.4627 53.6052 47.9683V20.9109C53.6035 19.4164 53.009 17.9836 51.9522 16.9269C50.8955 15.8701 49.4627 15.2757 47.9683 15.2739H11.8917C10.3973 15.2757 8.96451 15.8701 7.90775 16.9269C6.851 17.9836 6.25654 19.4164 6.25478 20.9109V40.0765C6.25478 40.3755 6.136 40.6623 5.92458 40.8737C5.71315 41.0851 5.42639 41.2039 5.12739 41.2039C4.82839 41.2039 4.54163 41.0851 4.33021 40.8737C4.11878 40.6623 4 40.3755 4 40.0765V20.9109C4.00233 18.8186 4.83452 16.8126 6.31401 15.3331C7.79349 13.8537 9.79943 13.0215 11.8917 13.0191H17.5287V7.38217C17.5297 6.48547 17.8863 5.62577 18.5204 4.9917C19.1545 4.35764 20.0142 4.00098 20.9109 4H38.9491C39.8458 4.00098 40.7055 4.35764 41.3396 4.9917C41.9737 5.62577 42.3303 6.48547 42.3313 7.38217V9.63696C42.3313 9.93596 42.2125 10.2227 42.0011 10.4341C41.7897 10.6456 41.5029 10.7643 41.2039 10.7643C40.9049 10.7643 40.6182 10.6456 40.4067 10.4341C40.1953 10.2227 40.0765 9.93596 40.0765 9.63696V7.38217C40.0761 7.08329 39.9572 6.79676 39.7459 6.58542C39.5345 6.37407 39.248 6.25517 38.9491 6.25478H20.9109C20.612 6.25517 20.3255 6.37407 20.1141 6.58542C19.9028 6.79676 19.7839 7.08329 19.7835 7.38217V13.0191Z" fill="#6B6B6B"/>
<path fill-rule="evenodd" clip-rule="evenodd" d="M28.8026 24.2931H31.0573C31.9541 24.2941 32.8138 24.6508 33.4478 25.2848C34.0819 25.9189 34.4385 26.7786 34.4395 27.6753V29.9301H36.6943C37.591 29.9311 38.4507 30.2877 39.0848 30.9218C39.7188 31.5559 40.0755 32.4156 40.0765 33.3123V35.567C40.0755 36.4637 39.7188 37.3235 39.0848 37.9575C38.4507 38.5916 37.591 38.9482 36.6943 38.9492H34.4395V41.204C34.4385 42.1007 34.0819 42.9604 33.4478 43.5945C32.8138 44.2285 31.9541 44.5852 31.0573 44.5862H28.8026C27.9059 44.5852 27.0462 44.2285 26.4121 43.5945C25.778 42.9604 25.4214 42.1007 25.4204 41.204V38.9492H23.1656C22.2689 38.9482 21.4092 38.5916 20.7751 37.9575C20.1411 37.3235 19.7844 36.4637 19.7834 35.567V33.3123C19.7844 32.4156 20.1411 31.5559 20.7751 30.9218C21.4092 30.2877 22.2689 29.9311 23.1656 29.9301H25.4204V27.6753C25.4214 26.7786 25.778 25.9189 26.4121 25.2848C27.0462 24.6508 27.9059 24.2941 28.8026 24.2931ZM37.4911 32.5155C37.2797 32.3042 36.9932 32.1853 36.6943 32.1849H33.3121C33.0131 32.1849 32.7264 32.0661 32.5149 31.8547C32.3035 31.6432 32.1847 31.3565 32.1847 31.0575V27.6753C32.1844 27.3764 32.0655 27.0899 31.8541 26.8785C31.6428 26.6672 31.3562 26.5483 31.0573 26.5479H28.8026C28.5037 26.5483 28.2172 26.6672 28.0058 26.8785C27.7945 27.0899 27.6756 27.3764 27.6752 27.6753V31.0575C27.6752 31.3565 27.5564 31.6432 27.345 31.8547C27.1335 32.0661 26.8468 32.1849 26.5478 32.1849H23.1656C22.8667 32.1853 22.5802 32.3042 22.3689 32.5155C22.1575 32.7268 22.0386 33.0134 22.0382 33.3123V35.567C22.0386 35.8659 22.1575 36.1525 22.3689 36.3638C22.5802 36.5751 22.8667 36.694 23.1656 36.6944H26.5478C26.8468 36.6944 27.1335 36.8132 27.345 37.0246C27.5564 37.2361 27.6752 37.5228 27.6752 37.8218V41.204C27.6756 41.5029 27.7945 41.7894 28.0058 42.0008C28.2172 42.2121 28.5037 42.331 28.8026 42.3314H31.0573C31.3562 42.331 31.6428 42.2121 31.8541 42.0008C32.0655 41.7894 32.1844 41.5029 32.1847 41.204V37.8218C32.1847 37.5228 32.3035 37.2361 32.5149 37.0246C32.7264 36.8132 33.0131 36.6944 33.3121 36.6944H36.6943C36.9932 36.694 37.2797 36.5751 37.4911 36.3638C37.7024 36.1525 37.8213 35.8659 37.8217 35.567V33.3123C37.8213 33.0134 37.7024 32.7268 37.4911 32.5155Z" fill="#6B6B6B"/>
</svg>
