<svg width="92" height="92" viewBox="0 0 92 92" fill="none" xmlns="http://www.w3.org/2000/svg">
<g clip-path="url(#clip0_417_2783)">
<path d="M35 69.3793C35 70.8973 33.818 72.1394 32.3733 72.1394H21.903C20.4583 72.1394 19.2762 70.8973 19.2762 69.3793V56.8667C19.2762 55.3486 20.4583 54.1066 21.903 54.1066H32.3733C33.818 54.1066 35 55.3486 35 56.8667V69.3793Z" stroke="#008734" stroke-width="2.2"/>
<path d="M54.6935 69.3793C54.6935 70.8973 53.5114 72.1394 52.0667 72.1394H41.2095C39.7648 72.1394 38.5828 70.8973 38.5828 69.3793V50.2424C38.5828 48.7243 39.7648 47.4823 41.2095 47.4823H52.0667C53.5114 47.4823 54.6935 48.7243 54.6935 50.2424V69.3793Z" stroke="#008734" stroke-width="2.2"/>
<path d="M74 69.3793C74 70.8973 72.818 72.1394 71.3733 72.1394H61.1267C59.682 72.1394 58.5 70.8973 58.5 69.3793V42.8821C58.5 41.364 59.682 40.1219 61.1267 40.1219H71.3733C72.818 40.1219 74 41.364 74 42.8821V69.3793Z" stroke="#008734" stroke-width="2.2"/>
<path d="M71.7277 19.1909L59.9293 22.2072C58.9931 22.4453 58.7845 23.2256 59.4655 23.9413L61.9832 26.5249C62.1946 26.7781 61.9438 27.1148 61.7449 27.2575C60.1595 28.3946 57.6436 30.0632 54.166 31.9697C35.2333 42.3491 19.6265 41.7124 19.3918 41.7012C18.139 41.6344 17.0679 42.6485 17.0031 43.9671C16.9384 45.2864 17.9037 46.4112 19.1593 46.4791C19.2516 46.4841 20.2578 46.502 20.2578 46.502C20.2578 46.502 38.8395 45.7683 56.2721 36.2115C60.397 33.9502 63.2559 31.9999 64.9253 30.7652C65.1614 30.5906 65.5727 30.2895 65.9524 30.6956L68.7061 33.589C69.3871 34.3046 70.1261 34.0843 70.3488 33.0997L73.0255 20.5483C73.2479 19.5635 72.6637 18.9528 71.7277 19.1909Z" stroke="#008734" stroke-width="2.2"/>
</g>
<rect x="1" y="1" width="90" height="90" rx="45" stroke="#008734" stroke-width="2"/>
<defs>
<clipPath id="clip0_417_2783">
<rect width="60" height="60" fill="white" transform="translate(16 16)"/>
</clipPath>
</defs>
</svg>
