<svg width="130" height="130" viewBox="0 0 130 130" fill="none" xmlns="http://www.w3.org/2000/svg">
<path d="M75.2594 82.5H37.7219C37.1418 82.5 36.5854 82.2695 36.1751 81.8593C35.7649 81.4491 35.5344 80.8927 35.5344 80.3125V54.8062H88.5375V70.2281C88.5375 70.5182 88.6528 70.7964 88.8579 71.0015C89.063 71.2066 89.3412 71.3219 89.6313 71.3219C89.9214 71.3219 90.1996 71.2066 90.4047 71.0015C90.6098 70.7964 90.725 70.5182 90.725 70.2281V47.5C90.725 46.3397 90.2641 45.2269 89.4436 44.4064C88.6232 43.5859 87.5104 43.125 86.35 43.125H82.6532V39.8438C82.6532 39.5537 82.5379 39.2755 82.3328 39.0704C82.1277 38.8652 81.8495 38.75 81.5594 38.75C81.2693 38.75 80.9911 38.8652 80.786 39.0704C80.5809 39.2755 80.4657 39.5537 80.4657 39.8438V42.9719H69.5282V40.1062C69.5282 39.8162 69.4129 39.538 69.2078 39.3329C69.0027 39.1277 68.7245 39.0125 68.4344 39.0125C68.1443 39.0125 67.8661 39.1277 67.661 39.3329C67.4559 39.538 67.3407 39.8162 67.3407 40.1062V42.9719H56.4032V40.1062C56.4032 39.8162 56.2879 39.538 56.0828 39.3329C55.8777 39.1277 55.5995 39.0125 55.3094 39.0125C55.0193 39.0125 54.7411 39.1277 54.536 39.3329C54.3309 39.538 54.2157 39.8162 54.2157 40.1062V42.9719H43.2782V40.1062C43.2782 39.8162 43.1629 39.538 42.9578 39.3329C42.7527 39.1277 42.4745 39.0125 42.1844 39.0125C41.8943 39.0125 41.6161 39.1277 41.411 39.3329C41.2059 39.538 41.0907 39.8162 41.0907 40.1062V42.9719H37.7219C36.5616 42.9719 35.4488 43.4328 34.6283 44.2533C33.8079 45.0738 33.3469 46.1866 33.3469 47.3469V80.1594C33.3469 81.3197 33.8079 82.4325 34.6283 83.253C35.4488 84.0734 36.5616 84.5344 37.7219 84.5344H75.2594C75.4634 84.4537 75.6385 84.3136 75.7618 84.1322C75.8852 83.9508 75.9512 83.7366 75.9512 83.5172C75.9512 83.2978 75.8852 83.0835 75.7618 82.9021C75.6385 82.7207 75.4634 82.5806 75.2594 82.5ZM37.7219 45.1594H41.3313V48.025C41.3313 48.3151 41.4465 48.5933 41.6517 48.7984C41.8568 49.0035 42.135 49.1187 42.425 49.1187C42.7151 49.1187 42.9933 49.0035 43.1984 48.7984C43.4036 48.5933 43.5188 48.3151 43.5188 48.025V45.1594H54.4563V48.025C54.4563 48.3151 54.5715 48.5933 54.7767 48.7984C54.9818 49.0035 55.26 49.1187 55.5501 49.1187C55.8401 49.1187 56.1183 49.0035 56.3234 48.7984C56.5286 48.5933 56.6438 48.3151 56.6438 48.025V45.1594H67.5813V48.025C67.5813 48.3151 67.6965 48.5933 67.9016 48.7984C68.1068 49.0035 68.385 49.1187 68.675 49.1187C68.9651 49.1187 69.2433 49.0035 69.4484 48.7984C69.6536 48.5933 69.7688 48.3151 69.7688 48.025V45.1594H80.7063V47.7625C80.7063 48.0526 80.8215 48.3308 81.0266 48.5359C81.2318 48.741 81.51 48.8562 81.8 48.8562C82.0901 48.8562 82.3683 48.741 82.5734 48.5359C82.7786 48.3308 82.8938 48.0526 82.8938 47.7625V45.1594H86.5032C87.0833 45.1594 87.6397 45.3898 88.05 45.8001C88.4602 46.2103 88.6907 46.7667 88.6907 47.3469V52.5531H35.4688V47.5C35.4472 47.1945 35.49 46.8879 35.5944 46.6C35.6988 46.3121 35.8625 46.0493 36.0749 45.8287C36.2873 45.608 36.5436 45.4344 36.8273 45.3191C37.1111 45.2039 37.4158 45.1494 37.7219 45.1594Z" fill="white"/>
<path d="M54.3469 58.5032H50.1469V62.7032H54.3469V58.5032Z" fill="white"/>
<path d="M64.1906 58.5032H59.9906V62.7032H64.1906V58.5032Z" fill="white"/>
<path d="M74.0344 58.4812H69.8344V62.6812H74.0344V58.4812Z" fill="white"/>
<path d="M44.5031 66.5312H40.3031V70.7312H44.5031V66.5312Z" fill="white"/>
<path d="M54.3469 66.5312H50.1469V70.7312H54.3469V66.5312Z" fill="white"/>
<path d="M64.1906 66.5312H59.9906V70.7312H64.1906V66.5312Z" fill="white"/>
<path d="M44.5031 74.647H40.3031V78.847H44.5031V74.647Z" fill="white"/>
<path d="M54.3469 74.647H50.1469V78.847H54.3469V74.647Z" fill="white"/>
<path d="M64.1906 74.603H59.9906V78.803H64.1906V74.603Z" fill="white"/>
<path d="M74.0344 74.603H69.8344V78.803H74.0344V74.603Z" fill="white"/>
<path d="M74.0344 66.5093H69.8344V70.7093H74.0344V66.5093Z" fill="white"/>
<path d="M83.7032 58.4375H79.5032V62.6375H83.7032V58.4375Z" fill="white"/>
<path d="M83.7032 66.4656H79.5032V70.6656H83.7032V66.4656Z" fill="white"/>
<path d="M87.575 72.9844C85.7647 72.9801 83.9938 73.5132 82.4868 74.5163C80.9798 75.5193 79.8044 76.9472 79.1096 78.6189C78.4149 80.2906 78.2319 82.1309 78.5841 83.9066C78.9362 85.6824 79.8075 87.3136 81.0876 88.5937C82.3677 89.8738 83.9989 90.7451 85.7747 91.0972C87.5504 91.4494 89.3907 91.2664 91.0624 90.5717C92.7341 89.8769 94.162 88.7015 95.165 87.1945C96.1681 85.6875 96.7012 83.9166 96.6969 82.1063C96.6911 79.6888 95.7282 77.3719 94.0188 75.6625C92.3094 73.9531 89.9925 72.9902 87.575 72.9844ZM87.575 89.0625C86.1983 89.0669 84.8512 88.6626 83.7044 87.9008C82.5576 87.1391 81.6626 86.0542 81.1327 84.7835C80.6029 83.5128 80.462 82.1135 80.7279 80.7626C80.9938 79.4118 81.6546 78.1703 82.6266 77.1953C83.5986 76.2202 84.838 75.5555 86.188 75.2853C87.538 75.0151 88.9378 75.1516 90.2101 75.6775C91.4825 76.2033 92.5702 77.0949 93.3355 78.2393C94.1009 79.3837 94.5094 80.7295 94.5094 82.1063C94.5094 83.9474 93.7795 85.7134 92.4797 87.0174C91.1799 88.3213 89.4161 89.0567 87.575 89.0625Z" fill="white"/>
<g clip-path="url(#clip0_101_27405)">
<path d="M91.1875 81.6875C91.3602 81.6875 91.5 81.5477 91.5 81.375V80.75C91.5 80.5773 91.3602 80.4375 91.1875 80.4375H90.3699C90.6318 79.8783 90.6383 79.2006 90.2893 78.6006C89.9246 77.9734 89.2168 77.625 88.4914 77.625H86.952C86.477 77.625 86.0172 77.7916 85.6523 78.0955L85.4225 78.2871C85.2236 78.4529 85.1967 78.7484 85.3625 78.9473L85.7627 79.4275C85.9285 79.6266 86.224 79.6533 86.423 79.4875L86.6521 79.2965C86.7365 79.2262 86.843 79.1877 86.9527 79.1877H88.5859C88.8143 79.1877 89 79.3736 89 79.6018C89 79.7172 88.9516 79.8279 88.867 79.9061L88.291 80.4375H84.3125C84.1398 80.4375 84 80.5773 84 80.75V81.375C84 81.5477 84.1398 81.6875 84.3125 81.6875H86.9369L86.2598 82.3125H84.3125C84.1398 82.3125 84 82.4523 84 82.625V83.25C84 83.4227 84.1398 83.5625 84.3125 83.5625H85.1301C84.8682 84.1217 84.8617 84.7994 85.2107 85.3994C85.5754 86.0264 86.2832 86.375 87.0086 86.375H88.548C89.023 86.375 89.4828 86.2084 89.8477 85.9045L90.0775 85.7129C90.2764 85.5471 90.3033 85.2516 90.1375 85.0527L89.7373 84.5725C89.5715 84.3734 89.276 84.3467 89.077 84.5125L88.8475 84.7039C88.7632 84.7741 88.6571 84.8125 88.5475 84.8125H86.9141C86.6857 84.8125 86.5 84.6266 86.5 84.3984C86.5 84.283 86.5484 84.1723 86.633 84.0941L87.209 83.5625H91.1875C91.3602 83.5625 91.5 83.4227 91.5 83.25V82.625C91.5 82.4523 91.3602 82.3125 91.1875 82.3125H88.5631L89.2402 81.6875H91.1875Z" fill="white"/>
</g>
<rect x="1" y="1" width="128" height="128" rx="64" stroke="white" stroke-width="2"/>
<defs>
<clipPath id="clip0_101_27405">
<rect width="10" height="10" fill="white" transform="translate(82.4 77)"/>
</clipPath>
</defs>
</svg>
