<svg width="70" height="70" viewBox="0 0 70 70" fill="none" xmlns="http://www.w3.org/2000/svg">
<path d="M42.3281 47.5H15.5156C15.1012 47.5 14.7038 47.3354 14.4108 47.0424C14.1177 46.7493 13.9531 46.3519 13.9531 45.9375V27.7188H51.8125V38.7344C51.8125 38.9416 51.8948 39.1403 52.0413 39.2868C52.1878 39.4333 52.3865 39.5156 52.5938 39.5156C52.8009 39.5156 52.9997 39.4333 53.1462 39.2868C53.2927 39.1403 53.375 38.9416 53.375 38.7344V22.5C53.375 21.6712 53.0458 20.8763 52.4597 20.2903C51.8737 19.7042 51.0788 19.375 50.25 19.375H47.6094V17.0312C47.6094 16.824 47.5271 16.6253 47.3806 16.4788C47.234 16.3323 47.0353 16.25 46.8281 16.25C46.6209 16.25 46.4222 16.3323 46.2757 16.4788C46.1292 16.6253 46.0469 16.824 46.0469 17.0312V19.2656H38.2344V17.2187C38.2344 17.0115 38.1521 16.8128 38.0056 16.6663C37.859 16.5198 37.6603 16.4375 37.4531 16.4375C37.2459 16.4375 37.0472 16.5198 36.9007 16.6663C36.7542 16.8128 36.6719 17.0115 36.6719 17.2187V19.2656H28.8594V17.2187C28.8594 17.0115 28.7771 16.8128 28.6306 16.6663C28.484 16.5198 28.2853 16.4375 28.0781 16.4375C27.8709 16.4375 27.6722 16.5198 27.5257 16.6663C27.3792 16.8128 27.2969 17.0115 27.2969 17.2187V19.2656H19.4844V17.2187C19.4844 17.0115 19.4021 16.8128 19.2556 16.6663C19.109 16.5198 18.9103 16.4375 18.7031 16.4375C18.4959 16.4375 18.2972 16.5198 18.1507 16.6663C18.0042 16.8128 17.9219 17.0115 17.9219 17.2187V19.2656H15.5156C14.6868 19.2656 13.892 19.5949 13.3059 20.1809C12.7199 20.767 12.3906 21.5618 12.3906 22.3906V45.8281C12.3906 46.6569 12.7199 47.4518 13.3059 48.0378C13.892 48.6239 14.6868 48.9531 15.5156 48.9531H42.3281C42.4738 48.8955 42.5989 48.7955 42.687 48.6659C42.7751 48.5363 42.8222 48.3833 42.8222 48.2266C42.8222 48.0699 42.7751 47.9168 42.687 47.7872C42.5989 47.6577 42.4738 47.5576 42.3281 47.5ZM15.5156 20.8281H18.0938V22.875C18.0938 23.0822 18.1761 23.2809 18.3226 23.4274C18.4691 23.5739 18.6678 23.6562 18.875 23.6562C19.0822 23.6562 19.2809 23.5739 19.4274 23.4274C19.5739 23.2809 19.6562 23.0822 19.6562 22.875V20.8281H27.4688V22.875C27.4688 23.0822 27.5511 23.2809 27.6976 23.4274C27.8441 23.5739 28.0428 23.6562 28.25 23.6562C28.4572 23.6562 28.6559 23.5739 28.8024 23.4274C28.9489 23.2809 29.0312 23.0822 29.0312 22.875V20.8281H36.8438V22.875C36.8438 23.0822 36.9261 23.2809 37.0726 23.4274C37.2191 23.5739 37.4178 23.6562 37.625 23.6562C37.8322 23.6562 38.0309 23.5739 38.1774 23.4274C38.3239 23.2809 38.4062 23.0822 38.4062 22.875V20.8281H46.2188V22.6875C46.2188 22.8947 46.3011 23.0934 46.4476 23.2399C46.5941 23.3864 46.7928 23.4688 47 23.4688C47.2072 23.4688 47.4059 23.3864 47.5524 23.2399C47.6989 23.0934 47.7812 22.8947 47.7812 22.6875V20.8281H50.3594C50.7738 20.8281 51.1712 20.9927 51.4642 21.2858C51.7573 21.5788 51.9219 21.9762 51.9219 22.3906V26.1094H13.9062V22.5C13.8908 22.2818 13.9214 22.0628 13.996 21.8571C14.0705 21.6515 14.1875 21.4638 14.3392 21.3062C14.4909 21.1486 14.674 21.0246 14.8766 20.9422C15.0793 20.8599 15.297 20.821 15.5156 20.8281Z" fill="white"/>
<path d="M27.3906 30.3594H24.3906V33.3594H27.3906V30.3594Z" fill="white"/>
<path d="M34.4219 30.3594H31.4219V33.3594H34.4219V30.3594Z" fill="white"/>
<path d="M41.4531 30.3438H38.4531V33.3437H41.4531V30.3438Z" fill="white"/>
<path d="M20.3594 36.0938H17.3594V39.0938H20.3594V36.0938Z" fill="white"/>
<path d="M27.3906 36.0938H24.3906V39.0938H27.3906V36.0938Z" fill="white"/>
<path d="M34.4219 36.0938H31.4219V39.0938H34.4219V36.0938Z" fill="white"/>
<path d="M20.3594 41.8906H17.3594V44.8906H20.3594V41.8906Z" fill="white"/>
<path d="M27.3906 41.8906H24.3906V44.8906H27.3906V41.8906Z" fill="white"/>
<path d="M34.4219 41.8594H31.4219V44.8594H34.4219V41.8594Z" fill="white"/>
<path d="M41.4531 41.8594H38.4531V44.8594H41.4531V41.8594Z" fill="white"/>
<path d="M41.4531 36.0781H38.4531V39.0781H41.4531V36.0781Z" fill="white"/>
<path d="M48.3594 30.3125H45.3594V33.3125H48.3594V30.3125Z" fill="white"/>
<path d="M48.3594 36.0469H45.3594V39.0469H48.3594V36.0469Z" fill="white"/>
<path d="M51.125 40.7031C49.8319 40.7001 48.567 41.0809 47.4905 41.7973C46.4141 42.5138 45.5746 43.5337 45.0783 44.7278C44.582 45.9218 44.4514 47.2363 44.7029 48.5047C44.9544 49.7731 45.5767 50.9383 46.4911 51.8527C47.4054 52.767 48.5706 53.3894 49.839 53.6409C51.1074 53.8924 52.4219 53.7617 53.616 53.2655C54.8101 52.7692 55.8299 51.9297 56.5464 50.8532C57.2629 49.7768 57.6437 48.5119 57.6406 47.2188C57.6365 45.492 56.9487 43.8371 55.7277 42.6161C54.5066 41.3951 52.8518 40.7073 51.125 40.7031ZM51.125 52.1875C50.1416 52.1906 49.1794 51.9018 48.3602 51.3577C47.5411 50.8136 46.9018 50.0387 46.5233 49.1311C46.1449 48.2234 46.0442 47.2239 46.2342 46.259C46.4241 45.2942 46.8961 44.4074 47.5904 43.7109C48.2847 43.0144 49.17 42.5397 50.1342 42.3467C51.0985 42.1537 52.0984 42.2512 53.0072 42.6268C53.916 43.0024 54.693 43.6392 55.2396 44.4567C55.7863 45.2741 56.0781 46.2354 56.0781 47.2188C56.0781 48.5339 55.5568 49.7953 54.6283 50.7267C53.6999 51.6581 52.4401 52.1834 51.125 52.1875Z" fill="white"/>
<g clip-path="url(#clip0_809_178)">
<g clip-path="url(#clip1_809_178)">
<path d="M53.4902 46.7858C53.6053 46.7858 53.6985 46.6899 53.6985 46.5716V46.143C53.6985 46.0246 53.6053 45.9287 53.4902 45.9287H52.9452C53.1198 45.5453 53.1241 45.0805 52.8914 44.6691C52.6483 44.2391 52.1764 44.0001 51.6928 44.0001H50.6665C50.3498 44.0001 50.0433 44.1144 49.8001 44.3228L49.6469 44.4541C49.5143 44.5678 49.4963 44.7705 49.6069 44.9068L49.8737 45.2361C49.9842 45.3726 50.1812 45.391 50.3139 45.2773L50.4666 45.1463C50.5229 45.0981 50.5939 45.0717 50.667 45.0717H51.7558C51.9081 45.0717 52.0319 45.1992 52.0319 45.3556C52.0319 45.4348 51.9996 45.5107 51.9432 45.5643L51.5592 45.9287H48.9069C48.7918 45.9287 48.6985 46.0246 48.6985 46.143V46.5716C48.6985 46.6899 48.7918 46.7858 48.9069 46.7858H50.6565L50.2051 47.2144H48.9069C48.7918 47.2144 48.6985 47.3103 48.6985 47.4287V47.8573C48.6985 47.9757 48.7918 48.0716 48.9069 48.0716H49.4519C49.2773 48.455 49.273 48.9197 49.5057 49.3311C49.7488 49.7611 50.2207 50.0001 50.7043 50.0001H51.7306C52.0472 50.0001 52.3538 49.8859 52.597 49.6775L52.7502 49.5461C52.8828 49.4324 52.9008 49.2298 52.7902 49.0934L52.5234 48.7641C52.4129 48.6276 52.2159 48.6093 52.0832 48.723L51.9302 48.8542C51.874 48.9023 51.8033 48.9287 51.7302 48.9287H50.6413C50.489 48.9287 50.3652 48.8012 50.3652 48.6448C50.3652 48.5656 50.3975 48.4897 50.4539 48.4361L50.8379 48.0716H53.4902C53.6053 48.0716 53.6985 47.9757 53.6985 47.8573V47.4287C53.6985 47.3103 53.6053 47.2144 53.4902 47.2144H51.7406L52.192 46.7858H53.4902Z" fill="white"/>
</g>
</g>
<rect x="1" y="1" width="68" height="68" rx="34" stroke="white" stroke-width="2"/>
<defs>
<clipPath id="clip0_809_178">
<rect width="7.14286" height="7.14286" fill="white" transform="translate(47.4286 43.5714)"/>
</clipPath>
<clipPath id="clip1_809_178">
<rect width="10" height="10" fill="white" transform="translate(48.0286 43.5714)"/>
</clipPath>
</defs>
</svg>
