<svg width="92" height="92" viewBox="0 0 92 92" fill="none" xmlns="http://www.w3.org/2000/svg">
<g clip-path="url(#clip0_417_1832)">
<path d="M35.2144 72.9998C35.1182 73.2207 34.9383 73.3942 34.7141 73.4824C34.49 73.5706 34.24 73.5661 34.0192 73.47C27.5942 70.6454 22.3582 65.6643 19.2168 59.3882C16.0753 53.112 15.2258 45.9354 16.8152 39.0993C16.8793 38.8745 17.0275 38.6831 17.2291 38.5648C17.4307 38.4465 17.6701 38.4105 17.8975 38.4642C18.125 38.5179 18.323 38.6572 18.4504 38.8531C18.5778 39.0491 18.6248 39.2866 18.5816 39.5163C17.0899 45.9383 17.8887 52.6797 20.8399 58.5753C23.7911 64.4709 28.7092 69.1502 34.7443 71.8046C34.9646 71.9013 35.1377 72.0813 35.2258 72.3053C35.3139 72.5292 35.3098 72.7789 35.2144 72.9998ZM25.4955 26.2807C28.8675 23.2714 32.7607 20.9031 36.9834 19.2923C37.0964 19.2536 37.2007 19.193 37.2903 19.114C37.3799 19.0349 37.4531 18.939 37.5056 18.8318C37.5581 18.7245 37.589 18.6079 37.5965 18.4886C37.604 18.3694 37.5879 18.2499 37.5492 18.1369C37.5105 18.0239 37.4499 17.9196 37.3709 17.83C37.2918 17.7404 37.1959 17.6672 37.0887 17.6147C36.9814 17.5622 36.8648 17.5313 36.7455 17.5238C36.6263 17.5163 36.5068 17.5324 36.3938 17.5711C32.0519 19.0522 28.1055 21.5051 24.8554 24.7427C24.7352 24.8711 24.6545 25.0315 24.6232 25.2045C24.5919 25.3776 24.6112 25.5561 24.6788 25.7184C24.7463 25.8808 24.8594 26.0203 25.0042 26.12C25.1491 26.2197 25.3197 26.2755 25.4955 26.2807ZM75.1923 39.0993C75.137 38.8647 74.9908 38.6617 74.7858 38.5349C74.5808 38.4081 74.3339 38.368 74.0993 38.4233C73.8647 38.4786 73.6617 38.6248 73.5349 38.8298C73.4081 39.0348 73.368 39.2817 73.4233 39.5163C74.9149 45.9383 74.1161 52.6797 71.1649 58.5753C68.2138 64.4709 63.2956 69.1502 57.2606 71.8046C57.0748 71.8922 56.9239 72.0399 56.8324 72.2237C56.7408 72.4076 56.7139 72.617 56.7559 72.8181C56.798 73.0191 56.9066 73.2002 57.0641 73.3319C57.2217 73.4637 57.4191 73.5385 57.6245 73.5444C64.1537 70.8084 69.5016 65.8463 72.718 59.5399C75.9345 53.2335 76.8111 45.991 75.1923 39.0993ZM55.0294 19.2923C59.1072 20.6803 62.8146 22.9805 65.8692 26.0177C65.9538 26.1019 66.0541 26.1687 66.1645 26.2141C66.2749 26.2596 66.3931 26.2829 66.5125 26.2826C66.6319 26.2824 66.7501 26.2586 66.8602 26.2127C66.9704 26.1668 67.0705 26.0996 67.1548 26.015C67.239 25.9304 67.3057 25.8301 67.3512 25.7197C67.3967 25.6093 67.4199 25.4911 67.4197 25.3717C67.4194 25.2523 67.3957 25.1342 67.3498 25.024C67.3039 24.9138 67.2367 24.8137 67.1521 24.7295C63.8997 21.4965 59.9525 19.0482 55.6111 17.5711C55.4981 17.5329 55.3786 17.5173 55.2596 17.5253C55.1406 17.5333 55.0243 17.5646 54.9174 17.6175C54.7014 17.7244 54.5368 17.9126 54.4596 18.1409C54.3825 18.3691 54.3992 18.6186 54.506 18.8346C54.6129 19.0505 54.8011 19.2152 55.0294 19.2923ZM40.4789 21.5208C40.4789 20.0562 41.0607 18.6517 42.0963 17.6161C43.1319 16.5805 44.5365 15.9987 46.0011 15.9987C47.4657 15.9987 48.8702 16.5805 49.9058 17.6161C50.9415 18.6517 51.5233 20.0562 51.5233 21.5208C51.5233 22.9854 50.9415 24.39 49.9058 25.4256C48.8702 26.4612 47.4657 27.043 46.0011 27.043C44.5365 27.043 43.1319 26.4612 42.0963 25.4256C41.0607 24.39 40.4789 22.9854 40.4789 21.5208ZM42.2984 21.5208C42.3807 22.4464 42.8065 23.3076 43.4921 23.9349C44.1776 24.5622 45.0732 24.9101 46.0024 24.9101C46.9317 24.9101 47.8272 24.5622 48.5128 23.9349C49.1983 23.3076 49.6241 22.4464 49.7064 21.5208C49.6277 20.5923 49.2033 19.7271 48.5171 19.0966C47.8309 18.4661 46.933 18.1162 46.0011 18.1162C45.0692 18.1162 44.1713 18.4661 43.4851 19.0966C42.7989 19.7271 42.3744 20.5923 42.2957 21.5208H42.2984ZM53.6933 36.4723L54.8222 50.2658C54.8268 50.4164 54.7966 50.566 54.7339 50.7031C54.6712 50.8401 54.5778 50.9609 54.4609 51.056C54.344 51.151 54.2067 51.2179 54.0598 51.2513C53.9128 51.2847 53.7602 51.2837 53.6136 51.2486V71.7355C53.5935 72.6124 53.3049 73.462 52.7868 74.1697C52.2686 74.8773 51.5459 75.4091 50.7161 75.6931C49.8862 75.9772 48.9893 75.9998 48.1461 75.7581C47.303 75.5163 46.5543 75.0218 46.0011 74.3412C45.4483 75.0223 44.6998 75.5172 43.8567 75.7593C43.0136 76.0013 42.1165 75.9787 41.2866 75.6946C40.4568 75.4104 39.7341 74.8784 39.2163 74.1704C38.6985 73.4624 38.4105 72.6125 38.3912 71.7355V51.2486C38.2447 51.2837 38.092 51.2847 37.9451 51.2513C37.7981 51.2179 37.6609 51.151 37.5439 51.056C37.427 50.9609 37.3336 50.8401 37.2709 50.7031C37.2083 50.566 37.1781 50.4164 37.1826 50.2658L38.3115 36.4723H22.7225C21.7828 36.4723 20.8815 36.099 20.217 35.4345C19.5525 34.77 19.1792 33.8688 19.1792 32.929C19.1792 31.9893 19.5525 31.088 20.217 30.4235C20.8815 29.759 21.7828 29.3857 22.7225 29.3857H69.2823C70.2221 29.3857 71.1233 29.759 71.7878 30.4235C72.4523 31.088 72.8257 31.9893 72.8257 32.929C72.8257 33.8688 72.4523 34.77 71.7878 35.4345C71.1233 36.099 70.2221 36.4723 69.2823 36.4723H53.6933ZM51.7968 51.2486H40.208V71.7355C40.2289 72.3693 40.4954 72.9702 40.9511 73.4111C41.4069 73.8521 42.0162 74.0986 42.6503 74.0986C43.2845 74.0986 43.8938 73.8521 44.3496 73.4111C44.8053 72.9702 45.0718 72.3693 45.0927 71.7355V55.9659C45.1053 55.7331 45.2066 55.514 45.3758 55.3537C45.5451 55.1934 45.7693 55.104 46.0024 55.104C46.2355 55.104 46.4598 55.1934 46.629 55.3537C46.7982 55.514 46.8996 55.7331 46.9122 55.9659V71.7355C46.9331 72.3693 47.1995 72.9702 47.6553 73.4111C48.111 73.8521 48.7203 74.0986 49.3545 74.0986C49.9886 74.0986 50.598 73.8521 51.0537 73.4111C51.5095 72.9702 51.7759 72.3693 51.7968 71.7355V51.2486ZM69.2823 34.6529C69.7402 34.6529 70.1794 34.471 70.5032 34.1472C70.8269 33.8234 71.0088 33.3843 71.0088 32.9264C71.0088 32.4685 70.8269 32.0293 70.5032 31.7055C70.1794 31.3818 69.7402 31.1999 69.2823 31.1999H22.7225C22.2646 31.1999 21.8255 31.3818 21.5017 31.7055C21.1779 32.0293 20.996 32.4685 20.996 32.9264C20.996 33.3843 21.1779 33.8234 21.5017 34.1472C21.8255 34.471 22.2646 34.6529 22.7225 34.6529H39.2996C39.4252 34.6536 39.5493 34.6802 39.6642 34.731C39.779 34.7818 39.8822 34.8558 39.9672 34.9482C40.0522 35.0407 40.1172 35.1497 40.1582 35.2685C40.1992 35.3872 40.2152 35.5131 40.2054 35.6383L39.0738 49.4291H52.9204L51.7915 35.6383C51.782 35.5123 51.7986 35.3857 51.8404 35.2664C51.8822 35.1471 51.9482 35.0378 52.0342 34.9452C52.1203 34.8527 52.2246 34.7789 52.3405 34.7286C52.4564 34.6783 52.5815 34.6525 52.7079 34.6529H69.2823Z" fill="#008734"/>
</g>
<rect x="1" y="1.05981" width="90" height="89.8805" rx="44.9402" stroke="#008734" stroke-width="2"/>
<defs>
<clipPath id="clip0_417_1832">
<rect width="60" height="59.8805" fill="white" transform="translate(16 16.0598)"/>
</clipPath>
</defs>
</svg>
