<svg width="24" height="24" viewBox="0 0 24 24" fill="none" xmlns="http://www.w3.org/2000/svg">
<g clip-path="url(#clip0_1519_1609)">
<path fill-rule="evenodd" clip-rule="evenodd" d="M0.727051 12.0538C0.727051 5.80045 5.75702 0.728827 11.9625 0.722656V4.81621C8.00088 4.82392 4.79206 8.06205 4.79206 12.0538C4.79206 16.0509 8.00859 19.2914 11.9749 19.2914C15.9188 19.2914 19.1592 16.0802 19.1592 12.0268L23.2242 12.0299C23.2242 18.3125 18.1873 23.3865 11.9749 23.3865C5.76397 23.3865 0.727051 18.3117 0.727051 12.0538Z" fill="#006648"/>
<path fill-rule="evenodd" clip-rule="evenodd" d="M7.01367 12.0538C7.01367 9.2777 9.2475 7.0269 12.002 7.0269C14.7588 7.0269 16.9926 9.2777 16.9926 12.0538C16.9926 14.8306 14.7588 17.0791 12.0028 17.0791C9.2475 17.0791 7.01367 14.8299 7.01367 12.0538Z" fill="#52AE30"/>
<path fill-rule="evenodd" clip-rule="evenodd" d="M15.4629 5.68783C15.4629 4.09731 16.7441 2.80607 18.3231 2.80607C19.902 2.80607 21.1817 4.09731 21.1817 5.68783C21.1817 7.27759 19.9012 8.56728 18.3231 8.56728C16.7441 8.56728 15.4629 7.27759 15.4629 5.68783Z" fill="#00674A"/>
</g>
<defs>
<clipPath id="clip0_1519_1609">
<rect width="24" height="24" fill="white"/>
</clipPath>
</defs>
</svg>
