<svg width="31" height="31" viewBox="0 0 31 31" fill="none" xmlns="http://www.w3.org/2000/svg">
<path d="M30.5 4.5V0.5H0.5V4.5H1.5V24.5H1C0.7235 24.5 0.5 24.7235 0.5 25C0.5 25.2765 0.7235 25.5 1 25.5H1.5H15V26.5C15 26.5235 15.0105 26.544 15.0135 26.567C14.146 26.7855 13.5 27.5655 13.5 28.5C13.5 29.603 14.397 30.5 15.5 30.5C16.603 30.5 17.5 29.603 17.5 28.5C17.5 27.5655 16.854 26.7855 15.9865 26.567C15.9895 26.544 16 26.5235 16 26.5V25.5H29.5H30C30.2765 25.5 30.5 25.2765 30.5 25C30.5 24.7235 30.2765 24.5 30 24.5H29.5V4.5H30.5ZM16.5 28.5C16.5 29.0515 16.0515 29.5 15.5 29.5C14.9485 29.5 14.5 29.0515 14.5 28.5C14.5 27.9485 14.9485 27.5 15.5 27.5C16.0515 27.5 16.5 27.9485 16.5 28.5ZM1.5 1.5H29.5V3.5H1.5V1.5ZM28.5 24.5H2.5V4.5H28.5V24.5Z" fill="white" stroke="white" stroke-width="0.2"/>
<path d="M15.499 22.5C19.91 22.5 23.499 18.911 23.499 14.5C23.499 10.089 19.91 6.5 15.499 6.5C11.088 6.5 7.49902 10.089 7.49902 14.5C7.49902 18.911 11.088 22.5 15.499 22.5ZM15.499 7.5C19.359 7.5 22.499 10.64 22.499 14.5C22.499 18.36 19.359 21.5 15.499 21.5C11.639 21.5 8.49902 18.36 8.49902 14.5C8.49902 10.64 11.639 7.5 15.499 7.5Z" fill="white" stroke="white" stroke-width="0.2"/>
<path d="M13.2585 18.4385C13.3335 18.4795 13.4165 18.5 13.499 18.5C13.5925 18.5 13.6855 18.4735 13.7675 18.422L19.2675 14.922C19.4115 14.83 19.499 14.671 19.499 14.5C19.499 14.329 19.4115 14.17 19.2675 14.078L13.7675 10.578C13.6125 10.481 13.4185 10.474 13.258 10.5615C13.0985 10.6495 12.999 10.8175 12.999 11V18C12.999 18.1825 13.0985 18.3505 13.2585 18.4385ZM13.999 11.9105L18.068 14.5L13.999 17.0895V11.9105Z" fill="white" stroke="white" stroke-width="0.2"/>
</svg>
