<svg width="92" height="92" viewBox="0 0 92 92" fill="none" xmlns="http://www.w3.org/2000/svg">
<g clip-path="url(#clip0_104_50171)">
<path d="M35.2147 72.9402C35.1185 73.161 34.9385 73.3345 34.7144 73.4227C34.4902 73.5109 34.2403 73.5064 34.0194 73.4103C27.5944 70.5857 22.3585 65.6046 19.217 59.3285C16.0755 53.0524 15.2261 45.8757 16.8154 39.0396C16.8795 38.8148 17.0277 38.6234 17.2293 38.5051C17.4309 38.3868 17.6703 38.3508 17.8978 38.4045C18.1253 38.4582 18.3233 38.5975 18.4507 38.7935C18.5781 38.9894 18.625 39.2269 18.5818 39.4566C17.0901 45.8786 17.8889 52.62 20.8401 58.5156C23.7913 64.4112 28.7095 69.0905 34.7445 71.7449C34.9649 71.8416 35.138 72.0216 35.2261 72.2456C35.3141 72.4695 35.31 72.7192 35.2147 72.9402ZM25.4958 26.221C28.8678 23.2117 32.7609 20.8434 36.9837 19.2326C37.0967 19.1939 37.201 19.1333 37.2906 19.0543C37.3802 18.9752 37.4533 18.8794 37.5059 18.7721C37.5584 18.6648 37.5893 18.5482 37.5968 18.429C37.6042 18.3097 37.5882 18.1902 37.5494 18.0772C37.5107 17.9642 37.4501 17.8599 37.3711 17.7703C37.2921 17.6807 37.1962 17.6075 37.0889 17.555C36.9816 17.5025 36.865 17.4716 36.7458 17.4641C36.6266 17.4566 36.507 17.4727 36.394 17.5114C32.0521 18.9925 28.1057 21.4454 24.8556 24.683C24.7354 24.8114 24.6548 24.9718 24.6235 25.1449C24.5921 25.3179 24.6114 25.4964 24.679 25.6588C24.7466 25.8211 24.8596 25.9606 25.0045 26.0603C25.1494 26.16 25.32 26.2158 25.4958 26.221ZM75.1925 39.0396C75.1372 38.805 74.991 38.602 74.786 38.4752C74.5811 38.3484 74.3341 38.3083 74.0995 38.3636C73.8649 38.4189 73.6619 38.5651 73.5352 38.7701C73.4084 38.9751 73.3682 39.222 73.4235 39.4566C74.9152 45.8786 74.1164 52.62 71.1652 58.5156C68.214 64.4112 63.2959 69.0905 57.2608 71.7449C57.075 71.8325 56.9242 71.9802 56.8326 72.1641C56.741 72.3479 56.7141 72.5573 56.7562 72.7584C56.7982 72.9594 56.9068 73.1405 57.0644 73.2723C57.222 73.404 57.4194 73.4789 57.6247 73.4847C64.1539 70.7487 69.5018 65.7866 72.7183 59.4802C75.9347 53.1738 76.8114 45.9313 75.1925 39.0396ZM55.0296 19.2326C59.1075 20.6206 62.8148 22.9208 65.8694 25.958C65.954 26.0422 66.0544 26.109 66.1647 26.1544C66.2751 26.1999 66.3934 26.2232 66.5128 26.2229C66.6321 26.2227 66.7503 26.1989 66.8605 26.153C66.9707 26.1071 67.0708 26.0399 67.155 25.9553C67.2392 25.8708 67.306 25.7704 67.3514 25.66C67.3969 25.5496 67.4202 25.4314 67.4199 25.312C67.4197 25.1926 67.3959 25.0745 67.35 24.9643C67.3041 24.8541 67.2369 24.754 67.1523 24.6698C63.9 21.4368 59.9528 18.9885 55.6113 17.5114C55.4983 17.4732 55.3789 17.4577 55.2598 17.4656C55.1408 17.4736 55.0245 17.5049 54.9176 17.5578C54.7017 17.6647 54.537 17.8529 54.4599 18.0812C54.3827 18.3094 54.3994 18.5589 54.5063 18.7749C54.6131 18.9908 54.8014 19.1555 55.0296 19.2326ZM40.4792 21.4611C40.4792 19.9966 41.061 18.592 42.0966 17.5564C43.1322 16.5208 44.5368 15.939 46.0013 15.939C47.4659 15.939 48.8705 16.5208 49.9061 17.5564C50.9417 18.592 51.5235 19.9966 51.5235 21.4611C51.5235 22.9257 50.9417 24.3303 49.9061 25.3659C48.8705 26.4015 47.4659 26.9833 46.0013 26.9833C44.5368 26.9833 43.1322 26.4015 42.0966 25.3659C41.061 24.3303 40.4792 22.9257 40.4792 21.4611ZM42.2987 21.4611C42.3809 22.3867 42.8068 23.2479 43.4923 23.8752C44.1779 24.5025 45.0734 24.8504 46.0027 24.8504C46.9319 24.8504 47.8275 24.5025 48.513 23.8752C49.1986 23.2479 49.6244 22.3867 49.7067 21.4611C49.628 20.5326 49.2035 19.6674 48.5173 19.0369C47.8311 18.4064 46.9332 18.0565 46.0013 18.0565C45.0695 18.0565 44.1715 18.4064 43.4853 19.0369C42.7991 19.6674 42.3747 20.5326 42.296 21.4611H42.2987ZM53.6936 36.4126L54.8224 50.2061C54.827 50.3567 54.7968 50.5064 54.7341 50.6434C54.6715 50.7804 54.5781 50.9012 54.4611 50.9963C54.3442 51.0913 54.207 51.1582 54.06 51.1916C53.9131 51.225 53.7604 51.2241 53.6139 51.1889V71.6758C53.5938 72.5527 53.3052 73.4023 52.787 74.11C52.2689 74.8177 51.5461 75.3494 50.7163 75.6334C49.8865 75.9175 48.9895 75.9401 48.1464 75.6984C47.3033 75.4567 46.5546 74.9621 46.0013 74.2815C45.4486 74.9626 44.7 75.4576 43.8569 75.6996C43.0138 75.9416 42.1167 75.919 41.2869 75.6349C40.457 75.3507 39.7344 74.8187 39.2166 74.1107C38.6988 73.4027 38.4107 72.5528 38.3914 71.6758V51.1889C38.2449 51.2241 38.0922 51.225 37.9453 51.1916C37.7984 51.1582 37.6611 51.0913 37.5442 50.9963C37.4273 50.9012 37.3339 50.7804 37.2712 50.6434C37.2085 50.5064 37.1783 50.3567 37.1829 50.2061L38.3118 36.4126H22.7227C21.783 36.4126 20.8817 36.0393 20.2172 35.3748C19.5527 34.7103 19.1794 33.8091 19.1794 32.8693C19.1794 31.9296 19.5527 31.0283 20.2172 30.3638C20.8817 29.6993 21.783 29.326 22.7227 29.326H69.2826C70.2223 29.326 71.1236 29.6993 71.7881 30.3638C72.4526 31.0283 72.8259 31.9296 72.8259 32.8693C72.8259 33.8091 72.4526 34.7103 71.7881 35.3748C71.1236 36.0393 70.2223 36.4126 69.2826 36.4126H53.6936ZM51.7971 51.1889H40.2083V71.6758C40.2292 72.3096 40.4956 72.9105 40.9514 73.3514C41.4071 73.7924 42.0164 74.0389 42.6506 74.0389C43.2847 74.0389 43.8941 73.7924 44.3498 73.3514C44.8056 72.9105 45.072 72.3096 45.0929 71.6758V55.9062C45.1055 55.6734 45.2068 55.4543 45.3761 55.294C45.5453 55.1337 45.7696 55.0443 46.0027 55.0443C46.2358 55.0443 46.46 55.1337 46.6293 55.294C46.7985 55.4543 46.8998 55.6734 46.9124 55.9062V71.6758C46.9333 72.3096 47.1998 72.9105 47.6555 73.3514C48.1113 73.7924 48.7206 74.0389 49.3547 74.0389C49.9889 74.0389 50.5982 73.7924 51.054 73.3514C51.5097 72.9105 51.7762 72.3096 51.7971 71.6758V51.1889ZM69.2826 34.5932C69.7405 34.5932 70.1796 34.4113 70.5034 34.0875C70.8272 33.7637 71.0091 33.3246 71.0091 32.8667C71.0091 32.4088 70.8272 31.9696 70.5034 31.6458C70.1796 31.3221 69.7405 31.1402 69.2826 31.1402H22.7227C22.2649 31.1402 21.8257 31.3221 21.5019 31.6458C21.1781 31.9696 20.9962 32.4088 20.9962 32.8667C20.9962 33.3246 21.1781 33.7637 21.5019 34.0875C21.8257 34.4113 22.2649 34.5932 22.7227 34.5932H39.2998C39.4254 34.5939 39.5496 34.6205 39.6644 34.6713C39.7793 34.7221 39.8824 34.7961 39.9674 34.8886C40.0524 34.981 40.1174 35.09 40.1584 35.2088C40.1994 35.3275 40.2155 35.4534 40.2056 35.5786L39.0741 49.3694H52.9206L51.7918 35.5786C51.7822 35.4526 51.7989 35.326 51.8407 35.2067C51.8824 35.0874 51.9484 34.9781 52.0345 34.8855C52.1205 34.793 52.2248 34.7192 52.3407 34.6689C52.4567 34.6186 52.5818 34.5928 52.7081 34.5932H69.2826Z" fill="#008734"/>
</g>
<rect x="1" y="1" width="90" height="89.8805" rx="44.9402" stroke="#008734" stroke-width="2"/>
<defs>
<clipPath id="clip0_104_50171">
<rect width="60" height="59.8805" fill="white" transform="translate(16 16)"/>
</clipPath>
</defs>
</svg>
