<svg width="92" height="93" viewBox="0 0 92 93" fill="none" xmlns="http://www.w3.org/2000/svg">
<path d="M66.814 29.8754L64.5531 30.8551L66.814 29.8754Z" fill="#008734"/>
<path fill-rule="evenodd" clip-rule="evenodd" d="M64.5531 30.8551L66.814 29.8754L56.4814 40.2079L58.0025 41.7291L72.1851 27.5475C73.129 26.6017 73.6598 25.3195 73.6599 23.9832C73.66 22.6503 73.1328 21.3717 72.1935 20.4264C71.2305 19.5109 69.9525 19.0002 68.6235 19.0002C67.2942 19.0002 66.0159 19.5111 65.0528 20.427L50.8766 34.6024L52.3978 36.1235L54.659 35.1434M66.814 29.8754L70.6646 26.0248L70.6657 26.0236C71.2058 25.4816 71.509 24.7477 71.509 23.9825C71.509 23.2174 71.2058 22.4835 70.6657 21.9415L70.6576 21.9333L70.6493 21.9254C70.1032 21.4045 69.3775 21.1138 68.6228 21.1138C67.8681 21.1138 67.1423 21.4045 66.5962 21.9254L66.5885 21.9327L52.3978 36.1235L54.659 35.1434" fill="#008734"/>
<path fill-rule="evenodd" clip-rule="evenodd" d="M31.497 62.6842L33.7088 64.8964C33.8087 64.9962 33.8883 65.1151 33.9424 65.2455C33.9964 65.3759 34.0243 65.5158 34.0243 65.657C34.0243 65.7982 33.9964 65.938 33.9424 66.0684C33.8883 66.1989 33.8091 66.3174 33.7092 66.4172L25.7818 74.3446C25.6819 74.4445 25.5632 74.524 25.4327 74.578C25.3023 74.6321 25.1625 74.6599 25.0212 74.6599C24.88 74.6599 24.7402 74.6321 24.6097 74.578C24.4793 74.524 24.3608 74.4447 24.261 74.3448L18.3154 68.3993C18.2155 68.2995 18.136 68.1807 18.0819 68.0502C18.0278 67.9198 18 67.78 18 67.6387C18 67.4975 18.0278 67.3577 18.0819 67.2273C18.136 67.0968 18.2152 66.9783 18.3151 66.8785L26.2425 58.9511C26.3423 58.8512 26.4611 58.7717 26.5916 58.7176C26.722 58.6635 26.8618 58.6357 27.003 58.6357C27.1442 58.6357 27.2841 58.6635 27.4145 58.7176C27.5449 58.7717 27.6635 58.8509 27.7633 58.9508L29.9757 61.163L38.4123 52.727L39.9334 54.2482L31.497 62.6842ZM25.0212 72.0629L31.4272 65.657L27.003 61.2328L20.5971 67.6387L25.0212 72.0629Z" fill="#008734"/>
<path fill-rule="evenodd" clip-rule="evenodd" d="M20.7572 25.9882L21.3571 24.4588L26.9504 30.0522L26.958 30.0594C27.5038 30.5807 28.2296 30.8715 28.9843 30.8715C29.7391 30.8715 30.4648 30.5807 31.0106 30.0594L31.0179 30.0525L31.025 30.0454C31.2935 29.7774 31.5065 29.459 31.6519 29.1085C31.7972 28.7581 31.8721 28.3824 31.8721 28.003C31.8721 27.6236 31.7972 27.2479 31.6519 26.8974C31.5065 26.547 31.2935 26.2287 31.0251 25.9607L25.4393 20.3732L26.9704 19.7739L26.9745 19.7723C28.6372 19.112 30.4364 18.8696 32.2145 19.0663C33.9926 19.263 35.6954 19.8927 37.1735 20.9003C38.6517 21.908 39.8603 23.2627 40.6932 24.8459C41.5262 26.4291 41.9582 28.1925 41.9513 29.9814L41.9513 29.9836C41.95 30.9384 41.8204 31.8888 41.5661 32.8092L41.4255 33.3179L59.3418 51.2332L59.8502 51.0931C60.7709 50.8393 61.7214 50.71 62.6765 50.7087L62.6789 50.7086C64.468 50.7013 66.2316 51.133 67.815 51.9659C69.3985 52.7988 70.7534 54.0075 71.7609 55.486C72.7685 56.9644 73.3979 58.6675 73.5941 60.4459C73.7902 62.2242 73.5471 64.0235 72.8859 65.686L72.2852 67.2192L66.6912 61.6261L66.6837 61.6189C66.1379 61.0976 65.4122 60.8067 64.6574 60.8067C63.9026 60.8067 63.1769 61.0976 62.6311 61.6189L62.624 61.6257L62.617 61.6326C62.3484 61.9006 62.1352 62.2189 61.9897 62.5693C61.8443 62.9197 61.7693 63.2953 61.7692 63.6748C61.769 64.0542 61.8437 64.4299 61.989 64.7804C62.1342 65.1309 62.3471 65.4493 62.6155 65.7174L68.2014 71.304L66.6716 71.9042L66.6677 71.9058C65.3966 72.4114 64.0419 72.6734 62.674 72.6781C59.7621 72.6743 56.9706 71.5159 54.9116 69.4569C52.8524 67.3977 51.694 64.6058 51.6904 61.6937C51.6918 60.7391 51.8214 59.7891 52.0756 58.869L52.2162 58.3603L34.2998 40.4443L33.7912 40.5847C32.8707 40.8387 31.9202 40.9682 30.9652 40.9696L30.9629 40.9696C29.1738 40.9769 27.4102 40.5452 25.8268 39.7122C24.2434 38.8793 22.8885 37.6706 21.8809 36.1922C20.8733 34.7137 20.2439 33.0107 20.0477 31.2324C19.8515 29.454 20.0946 27.6547 20.7556 25.9922L20.7572 25.9882ZM34.1802 38.1906L34.1829 38.1895L34.8329 37.9343L54.7252 57.8271L54.47 58.4772L54.469 58.4799C53.9523 59.7729 53.7504 61.1702 53.88 62.5566C54.0096 63.944 54.4674 65.2806 55.2156 66.456C55.9638 67.6315 56.9808 68.6122 58.1828 69.317C59.3848 70.0218 60.7372 70.4306 62.1283 70.5096L64.5 70.6442L61.094 67.2381C60.6259 66.7703 60.2545 66.2147 60.0012 65.6034C59.7479 64.992 59.6175 64.3367 59.6175 63.675C59.6175 63.0132 59.7479 62.358 60.0012 61.7466C60.2532 61.1385 60.6219 60.5856 61.0865 60.1193C62.0498 59.2037 63.3282 58.693 64.6575 58.6931C65.987 58.6933 67.2654 59.2044 68.2285 60.1205L71.6263 63.519L71.4913 61.1465C71.4122 59.7553 71.0032 58.4029 70.2983 57.201C69.5933 55.999 68.6126 54.982 67.4371 54.2339C66.2615 53.4857 64.9249 53.0279 63.5375 52.8983C62.1513 52.7688 60.7543 52.9705 59.4614 53.4869L59.458 53.4883L58.8083 53.7425L38.9173 33.8515L39.1725 33.2014L39.1735 33.1988C39.6902 31.9058 39.8921 30.5085 39.7626 29.122C39.633 27.7347 39.1753 26.398 38.4271 25.2225C37.679 24.047 36.6619 23.0663 35.46 22.3614C34.258 21.6565 32.9056 21.2477 31.5144 21.1687L29.1436 21.034L32.5476 24.4399C33.0156 24.9078 33.3872 25.4635 33.6405 26.0749C33.8938 26.6862 34.0242 27.3415 34.0242 28.0033C34.0242 28.665 33.8938 29.3203 33.6405 29.9316C33.3885 30.5398 33.0198 31.0926 32.5553 31.5589C31.592 32.4746 30.3136 32.9853 28.9842 32.9851C27.6548 32.985 26.3763 32.4739 25.4132 31.5578L22.016 28.1598L22.1504 30.5316C22.2293 31.9228 22.638 33.2753 23.3428 34.4773C24.0476 35.6793 25.0283 36.6964 26.2038 37.4446C27.3794 38.1928 28.716 38.6505 30.1034 38.78C31.4899 38.9095 32.8872 38.7074 34.1802 38.1906Z" fill="#008734"/>
<rect x="1" y="1.88037" width="90" height="90" rx="45" stroke="#008734" stroke-width="2"/>
</svg>
