<svg width="60" height="61" viewBox="0 0 60 61" fill="none" xmlns="http://www.w3.org/2000/svg">
<path fill-rule="evenodd" clip-rule="evenodd" d="M53.712 3.10963C54.6457 2.87211 55.8443 2.97328 56.7182 3.88723C57.5636 4.77125 57.6397 5.93377 57.4385 6.82487L57.4359 6.8361L54.936 17.6245C54.9356 17.6265 54.9351 17.6284 54.9347 17.6304C54.747 18.4536 54.1932 19.5842 52.91 19.9665C51.7192 20.3213 50.7128 19.7949 50.0893 19.2267L47.7335 17.607C46.081 18.7525 43.7668 20.2343 40.759 21.8832C32.3719 26.4812 23.7405 28.9419 17.232 30.2561C13.9716 30.9145 11.2281 31.2882 9.29247 31.4978C8.32424 31.6026 7.557 31.6665 7.02698 31.7044C6.76193 31.7233 6.5561 31.7357 6.41401 31.7435C6.34297 31.7474 6.28784 31.7502 6.24921 31.752L6.20369 31.7541L6.19034 31.7546L6.18448 31.7549C6.18448 31.7549 6.18333 31.7549 6.10219 29.6998C6.10219 29.6998 23.4734 29.014 39.7704 20.0797C43.6265 17.9658 46.2992 16.1425 47.8598 14.9883C48.0189 14.8706 48.2631 15.1773 48.52 15.4999C48.6195 15.6248 48.7209 15.7521 48.82 15.8581L51.3943 17.6281C52.0309 18.2971 52.7218 18.0912 52.93 17.1707L55.4323 6.37183C55.6402 5.45117 55.0941 4.88024 54.2191 5.10283L43.1892 7.9226C42.3141 8.14519 42.1191 8.87473 42.7557 9.54372L45.1094 11.9591C45.307 12.1958 45.0725 12.5106 44.8866 12.6439C43.4045 13.707 41.0525 15.2669 37.8014 17.0492C20.1022 26.7524 5.51202 26.1572 5.29265 26.1467C4.12149 26.0842 3.12008 27.0322 3.05951 28.2649C2.9991 29.4983 3.90146 29.615 5.07525 29.6785C5.16152 29.6832 6.10219 29.6998 6.10219 29.6998L6.18333 31.7549L6.12454 31.7572L6.06571 31.7562L5.57856 31.7472C5.36529 31.743 5.05401 31.737 4.96469 31.7322C4.94634 31.7312 4.92677 31.7302 4.90701 31.7291C4.40319 31.7025 3.45095 31.6522 2.64938 31.2319C2.15047 30.9702 1.66823 30.5528 1.35135 29.9308C1.04837 29.3361 0.978349 28.7145 1.0053 28.1643C1.11691 25.8929 2.99463 23.9698 5.39275 24.0924C5.57767 24.0999 19.6757 24.6407 36.8128 15.2457C39.0732 14.0065 40.8811 12.8814 42.2472 11.9688L41.2743 10.9704L41.2659 10.9616C40.6499 10.3143 40.0919 9.25668 40.4186 8.03455C40.7517 6.78893 41.791 6.1564 42.6811 5.92968L42.6823 5.92938L53.712 3.10963ZM46.7436 16.5761C46.7325 16.5652 46.7267 16.5583 46.7267 16.5583C46.7267 16.5583 46.732 16.5632 46.7436 16.5761ZM19.071 52.0216C19.071 54.4795 17.14 56.6586 14.5587 56.6586H6.64022C4.05895 56.6586 2.12793 54.4795 2.12793 52.0216V40.3242C2.12793 37.8664 4.05895 35.6872 6.64022 35.6872H14.5587C17.14 35.6872 19.071 37.8664 19.071 40.3242V52.0216ZM38.4164 52.0216C38.4164 54.4795 36.4853 56.6586 33.9041 56.6586H25.6239C23.0426 56.6586 21.1116 54.4795 21.1116 52.0216V35.0663C21.1116 32.6084 23.0426 30.4293 25.6239 30.4293H33.9041C36.4853 30.4293 38.4164 32.6084 38.4164 35.0663V52.0216ZM58.4 52.0216C58.4 54.4795 56.469 56.6586 53.8877 56.6586H45.1784C42.5971 56.6586 40.6661 54.4795 40.6661 52.0216V28.1855C40.6661 25.7276 42.5971 23.5485 45.1784 23.5485H53.8877C56.469 23.5485 58.4 25.7276 58.4 28.1855V52.0216ZM56.3433 52.0216C56.3433 53.4408 55.2383 54.6019 53.8877 54.6019H45.1784C43.8278 54.6019 42.7228 53.4408 42.7228 52.0216V28.1855C42.7228 26.7663 43.8278 25.6052 45.1784 25.6052H53.8877C55.2383 25.6052 56.3433 26.7663 56.3433 28.1855V52.0216ZM33.9041 54.6019C35.2546 54.6019 36.3597 53.4408 36.3597 52.0216V35.0663C36.3597 33.6471 35.2546 32.486 33.9041 32.486H25.6239C24.2733 32.486 23.1683 33.6471 23.1683 35.0663V52.0216C23.1683 53.4408 24.2733 54.6019 25.6239 54.6019H33.9041ZM14.5587 54.6019C15.9093 54.6019 17.0143 53.4408 17.0143 52.0216V40.3242C17.0143 38.905 15.9093 37.7439 14.5587 37.7439H6.64022C5.28963 37.7439 4.18461 38.905 4.18461 40.3242V52.0216C4.18461 53.4408 5.28963 54.6019 6.64022 54.6019H14.5587Z" fill="#6B6B6B"/>
</svg>
