<svg width="92" height="92" viewBox="0 0 92 92" fill="none" xmlns="http://www.w3.org/2000/svg">
<path d="M72.0255 36.7951L46.5075 24.0331C46.2121 23.9009 45.8921 23.8325 45.5685 23.8325C45.2448 23.8325 44.9248 23.9009 44.6295 24.0331L19.1175 36.7951C18.9586 36.8469 18.8201 36.9477 18.722 37.0829C18.6238 37.2182 18.5709 37.381 18.5709 37.5481C18.5709 37.7152 18.6238 37.8781 18.722 38.0133C18.8201 38.1486 18.9586 38.2493 19.1175 38.3011L22.9755 40.2271H22.7715V61.5511C22.4854 61.7147 22.2538 61.9589 22.1055 62.2531L20.4375 65.6251C20.3099 65.8819 20.25 66.1669 20.2633 66.4533C20.2765 66.7396 20.3626 67.0179 20.5134 67.2617C20.6641 67.5056 20.8746 67.7069 21.1248 67.8468C21.375 67.9867 21.6568 68.0604 21.9435 68.0611H25.3215C25.6095 68.062 25.8929 67.989 26.1447 67.8493C26.3965 67.7095 26.6083 67.5076 26.7599 67.2627C26.9115 67.0178 26.9979 66.7382 27.0108 66.4505C27.0236 66.1628 26.9626 65.8766 26.8335 65.6191L25.1715 62.2531C25.0231 61.9589 24.7915 61.7147 24.5055 61.5511V40.9771L28.7055 43.0891V53.5171C28.7055 55.8811 30.5055 58.0771 33.7575 59.7031C36.9255 61.2871 41.1255 62.1571 45.5835 62.1571C50.0415 62.1571 54.2415 61.2871 57.4095 59.7031C60.6675 58.0771 62.4615 55.8751 62.4615 53.5171V43.0891L72.0615 38.2891C72.2204 38.2373 72.3588 38.1366 72.457 38.0013C72.5551 37.8661 72.608 37.7032 72.608 37.5361C72.608 37.369 72.5551 37.2062 72.457 37.0709C72.3588 36.9357 72.2204 36.8349 72.0615 36.7831L72.0255 36.7951ZM25.5 66.5H21.5L23.6295 62.2L25.5 66.5ZM60.7575 53.5171C60.7575 55.2091 59.2935 56.8711 56.6415 58.1971C53.7075 59.6611 49.7715 60.4771 45.5715 60.4771C41.3715 60.4771 37.4355 59.6611 34.5015 58.1971C31.8495 56.8711 30.3855 55.1971 30.3855 53.5171V43.9171L44.6295 51.0571C44.9248 51.1894 45.2448 51.2577 45.5685 51.2577C45.8921 51.2577 46.2121 51.1894 46.5075 51.0571L60.7575 43.9291V53.5171ZM45.7575 49.5391C45.6939 49.5494 45.629 49.5494 45.5655 49.5391C45.5038 49.5477 45.4412 49.5477 45.3795 49.5391L21.3795 37.5391L45.3795 25.5391C45.443 25.5288 45.5079 25.5288 45.5715 25.5391C45.6332 25.5305 45.6958 25.5305 45.7575 25.5391L69.7575 37.5391L45.7575 49.5391Z" fill="#008734" stroke="#008734" stroke-width="0.4"/>
<rect x="1" y="1" width="90" height="90" rx="45" stroke="#008734" stroke-width="2"/>
</svg>
