<svg width="92" height="93" viewBox="0 0 92 93" fill="none" xmlns="http://www.w3.org/2000/svg">
<g clip-path="url(#clip0_104_50177)">
<path fill-rule="evenodd" clip-rule="evenodd" d="M43.9758 18.0027C44.5055 17.4731 45.2293 17.2073 46.015 17.2073C46.8007 17.2073 47.5246 17.4731 48.0542 18.0027C48.5839 18.5324 48.8497 19.2562 48.8497 20.0419V23.9327C48.8497 24.7184 48.5839 25.4422 48.0542 25.9719C47.5246 26.5015 46.8007 26.7673 46.015 26.7673C45.2293 26.7673 44.5055 26.5015 43.9758 25.9719C43.4461 25.4422 43.1804 24.7184 43.1804 23.9327V20.0419C43.1804 19.2562 43.4461 18.5324 43.9758 18.0027ZM45.2335 19.2604C45.0823 19.4116 44.959 19.6604 44.959 20.0419V23.9327C44.959 24.3142 45.0823 24.563 45.2335 24.7142C45.3847 24.8654 45.6335 24.9887 46.015 24.9887C46.3965 24.9887 46.6454 24.8654 46.7966 24.7142C46.9478 24.563 47.0711 24.3142 47.0711 23.9327V20.0419C47.0711 19.6604 46.9478 19.4116 46.7966 19.2604C46.6454 19.1092 46.3965 18.9859 46.015 18.9859C45.6335 18.9859 45.3847 19.1092 45.2335 19.2604Z" fill="#008734"/>
<path fill-rule="evenodd" clip-rule="evenodd" d="M30.1219 21.3561C31.3789 20.8533 33.0691 21.0538 33.9382 22.5024L33.9422 22.5091L35.9217 25.8743L35.9467 25.9368C36.4495 27.1938 36.249 28.884 34.8004 29.7532L34.7711 29.7707L34.7406 29.786C34.4882 29.9122 34.257 29.9956 34.0027 30.038C33.7826 30.0747 33.5705 30.0746 33.3982 30.0744C33.3887 30.0744 33.3794 30.0744 33.3702 30.0744C32.2471 30.0744 31.4051 29.4943 30.8794 28.7057L30.8655 28.6849L28.8733 25.2982L28.8483 25.2356C28.3455 23.9786 28.546 22.2884 29.9946 21.4193L30.0557 21.3826L30.1219 21.3561ZM30.8529 22.9809C30.412 23.2839 30.2448 23.8781 30.4779 24.5179L32.372 27.7379C32.6226 28.1043 32.9442 28.2958 33.3702 28.2958C33.5822 28.2958 33.6507 28.2935 33.7103 28.2836C33.7448 28.2779 33.7985 28.2658 33.9125 28.2112C34.3754 27.9148 34.5553 27.3085 34.3171 26.6545L32.4114 23.4147C32.1228 22.937 31.5131 22.7459 30.8529 22.9809Z" fill="#008734"/>
<path fill-rule="evenodd" clip-rule="evenodd" d="M18.212 33.2019C19.0811 31.7533 20.7713 31.5528 22.0283 32.0556L22.0909 32.0806L25.4627 34.0641C26.7882 34.8594 27.4213 36.5486 26.5459 38.0077L26.535 38.0259L26.5232 38.0435C26.2323 38.4799 25.8194 38.8139 25.4024 39.0384C24.9896 39.2607 24.5047 39.4122 24.0325 39.4122C24.0278 39.4122 24.0229 39.4122 24.0179 39.4122C23.8036 39.4123 23.2402 39.4128 22.6621 39.1237L22.635 39.1102L19.2951 37.1456C17.8465 36.2764 17.646 34.5862 18.1488 33.3292L18.1753 33.263L18.212 33.2019ZM19.7736 34.0602C19.5386 34.7204 19.7297 35.3301 20.2074 35.6187L23.4797 37.5436C23.6598 37.6267 23.8531 37.6335 24.0325 37.6335C24.1439 37.6335 24.3398 37.5905 24.5592 37.4724C24.7662 37.3609 24.9321 37.2157 25.0317 37.0738C25.3082 36.5906 25.16 35.9584 24.5505 35.591L21.3106 33.6852C20.6708 33.4521 20.0765 33.6193 19.7736 34.0602Z" fill="#008734"/>
<path fill-rule="evenodd" clip-rule="evenodd" d="M70.0017 32.0556C71.2588 31.5528 72.9489 31.7533 73.8181 33.2019L73.8548 33.263L73.8812 33.3292C74.384 34.5862 74.1836 36.2764 72.7349 37.1455L72.7283 37.1495L69.3951 39.1102L69.368 39.1237C69.1156 39.2499 68.8844 39.3334 68.6301 39.3757C68.41 39.4124 68.1979 39.4123 68.0256 39.4122C68.0161 39.4122 68.0068 39.4122 67.9976 39.4122C66.8745 39.4122 66.0325 38.832 65.5068 38.0435L65.4555 37.9664L65.4211 37.8805C64.9183 36.6234 65.1187 34.9333 66.5674 34.0641L66.574 34.0601L69.9392 32.0806L70.0017 32.0556ZM70.7194 33.6852L67.4796 35.591C67.006 35.877 66.8141 36.4788 67.0399 37.1325C67.2844 37.4619 67.5942 37.6335 67.9976 37.6335C68.2096 37.6335 68.2781 37.6313 68.3377 37.6213C68.3729 37.6155 68.4283 37.603 68.5476 37.5452L71.8227 35.6187C72.3003 35.3301 72.4914 34.7205 72.2565 34.0602C71.9535 33.6193 71.3593 33.4521 70.7194 33.6852Z" fill="#008734"/>
<path fill-rule="evenodd" clip-rule="evenodd" d="M58.0918 22.5024C58.8871 21.177 60.5764 20.5438 62.0354 21.4193C63.4841 22.2884 63.6846 23.9786 63.1817 25.2356L63.1567 25.2982L61.1645 28.6849L61.1506 28.7057C60.8597 29.1422 60.4468 29.4761 60.0298 29.7007C59.617 29.923 59.1321 30.0744 58.6599 30.0744C58.6507 30.0744 58.6413 30.0744 58.6319 30.0744C58.4596 30.0746 58.2474 30.0747 58.0273 30.038C57.7731 29.9956 57.5418 29.9122 57.2895 29.786L57.2589 29.7707L57.2296 29.7532C55.781 28.884 55.5805 27.1938 56.0833 25.9368L56.1084 25.8743L58.0918 22.5024ZM59.6187 23.4146L57.7129 26.6545C57.4747 27.3085 57.6546 27.9148 58.1175 28.2112C58.2316 28.2658 58.2853 28.2779 58.3197 28.2836C58.3793 28.2935 58.4478 28.2958 58.6599 28.2958C58.7713 28.2958 58.9672 28.2527 59.1866 28.1346C59.3936 28.0232 59.5595 27.8779 59.6591 27.7361L61.5522 24.5179C61.795 23.8513 61.6033 23.2342 61.1204 22.9444C60.6349 22.6531 59.991 22.7972 59.6187 23.4146Z" fill="#008734"/>
<path fill-rule="evenodd" clip-rule="evenodd" d="M58.8738 40.0353L58.8699 40.0117C58.2551 36.3228 55.0175 33.6706 51.2675 33.6706H40.7626C37.0126 33.6706 33.775 36.3228 33.1602 40.0117L33.1562 40.0353L29.9018 56.9927H62.1283L58.8738 40.0353ZM64.4959 58.9491H27.5341L31.2303 39.6901C32.0084 35.0212 36.0937 31.7141 40.7626 31.7141H51.2675C55.9364 31.7141 60.0216 35.0212 60.7998 39.6901L64.4959 58.9491Z" fill="#008734"/>
<path fill-rule="evenodd" clip-rule="evenodd" d="M24.3736 74.5009H67.7093C67.7118 74.4996 67.7145 74.4981 67.7173 74.4966C67.7505 74.4785 67.793 74.4513 67.8412 74.4142C67.8486 74.4085 67.8559 74.4028 67.8632 74.3969C69.8286 71.3803 69.7565 67.704 67.7733 64.958L67.6565 64.7963H24.3208C24.3182 64.7976 24.3156 64.7991 24.3128 64.8006C24.2796 64.8187 24.2371 64.8459 24.1888 64.883C24.1815 64.8887 24.1741 64.8945 24.1669 64.9003C22.2014 67.9169 22.2736 71.5932 24.2568 74.3392L24.3736 74.5009ZM67.8031 62.8398C68.3867 62.8398 69.1648 63.2289 69.3593 63.8125C71.8883 67.3142 71.8883 71.983 69.3593 75.6792C68.9703 76.0683 68.3867 76.4574 67.8031 76.4574H24.227C23.6434 76.4574 22.8652 76.0683 22.6707 75.4847C20.1417 71.983 20.1417 67.3142 22.6707 63.618C23.0598 63.2289 23.6434 62.8398 24.227 62.8398H67.8031Z" fill="#008734"/>
<path fill-rule="evenodd" clip-rule="evenodd" d="M51.7736 37.0738C53.0306 36.571 54.7207 36.7715 55.5899 38.2201L55.5939 38.2268L56.5562 41.592L56.5812 41.6545C57.084 42.9115 56.8835 44.6017 55.4349 45.4709L55.4056 45.4884L55.375 45.5037C55.1227 45.6299 54.8914 45.7133 54.6372 45.7557C54.4171 45.7924 54.205 45.7923 54.0327 45.7922C54.0232 45.7921 54.0139 45.7921 54.0047 45.7921C52.8815 45.7921 52.0396 45.212 51.5139 44.4234L51.5 44.4026L50.525 41.0159L50.5 40.9533C49.9972 39.6963 50.1977 38.0061 51.6463 37.137L51.7074 37.1003L51.7736 37.0738ZM52.5046 38.6986C52.0637 39.0016 51.8965 39.5958 52.1296 40.2356L53.0065 43.4556C53.2571 43.822 53.5787 44.0135 54.0047 44.0135C54.2167 44.0135 54.2852 44.0112 54.3448 44.0013C54.3792 43.9956 54.433 43.9835 54.547 43.9289C55.0099 43.6325 55.1898 43.0262 54.9516 42.3722L54.0631 39.1324C53.7745 38.6547 53.1648 38.4636 52.5046 38.6986Z" fill="#008734"/>
</g>
<rect x="1" y="1.88037" width="90" height="90" rx="45" stroke="#008734" stroke-width="2"/>
<defs>
<clipPath id="clip0_104_50177">
<rect width="60" height="60" fill="white" transform="translate(16 16.8804)"/>
</clipPath>
</defs>
</svg>
