<svg width="92" height="92" viewBox="0 0 92 92" fill="none" xmlns="http://www.w3.org/2000/svg">
<path d="M22.6715 40.1871V40.2271V61.4942C22.3915 61.6668 22.1645 61.9138 22.0162 62.2081L22.0158 62.2088L20.3479 65.5806L22.6715 40.1871ZM22.6715 40.1871L19.0792 38.3938C18.9033 38.3348 18.7501 38.2224 18.641 38.0721C18.5305 37.9197 18.4709 37.7363 18.4709 37.5481C18.4709 37.3599 18.5305 37.1765 18.641 37.0242C18.7501 36.8739 18.9033 36.7615 19.0792 36.7025L44.5847 23.9437L44.5886 23.9418L44.5886 23.9419C44.8968 23.8039 45.2307 23.7325 45.5685 23.7325C45.9062 23.7325 46.2401 23.8039 46.5483 23.9419L46.5522 23.9436L46.5522 23.9437L72.0331 36.6872L72.0611 36.6778L72.0925 36.688C72.2714 36.7464 72.4273 36.8598 72.5379 37.0122C72.6484 37.1645 72.708 37.3479 72.708 37.5361C72.708 37.7243 72.6484 37.9077 72.5379 38.0601C72.4288 38.2103 72.2756 38.3228 72.0997 38.3818L62.5615 43.1509V53.5171C62.5615 55.9313 60.7258 58.1598 57.4541 59.7926C54.2691 61.3851 50.053 62.2571 45.5835 62.2571C41.1139 62.2571 36.8978 61.3851 33.7127 59.7926C30.4472 58.1598 28.6055 55.9374 28.6055 53.5171V43.1508L24.6055 41.1393V61.4942C24.8854 61.6668 25.1124 61.9138 25.2607 62.2081L25.2611 62.2089L26.9228 65.5743C26.9229 65.5744 26.9229 65.5744 26.9229 65.5745L22.6715 40.1871ZM21.9435 68.1611H25.3212L20.3478 65.5808C20.2128 65.8527 20.1493 66.1546 20.1634 66.4579C20.1774 66.7612 20.2686 67.056 20.4283 67.3143C20.588 67.5726 20.8109 67.7859 21.076 67.9341C21.3411 68.0823 21.6395 68.1604 21.9432 68.1611H21.9435ZM30.4855 44.0791L44.5846 51.1465L44.5846 51.1466L44.5886 51.1484C44.8968 51.2864 45.2307 51.3577 45.5685 51.3577C45.9062 51.3577 46.2401 51.2864 46.5483 51.1484L46.5484 51.1485L46.5522 51.1466L60.6575 44.091V53.5171C60.6575 55.1486 59.2415 56.7853 56.5967 58.1077C53.6798 59.5631 49.76 60.3771 45.5715 60.3771C41.3829 60.3771 37.4631 59.5631 34.5462 58.1077C31.9016 56.7854 30.4855 55.1367 30.4855 53.5171V44.0791ZM45.728 25.6362L69.5339 37.5391L45.727 49.4425C45.6787 49.4489 45.6296 49.4482 45.5815 49.4404L45.5666 49.438L45.5516 49.4401C45.5043 49.4467 45.4564 49.4474 45.4089 49.442L21.6031 37.5391L45.4099 25.6357C45.4582 25.6293 45.5073 25.63 45.5555 25.6378L45.5704 25.6402L45.5853 25.6382C45.6326 25.6315 45.6806 25.6309 45.728 25.6362ZM23.6236 62.4372L25.3474 66.4H21.6611L23.6236 62.4372Z" fill="#008734" stroke="#008734" stroke-width="0.2"/>
<rect x="1" y="1" width="90" height="90" rx="45" stroke="#008734" stroke-width="2"/>
</svg>
