<svg width="92" height="93" viewBox="0 0 92 93" fill="none" xmlns="http://www.w3.org/2000/svg">
<path d="M34 67.1202C34 68.6383 32.818 69.8804 31.3733 69.8804H20.903C19.4583 69.8804 18.2762 68.6383 18.2762 67.1202V54.6077C18.2762 53.0896 19.4583 51.8475 20.903 51.8475H31.3733C32.818 51.8475 34 53.0896 34 54.6077V67.1202Z" stroke="#008734" stroke-width="2.2"/>
<path d="M53.6935 67.1202C53.6935 68.6383 52.5114 69.8804 51.0667 69.8804H40.2095C38.7648 69.8804 37.5828 68.6383 37.5828 67.1202V47.9834C37.5828 46.4653 38.7648 45.2232 40.2095 45.2232H51.0667C52.5114 45.2232 53.6935 46.4653 53.6935 47.9834V67.1202Z" stroke="#008734" stroke-width="2.2"/>
<path d="M73 67.1202C73 68.6383 71.818 69.8804 70.3733 69.8804H60.1267C58.682 69.8804 57.5 68.6383 57.5 67.1202V40.623C57.5 39.105 58.682 37.8629 60.1267 37.8629H70.3733C71.818 37.8629 73 39.105 73 40.623V67.1202Z" stroke="#008734" stroke-width="2.2"/>
<path d="M70.7277 16.9319L58.9293 19.9481C57.9931 20.1862 57.7845 20.9666 58.4655 21.6822L60.9832 24.2659C61.1946 24.5191 60.9438 24.8558 60.7449 24.9984C59.1595 26.1356 56.6436 27.8042 53.166 29.7107C34.2333 40.09 18.6265 39.4534 18.3918 39.4422C17.139 39.3754 16.0679 40.3894 16.0031 41.708C15.9384 43.0274 16.9037 44.1522 18.1593 44.2201C18.2516 44.2251 19.2578 44.2429 19.2578 44.2429C19.2578 44.2429 37.8395 43.5093 55.2721 33.9524C59.397 31.6912 62.2559 29.7409 63.9253 28.5062C64.1614 28.3315 64.5727 28.0305 64.9524 28.4366L67.7061 31.33C68.3871 32.0456 69.1261 31.8253 69.3488 30.8407L72.0255 18.2893C72.2479 17.3045 71.6637 16.6938 70.7277 16.9319Z" stroke="#008734" stroke-width="2.2"/>
<rect x="1" y="1.88037" width="90" height="90" rx="45" stroke="#008734" stroke-width="2"/>
</svg>
