<svg width="60" height="60" viewBox="0 0 60 60" fill="none" xmlns="http://www.w3.org/2000/svg">
<path fill-rule="evenodd" clip-rule="evenodd" d="M28.5067 7.75901C28.8407 7.6095 29.2025 7.53247 29.5684 7.53247C29.9343 7.53247 30.296 7.60975 30.63 7.75926L30.6415 7.7644L56.1771 20.5055C56.3867 20.579 56.569 20.7146 56.6997 20.8946C56.835 21.0811 56.9079 21.3056 56.9079 21.5361C56.9079 21.7665 56.835 21.991 56.6997 22.1775C56.5691 22.3575 56.3867 22.4931 56.1772 22.5666L46.7614 27.2745V37.5171C46.7614 40.0436 44.8425 42.325 41.5434 43.9715C38.3243 45.581 34.076 46.4571 29.5834 46.4571C25.0907 46.4571 20.8424 45.581 17.6232 43.9714C14.3307 42.3252 12.4054 40.0499 12.4054 37.5171V27.274L8.80541 25.4637V45.3864C9.07322 45.5735 9.29137 45.8246 9.43929 46.118L9.44041 46.1203L11.1016 49.4846L11.102 49.4855C11.2538 49.7885 11.3256 50.1253 11.3104 50.4638C11.2953 50.8027 11.1935 51.1321 11.0149 51.4206C10.8364 51.709 10.5869 51.9469 10.2902 52.1115C9.99361 52.2762 9.65976 52.3621 9.32052 52.3611H5.94269C5.60501 52.3603 5.27311 52.2734 4.97836 52.1086C4.6836 51.9438 4.43573 51.7066 4.25815 51.4194C4.08058 51.1322 3.97918 50.8044 3.96353 50.4671C3.94789 50.1299 4.01848 49.7942 4.16864 49.4918L5.83752 46.118C5.98544 45.8246 6.20359 45.5735 6.47141 45.3864V24.4081L2.9983 22.5774C2.79018 22.5037 2.60906 22.3685 2.47912 22.1895C2.34377 22.003 2.27087 21.7785 2.27087 21.5481C2.27087 21.3176 2.34377 21.0931 2.47912 20.9066C2.60974 20.7267 2.79207 20.591 3.00157 20.5176L28.5067 7.75901ZM7.61179 46.9115L9.04229 50.2H5.98329L7.61179 46.9115ZM30.6301 35.3311C30.2962 35.4806 29.9343 35.5577 29.5684 35.5577C29.2025 35.5577 28.8408 35.4804 28.5068 35.3309L28.4948 35.3255L14.6854 28.403V37.5171C14.6854 39.0158 16.0058 40.6139 18.6356 41.9287C21.5183 43.3671 25.4058 44.1771 29.5714 44.1771C33.737 44.1771 37.6245 43.3671 40.5072 41.9287C43.1375 40.6136 44.4574 39.0275 44.4574 37.5171V28.4146L30.6301 35.3311ZM29.6739 9.83273L53.0866 21.5391L29.6715 33.2466C29.6521 33.2473 29.6326 33.2461 29.6134 33.2429L29.5687 33.2357L29.5239 33.242C29.5037 33.2448 29.4833 33.2459 29.4629 33.2454L6.05022 21.5391L29.4653 9.83151C29.4847 9.83086 29.5042 9.83209 29.5234 9.83521L29.5681 9.84245L29.6129 9.83618C29.6331 9.83336 29.6535 9.83221 29.6739 9.83273Z" fill="#008734"/>
</svg>
