<svg width="24" height="24" viewBox="0 0 24 24" fill="none" xmlns="http://www.w3.org/2000/svg">
<path fill-rule="evenodd" clip-rule="evenodd" d="M17.024 15.8895L22.6938 21.7881C22.8637 21.9657 22.9778 22.1892 23.0219 22.4309C23.066 22.6727 23.0382 22.9221 22.942 23.1482C22.8458 23.3743 22.6853 23.5672 22.4805 23.7031C22.2757 23.8389 22.0356 23.9116 21.7898 23.9123C21.4448 23.9123 21.1239 23.7743 20.8847 23.527L15.1724 17.5847C13.5603 18.7224 11.6345 19.3309 9.66135 19.3259C4.3573 19.3259 0.0422974 15.0109 0.0422974 9.70682C0.0422974 4.40277 4.3573 0.0877686 9.66135 0.0877686C14.9654 0.0877686 19.2804 4.40277 19.2804 9.70682C19.2813 11.9697 18.4821 14.1601 17.024 15.8907V15.8895ZM16.771 9.70682C16.7689 7.82188 16.0191 6.01476 14.6863 4.6819C13.3534 3.34905 11.5463 2.59932 9.66135 2.59719C7.77641 2.59932 5.96929 3.34905 4.63643 4.6819C3.30358 6.01476 2.55385 7.82188 2.55172 9.70682C2.55385 11.5918 3.30358 13.3989 4.63643 14.7317C5.96929 16.0646 7.77641 16.8143 9.66135 16.8165C11.5463 16.8143 13.3534 16.0646 14.6863 14.7317C16.0191 13.3989 16.7689 11.5918 16.771 9.70682Z" fill="#C4C4C4"/>
</svg>
