<svg width="92" height="92" viewBox="0 0 92 92" fill="none" xmlns="http://www.w3.org/2000/svg">
<path fill-rule="evenodd" clip-rule="evenodd" d="M43.9762 17.1224C44.5058 16.5927 45.2297 16.3269 46.0154 16.3269C46.8011 16.3269 47.525 16.5927 48.0546 17.1224C48.5843 17.652 48.8501 18.3759 48.8501 19.1616V23.0523C48.8501 23.838 48.5843 24.5618 48.0546 25.0915C47.525 25.6212 46.8011 25.887 46.0154 25.887C45.2297 25.887 44.5058 25.6212 43.9762 25.0915C43.4465 24.5618 43.1807 23.838 43.1807 23.0523V19.1616C43.1807 18.3759 43.4465 17.652 43.9762 17.1224ZM45.2338 18.38C45.0826 18.5312 44.9593 18.7801 44.9593 19.1616V23.0523C44.9593 23.4338 45.0826 23.6826 45.2338 23.8338C45.3851 23.9851 45.6339 24.1083 46.0154 24.1083C46.3969 24.1083 46.6457 23.9851 46.7969 23.8338C46.9482 23.6826 47.0714 23.4338 47.0714 23.0523V19.1616C47.0714 18.7801 46.9482 18.5312 46.7969 18.38C46.6457 18.2288 46.3969 18.1055 46.0154 18.1055C45.6339 18.1055 45.3851 18.2288 45.2338 18.38Z" fill="#008734"/>
<path fill-rule="evenodd" clip-rule="evenodd" d="M30.1222 20.4758C31.3793 19.973 33.0694 20.1734 33.9386 21.6221L33.9426 21.6287L35.9221 24.9939L35.9471 25.0564C36.4499 26.3135 36.2494 28.0036 34.8008 28.8728L34.7715 28.8904L34.7409 28.9056C34.4886 29.0318 34.2573 29.1153 34.0031 29.1576C33.783 29.1943 33.5709 29.1942 33.3986 29.1941C33.3891 29.1941 33.3798 29.1941 33.3706 29.1941C32.2474 29.1941 31.4055 28.6139 30.8798 27.8254L30.8659 27.8046L28.8737 24.4178L28.8487 24.3553C28.3459 23.0982 28.5463 21.4081 29.995 20.5389L30.0561 20.5022L30.1222 20.4758ZM30.8533 22.1005C30.4124 22.4035 30.2452 22.9977 30.4783 23.6376L32.3724 26.8576C32.623 27.224 32.9446 27.4155 33.3706 27.4155C33.5826 27.4155 33.6511 27.4132 33.7107 27.4032C33.7451 27.3975 33.7989 27.3854 33.9129 27.3308C34.3758 27.0344 34.5557 26.4281 34.3175 25.7741L32.4117 22.5343C32.1232 22.0567 31.5135 21.8656 30.8533 22.1005Z" fill="#008734"/>
<path fill-rule="evenodd" clip-rule="evenodd" d="M18.2123 32.3215C19.0815 30.8729 20.7717 30.6724 22.0287 31.1752L22.0912 31.2003L25.4631 33.1837C26.7886 33.979 27.4217 35.6683 26.5462 37.1273L26.5353 37.1455L26.5236 37.1631C26.2326 37.5996 25.8198 37.9335 25.4028 38.158C24.9899 38.3803 24.505 38.5318 24.0328 38.5318C24.0282 38.5318 24.0233 38.5318 24.0183 38.5318C23.8039 38.532 23.2406 38.5324 22.6624 38.2434L22.6354 38.2298L19.2955 36.2652C17.8469 35.396 17.6464 33.7058 18.1492 32.4488L18.1757 32.3826L18.2123 32.3215ZM19.774 33.1798C19.539 33.8401 19.7301 34.4498 20.2078 34.7383L23.48 36.6632C23.6602 36.7463 23.8535 36.7532 24.0328 36.7532C24.1442 36.7532 24.3402 36.7101 24.5596 36.592C24.7666 36.4805 24.9324 36.3353 25.0321 36.1935C25.3086 35.7103 25.1604 35.0781 24.5509 34.7106L21.311 32.8048C20.6711 32.5718 20.0769 32.739 19.774 33.1798Z" fill="#008734"/>
<path fill-rule="evenodd" clip-rule="evenodd" d="M70.0021 31.1752C71.2591 30.6724 72.9493 30.8729 73.8185 32.3215L73.8551 32.3826L73.8816 32.4488C74.3844 33.7058 74.1839 35.396 72.7353 36.2652L72.7287 36.2691L69.3954 38.2298L69.3683 38.2434C69.116 38.3695 68.8847 38.453 68.6305 38.4954C68.4104 38.5321 68.1983 38.5319 68.026 38.5318C68.0165 38.5318 68.0072 38.5318 67.998 38.5318C66.8748 38.5318 66.0329 37.9517 65.5072 37.1631L65.4558 37.0861L65.4214 37.0001C64.9186 35.7431 65.1191 34.0529 66.5677 33.1837L66.5744 33.1798L69.9396 31.2003L70.0021 31.1752ZM70.7198 32.8048L67.48 34.7106C67.0064 34.9967 66.8145 35.5984 67.0403 36.2521C67.2848 36.5815 67.5946 36.7532 67.998 36.7532C68.21 36.7532 68.2785 36.7509 68.3381 36.741C68.3733 36.7351 68.4287 36.7226 68.548 36.6648L71.823 34.7383C72.3007 34.4498 72.4918 33.8401 72.2568 33.1798C71.9539 32.739 71.3597 32.5718 70.7198 32.8048Z" fill="#008734"/>
<path fill-rule="evenodd" clip-rule="evenodd" d="M58.0922 21.6221C58.8875 20.2966 60.5767 19.6634 62.0358 20.5389C63.4844 21.4081 63.6849 23.0982 63.1821 24.3552L63.1571 24.4178L61.1649 27.8046L61.151 27.8254C60.86 28.2618 60.4472 28.5958 60.0302 28.8203C59.6173 29.0426 59.1324 29.1941 58.6602 29.1941C58.651 29.1941 58.6417 29.1941 58.6322 29.1941C58.4599 29.1942 58.2478 29.1943 58.0277 29.1576C57.7734 29.1153 57.5422 29.0318 57.2898 28.9056L57.2593 28.8904L57.23 28.8728C55.7814 28.0036 55.5809 26.3135 56.0837 25.0564L56.1087 24.9939L58.0922 21.6221ZM59.6191 22.5342L57.7133 25.7741C57.4751 26.4281 57.655 27.0344 58.1179 27.3308C58.2319 27.3854 58.2857 27.3975 58.3201 27.4032C58.3797 27.4132 58.4482 27.4155 58.6602 27.4155C58.7716 27.4155 58.9676 27.3724 59.187 27.2543C59.394 27.1428 59.5598 26.9976 59.6595 26.8557L61.5525 23.6376C61.7954 22.9709 61.6037 22.3538 61.1207 22.064C60.6352 21.7727 59.9913 21.9168 59.6191 22.5342Z" fill="#008734"/>
<path fill-rule="evenodd" clip-rule="evenodd" d="M58.8742 39.155L58.8703 39.1313C58.2554 35.4424 55.0178 32.7902 51.2679 32.7902H40.7629C37.0129 32.7902 33.7753 35.4424 33.1605 39.1313L33.1566 39.155L29.9021 56.1123H62.1286L58.8742 39.155ZM64.4963 58.0688H27.5345L31.2307 38.8097C32.0088 34.1408 36.0941 30.8337 40.7629 30.8337H51.2679C55.9367 30.8337 60.022 34.1408 60.8001 38.8097L64.4963 58.0688Z" fill="#008734"/>
<path fill-rule="evenodd" clip-rule="evenodd" d="M24.3739 73.6205H67.7097C67.7122 73.6192 67.7149 73.6178 67.7177 73.6162C67.7509 73.5981 67.7933 73.5709 67.8416 73.5338C67.849 73.5282 67.8563 73.5224 67.8636 73.5165C69.829 70.5 69.7568 66.8236 67.7736 64.0777L67.6569 63.916H24.3211C24.3186 63.9173 24.3159 63.9187 24.3131 63.9202C24.2799 63.9383 24.2374 63.9655 24.1892 64.0026C24.1818 64.0083 24.1745 64.0141 24.1672 64.0199C22.2018 67.0365 22.274 70.7128 24.2572 73.4588L24.3739 73.6205ZM67.8034 61.9595C68.387 61.9595 69.1652 62.3485 69.3597 62.9322C71.8887 66.4338 71.8887 71.1027 69.3597 74.7988C68.9706 75.1879 68.387 75.577 67.8034 75.577H24.2274C23.6438 75.577 22.8656 75.1879 22.6711 74.6043C20.1421 71.1027 20.1421 66.4338 22.6711 62.7376C23.0602 62.3485 23.6438 61.9595 24.2274 61.9595H67.8034Z" fill="#008734"/>
<path fill-rule="evenodd" clip-rule="evenodd" d="M51.7739 36.1935C53.031 35.6907 54.7211 35.8911 55.5903 37.3398L55.5943 37.3464L56.5565 40.7116L56.5815 40.7741C57.0844 42.0312 56.8839 43.7213 55.4352 44.5905L55.406 44.6081L55.3754 44.6233C55.1231 44.7495 54.8918 44.833 54.6376 44.8753C54.4175 44.912 54.2053 44.9119 54.033 44.9118C54.0236 44.9118 54.0142 44.9118 54.005 44.9118C52.8819 44.9118 52.04 44.3316 51.5143 43.5431L51.5004 43.5223L50.5254 40.1355L50.5004 40.073C49.9976 38.8159 50.198 37.1258 51.6467 36.2566L51.7078 36.2199L51.7739 36.1935ZM52.505 37.8182C52.0641 38.1212 51.8969 38.7154 52.1299 39.3553L53.0068 42.5753C53.2574 42.9417 53.5791 43.1332 54.005 43.1332C54.2171 43.1332 54.2855 43.1309 54.3452 43.1209C54.3796 43.1152 54.4333 43.1031 54.5473 43.0485C55.0102 42.7521 55.1902 42.1458 54.952 41.4918L54.0634 38.252C53.7749 37.7744 53.1652 37.5833 52.505 37.8182Z" fill="#008734"/>
<rect x="1" y="1" width="90" height="90" rx="45" stroke="#008734" stroke-width="2"/>
</svg>
