<svg width="70" height="70" viewBox="0 0 70 70" fill="none" xmlns="http://www.w3.org/2000/svg">
<g clip-path="url(#clip0_809_202)">
<path d="M52.517 43.3128L35.2948 46.3079L30.4031 41.4162C30.2407 41.2529 30.0202 41.1617 29.7892 41.1617H21.1052C21.1052 40.6815 20.717 40.2933 20.2368 40.2933H16.7631H10.6843V42.0301H15.8947V54.1878H10.6843V55.9246H16.7631H20.2368C20.717 55.9246 21.1052 55.5364 21.1052 55.0562H23.5054L32.7895 59.6987C33.1907 59.8993 33.6258 60 34.0591 60C34.5532 60 35.0465 59.8706 35.4885 59.6127L54.4336 48.5605C55.302 48.0542 55.8412 47.1155 55.8412 46.1099C55.8412 45.2702 55.4722 44.4782 54.8296 43.9372C54.1887 43.3961 53.342 43.1695 52.517 43.3128ZM19.3684 54.1878H17.6315V42.0301H19.3684V54.1878ZM53.5582 47.0599L34.614 58.1121C34.2927 58.2997 33.9011 58.3118 33.5667 58.1451L24.0994 53.4114C23.9787 53.3506 23.845 53.3194 23.7104 53.3194H21.1052V42.8985H29.4297L36.2718 49.7407C36.5671 50.0359 36.7364 50.445 36.7364 50.8635C36.7364 51.7389 36.0243 52.451 35.149 52.451C34.7313 52.451 34.3214 52.2816 34.0261 51.9864L29.5347 47.495L28.3068 48.7229L32.7982 53.2143C33.426 53.8421 34.2606 54.1878 35.149 54.1878C36.9813 54.1878 38.4732 52.6959 38.4732 50.8635C38.4732 49.976 38.1276 49.1406 37.4997 48.5128L36.7963 47.8094L52.8131 45.0235C53.1353 44.9653 53.4618 45.0557 53.7111 45.2658C53.9612 45.476 54.1044 45.7834 54.1044 46.109C54.1044 46.4989 53.8952 46.8637 53.5582 47.0599Z" fill="white"/>
<path d="M59.3149 15.9781V14.2413H53.8604C53.7024 14.0772 53.4827 14.2413 53.2361 14.2413H49.7625C49.2822 14.2413 48.8941 14.2413 48.8941 15.1097H46.4938L37.2088 10.3335C36.3482 9.90277 35.3392 9.86891 34.5107 10.3526L15.5656 21.3709C14.6972 21.8772 14.158 22.7994 14.158 23.805C14.158 24.6448 14.527 25.4272 15.1688 25.9682C15.6855 26.4024 16.3307 26.6308 16.9942 26.6308C17.1574 26.6308 17.3198 26.6143 17.4822 26.5865L34.7035 23.5905L39.5952 28.616C39.7585 28.7784 39.979 29.0042 40.21 29.0042H48.8941C48.8941 29.0042 49.2822 29.8726 49.7625 29.8726H52.6117C52.7697 29.8726 52.9894 29.8726 53.2361 29.8726H59.3149V28.1357H54.1045V15.9781H59.3149ZM40.5695 27.2673L33.7283 20.2923C33.4278 19.9919 33.2628 19.5255 33.2628 19.1018C33.2628 18.2255 33.9749 17.4796 34.8503 17.4796C35.274 17.4796 35.6726 17.6281 35.9731 17.9285L40.4645 22.4104L41.6924 21.1781L37.2019 16.6867C36.574 16.0571 35.7386 15.7106 34.8503 15.7106C33.0179 15.7106 31.526 17.2017 31.526 19.0349C31.526 19.9215 31.8708 20.7561 32.4995 21.3857L33.202 22.0882L17.1852 24.874C16.8604 24.9305 16.5365 24.841 16.2864 24.6317C16.038 24.4216 15.8948 24.1142 15.8948 23.7885C15.8948 23.3977 16.104 23.033 16.441 22.8368L35.3852 11.7855C35.7065 11.5988 36.0981 11.5857 36.4325 11.7525L45.8998 16.6207C46.0205 16.6807 46.1542 16.8465 46.2888 16.8465H48.8941V27.2673H40.5695ZM50.6309 15.9781H52.3677V28.1357H50.6309V15.9781Z" fill="white"/>
<path d="M34.9996 30.7827C33.585 29.5443 31.374 29.5764 30.0002 30.8834C29.3037 31.5469 28.9208 32.4309 28.9208 33.3748C28.9208 34.3179 29.3037 35.202 30.0002 35.8645L34.4004 40.0537C34.5689 40.2135 34.7842 40.2934 34.9996 40.2934C35.215 40.2934 35.4303 40.2135 35.5979 40.0546L39.9981 35.8654C40.6954 35.202 41.0784 34.3179 41.0784 33.3748C41.0784 32.4309 40.6954 31.5469 39.999 30.8834C38.6243 29.5764 36.4134 29.5452 34.9996 30.7827ZM38.8015 34.6062L34.9996 38.2257L31.1977 34.6062C30.8504 34.2745 30.6576 33.8368 30.6576 33.374C30.6576 32.9111 30.8495 32.4726 31.1977 32.1408C31.572 31.7848 32.0635 31.6068 32.5542 31.6068C33.0457 31.6068 33.5372 31.7848 33.9106 32.1408L34.3995 32.6063C34.7356 32.925 35.261 32.925 35.5971 32.6063L36.086 32.1408C36.8337 31.4287 38.0503 31.4296 38.7997 32.14C39.1497 32.4726 39.3416 32.9111 39.3416 33.374C39.3416 33.8368 39.1488 34.2745 38.8015 34.6062Z" fill="white"/>
<path d="M24.9226 28.279L23.4828 27.3073C23.1372 27.8196 22.8228 28.358 22.551 28.906L24.1063 29.6797C24.3434 29.1995 24.6187 28.7288 24.9226 28.279Z" fill="white"/>
<path d="M21.3961 37.927C21.5228 38.5331 21.6904 39.134 21.8945 39.7098L23.5315 39.1314C23.3534 38.6278 23.2067 38.1024 23.0955 37.5709L21.3961 37.927Z" fill="white"/>
<path d="M21.3631 32.4066L23.0678 32.7392C23.1711 32.2095 23.3109 31.6832 23.4837 31.1743L21.8381 30.616C21.641 31.1978 21.4821 31.8005 21.3631 32.4066Z" fill="white"/>
<path d="M21.1052 35.0856C21.106 35.4234 21.1182 35.7586 21.1416 36.0912L22.8732 35.9687C22.8533 35.6761 22.8428 35.3791 22.842 35.083C22.842 34.8363 22.8489 34.5914 22.8637 34.3474L21.1303 34.2406C21.1138 34.5202 21.1052 34.8007 21.1052 35.0856Z" fill="white"/>
<path d="M46.466 31.031C46.6466 31.5425 46.7925 32.067 46.9011 32.5906L48.6023 32.238C48.4772 31.6388 48.3096 31.0388 48.1047 30.4543L46.466 31.031Z" fill="white"/>
<path d="M45.0774 41.8834L46.5155 42.8569C46.8611 42.3454 47.1763 41.8078 47.449 41.2573L45.8937 40.4835C45.6557 40.9655 45.3805 41.4362 45.0774 41.8834Z" fill="white"/>
<path d="M46.5164 38.9899L48.162 39.5483C48.36 38.9665 48.5189 38.3647 48.6379 37.7576L46.9332 37.425C46.829 37.9556 46.6892 38.481 46.5164 38.9899Z" fill="white"/>
<path d="M48.894 35.0856C48.8949 34.7443 48.8819 34.4057 48.8576 34.0696L47.126 34.1964C47.1468 34.4882 47.1581 34.7834 47.1572 35.083C47.1572 35.3288 47.1503 35.5728 47.1355 35.8159L48.8689 35.9228C48.8854 35.644 48.894 35.3644 48.894 35.0856Z" fill="white"/>
</g>
<rect x="1" y="1" width="68" height="68" rx="34" stroke="white" stroke-width="2"/>
<defs>
<clipPath id="clip0_809_202">
<rect width="50" height="50" fill="white" transform="translate(10 10)"/>
</clipPath>
</defs>
</svg>
