<svg width="130" height="130" viewBox="0 0 130 130" fill="none" xmlns="http://www.w3.org/2000/svg">
<g clip-path="url(#clip0_811_629)">
<path d="M89.5238 76.6379L65.4127 80.831L58.5643 73.9826C58.337 73.7541 58.0282 73.6264 57.7048 73.6264H45.5472C45.5472 72.9541 45.0037 72.4106 44.3314 72.4106H39.4684H30.958V74.8422H38.2526V91.8629H30.958V94.2944H39.4684H44.3314C45.0037 94.2944 45.5472 93.7509 45.5472 93.0786H48.9075L61.9053 99.5781C62.4669 99.8589 63.076 100 63.6827 100C64.3745 100 65.065 99.8188 65.6839 99.4577L92.2069 83.9847C93.4227 83.2759 94.1777 81.9617 94.1777 80.5538C94.1777 79.3782 93.661 78.2694 92.7613 77.512C91.8641 76.7546 90.6787 76.4373 89.5238 76.6379ZM43.1156 91.8629H40.6841V74.8422H43.1156V91.8629ZM90.9815 81.8839L64.4596 97.3569C64.0097 97.6195 63.4614 97.6365 62.9934 97.4031L49.7391 90.776C49.5701 90.6909 49.3829 90.6471 49.1945 90.6471H45.5472V76.0579H57.2015L66.7805 85.6369C67.1938 86.0503 67.4309 86.6229 67.4309 87.2089C67.4309 88.4344 66.434 89.4313 65.2085 89.4313C64.6237 89.4313 64.0499 89.1943 63.6365 88.7809L57.3486 82.493L55.6295 84.2121L61.9174 90.5C62.7964 91.379 63.9648 91.8629 65.2085 91.8629C67.7737 91.8629 69.8624 89.7742 69.8624 87.2089C69.8624 85.9664 69.3786 84.7968 68.4996 83.9178L67.5148 82.9331L89.9383 79.0329C90.3894 78.9515 90.8465 79.0779 91.1954 79.3721C91.5456 79.6663 91.7462 80.0967 91.7462 80.5526C91.7462 81.0985 91.4532 81.6091 90.9815 81.8839Z" fill="white"/>
<path d="M99.0407 38.3693V35.9378H91.4045C91.1833 35.708 90.8757 35.9378 90.5304 35.9378H85.6673C84.995 35.9378 84.4516 35.9378 84.4516 37.1536H81.0912L68.0923 30.4669C66.8874 29.8638 65.4747 29.8164 64.3149 30.4936L37.7918 45.9192C36.576 46.628 35.821 47.9191 35.821 49.327C35.821 50.5026 36.3377 51.598 37.2362 52.3555C37.9596 52.9633 38.8629 53.2831 39.7917 53.2831C40.0203 53.2831 40.2476 53.26 40.475 53.2211L64.5848 49.0267L71.4332 56.0623C71.6617 56.2897 71.9705 56.6058 72.2939 56.6058H84.4516C84.4516 56.6058 84.995 57.8215 85.6673 57.8215H89.6563C89.8775 57.8215 90.1851 57.8215 90.5304 57.8215H99.0407V55.39H91.7462V38.3693H99.0407ZM72.7973 54.1742L63.2195 44.4092C62.7988 43.9886 62.5678 43.3357 62.5678 42.7424C62.5678 41.5157 63.5648 40.4714 64.7902 40.4714C65.3835 40.4714 65.9416 40.6793 66.3622 41.0999L72.6502 47.3745L74.3692 45.6493L68.0825 39.3614C67.2035 38.4799 66.034 37.9949 64.7902 37.9949C62.225 37.9949 60.1363 40.0823 60.1363 42.6488C60.1363 43.8901 60.619 45.0584 61.4992 45.9399L62.4827 46.9234L40.0592 50.8236C39.6045 50.9026 39.151 50.7774 38.8009 50.4844C38.4532 50.1902 38.2526 49.7598 38.2526 49.3039C38.2526 48.7568 38.5456 48.2462 39.0173 47.9714L65.5392 32.4996C65.989 32.2382 66.5373 32.22 67.0054 32.4534L80.2596 39.269C80.4286 39.3529 80.6158 39.5851 80.8043 39.5851H84.4516V54.1742H72.7973ZM86.8831 38.3693H89.3146V55.39H86.8831V38.3693Z" fill="white"/>
<path d="M64.9994 59.0956C63.0189 57.362 59.9235 57.407 58.0002 59.2367C57.0252 60.1655 56.489 61.4032 56.489 62.7247C56.489 64.045 57.0252 65.2827 58.0002 66.2103L64.1605 72.0751C64.3963 72.2988 64.6978 72.4107 64.9994 72.4107C65.3009 72.4107 65.6024 72.2988 65.837 72.0764L71.9973 66.2115C72.9735 65.2827 73.5097 64.045 73.5097 62.7247C73.5097 61.4032 72.9735 60.1655 71.9985 59.2367C70.0739 57.407 66.9786 57.3632 64.9994 59.0956ZM70.322 64.4487L64.9994 69.516L59.6767 64.4487C59.1904 63.9842 58.9205 63.3715 58.9205 62.7235C58.9205 62.0755 59.1892 61.4615 59.6767 60.9971C60.2007 60.4986 60.8889 60.2494 61.5758 60.2494C62.2639 60.2494 62.952 60.4986 63.4748 60.9971L64.1593 61.6487C64.6298 62.0949 65.3653 62.0949 65.8358 61.6487L66.5203 60.9971C67.567 60.0002 69.2703 60.0014 70.3195 60.9959C70.8095 61.4615 71.0782 62.0755 71.0782 62.7235C71.0782 63.3715 70.8083 63.9842 70.322 64.4487Z" fill="white"/>
<path d="M50.8917 55.5907L48.8759 54.2302C48.3921 54.9475 47.9519 55.7013 47.5714 56.4684L49.7488 57.5517C50.0807 56.8794 50.4661 56.2204 50.8917 55.5907Z" fill="white"/>
<path d="M45.9545 69.0977C46.132 69.9463 46.3666 70.7876 46.6523 71.5937L48.944 70.784C48.6948 70.0788 48.4893 69.3433 48.3337 68.5992L45.9545 69.0977Z" fill="white"/>
<path d="M45.9083 61.3691L48.2948 61.8347C48.4395 61.0931 48.6352 60.3564 48.8772 59.6439L46.5733 58.8622C46.2973 59.6767 46.0748 60.5205 45.9083 61.3691Z" fill="white"/>
<path d="M45.5472 65.1197C45.5484 65.5926 45.5654 66.0619 45.5982 66.5276L48.0225 66.3561C47.9945 65.9464 47.9799 65.5306 47.9787 65.1161C47.9787 64.7708 47.9884 64.4279 48.0091 64.0863L45.5824 63.9368C45.5593 64.3282 45.5472 64.7209 45.5472 65.1197Z" fill="white"/>
<path d="M81.0523 59.4434C81.3052 60.1595 81.5094 60.8938 81.6614 61.6269L84.0431 61.1333C83.868 60.2944 83.6334 59.4543 83.3465 58.6361L81.0523 59.4434Z" fill="white"/>
<path d="M79.1083 74.6367L81.1216 75.9996C81.6055 75.2835 82.0468 74.5309 82.4286 73.7601L80.2512 72.6769C79.918 73.3516 79.5326 74.0106 79.1083 74.6367Z" fill="white"/>
<path d="M81.1228 70.5858L83.4267 71.3676C83.7039 70.553 83.9264 69.7105 84.0929 68.8607L81.7064 68.395C81.5605 69.1379 81.3647 69.8734 81.1228 70.5858Z" fill="white"/>
<path d="M84.4516 65.1197C84.4528 64.6419 84.4346 64.1678 84.4005 63.6973L81.9763 63.8748C82.0055 64.2833 82.0213 64.6966 82.0201 65.1161C82.0201 65.4601 82.0104 65.8018 81.9897 66.1422L84.4164 66.2917C84.4395 65.9014 84.4516 65.51 84.4516 65.1197Z" fill="white"/>
</g>
<rect x="1" y="1" width="128" height="128" rx="64" stroke="white" stroke-width="2"/>
<defs>
<clipPath id="clip0_811_629">
<rect width="70" height="70" fill="white" transform="translate(30 30)"/>
</clipPath>
</defs>
</svg>
