<svg width="32" height="32" viewBox="0 0 32 32" fill="none" xmlns="http://www.w3.org/2000/svg">
<path d="M23.1038 8.34999C23.1038 8.34999 24.8846 7.65562 24.7362 9.34196C24.6867 10.0363 24.2416 12.4667 23.8953 15.0954L22.7081 22.8823C22.7081 22.8823 22.6092 24.0231 21.7188 24.2215C20.8284 24.4198 19.4929 23.5271 19.2455 23.3287C19.0476 23.1799 15.5356 20.948 14.2989 19.8568C13.9527 19.5592 13.5569 18.964 14.3484 18.2697L19.5423 13.3099C20.1359 12.7147 20.7295 11.3259 18.2562 13.0123L11.331 17.7241C11.331 17.7241 10.5395 18.2201 9.0556 17.7737L5.84031 16.7817C5.84031 16.7817 4.65313 16.0378 6.68123 15.2937C11.6278 12.9626 17.7121 10.5819 23.1038 8.34999Z" fill="white"/>
<rect x="1" y="1" width="30" height="30" rx="15" stroke="white" stroke-width="2"/>
</svg>
