<svg width="60" height="61" viewBox="0 0 60 61" fill="none" xmlns="http://www.w3.org/2000/svg">
<path d="M50.814 13.8754L48.5531 14.8551Z" fill="#6B6B6B"/>
<path fill-rule="evenodd" clip-rule="evenodd" d="M48.5531 14.8551L50.814 13.8754L40.4814 24.2079L42.0025 25.7291L56.1851 11.5475C57.129 10.6017 57.6598 9.31949 57.6599 7.9832C57.6601 6.65031 57.1328 5.37168 56.1935 4.4264C55.2305 3.51086 53.9525 3.00018 52.6235 3.00018C51.2942 3.00018 50.0158 3.51108 49.0528 4.42698L34.8766 18.6024L36.3978 20.1235L38.659 19.1434M50.814 13.8754L54.6646 10.0248L54.6657 10.0236C55.2058 9.48161 55.509 8.74766 55.509 7.98253C55.509 7.2174 55.2058 6.48345 54.6657 5.94145L54.6576 5.9333L54.6493 5.92535C54.1032 5.40445 53.3775 5.11385 52.6228 5.11385C51.8681 5.11385 51.1423 5.40445 50.5962 5.92535L50.5885 5.93274L36.3978 20.1235L38.659 19.1434" fill="#6B6B6B"/>
<path fill-rule="evenodd" clip-rule="evenodd" d="M15.4969 46.6842L17.7088 48.8964C17.8087 48.9962 17.8883 49.1151 17.9424 49.2455C17.9964 49.3759 18.0243 49.5158 18.0243 49.657C18.0243 49.7982 17.9964 49.938 17.9424 50.0684C17.8883 50.1989 17.8091 50.3174 17.7092 50.4172L9.78176 58.3446C9.68194 58.4445 9.5632 58.524 9.43274 58.578C9.30229 58.6321 9.16246 58.6599 9.02125 58.6599C8.88003 58.6599 8.7402 58.6321 8.60975 58.578C8.4793 58.524 8.36077 58.4447 8.26096 58.3448L2.31538 52.3993C2.21549 52.2995 2.13596 52.1807 2.08189 52.0502C2.02783 51.9198 2 51.78 2 51.6387C2 51.4975 2.02783 51.3577 2.08189 51.2273C2.13596 51.0968 2.2152 50.9783 2.3151 50.8785L10.2425 42.9511C10.3423 42.8512 10.4611 42.7717 10.5916 42.7176C10.722 42.6635 10.8618 42.6357 11.003 42.6357C11.1442 42.6357 11.2841 42.6635 11.4145 42.7176C11.5449 42.7717 11.6635 42.8509 11.7633 42.9508L13.9757 45.163L22.4123 36.727L23.9334 38.2482L15.4969 46.6842ZM9.02125 56.0629L15.4272 49.657L11.003 45.2328L4.59712 51.6387L9.02125 56.0629Z" fill="#6B6B6B"/>
<path fill-rule="evenodd" clip-rule="evenodd" d="M4.7572 9.98824L5.35708 8.4588L10.9504 14.0522L10.958 14.0594C11.5038 14.5807 12.2296 14.8715 12.9843 14.8715C13.7391 14.8715 14.4648 14.5807 15.0106 14.0594L15.0179 14.0525L15.025 14.0454C15.2935 13.7774 15.5065 13.459 15.6519 13.1085C15.7972 12.7581 15.8721 12.3824 15.8721 12.003C15.8721 11.6236 15.7972 11.2479 15.6519 10.8974C15.5065 10.547 15.2935 10.2287 15.0251 9.96065L9.43929 4.3732L10.9704 3.77391L10.9745 3.77227C12.6372 3.11204 14.4364 2.86964 16.2145 3.06631C17.9926 3.26298 19.6954 3.89271 21.1736 4.90034C22.6517 5.90796 23.8603 7.26273 24.6932 8.84593C25.5262 10.4291 25.9582 12.1925 25.9513 13.9814L25.9513 13.9836C25.95 14.9384 25.8204 15.8888 25.5661 16.8092L25.4255 17.3179L43.3418 35.2332L43.8502 35.0931C44.7709 34.8393 45.7214 34.71 46.6765 34.7087L46.6789 34.7086C48.468 34.7013 50.2316 35.133 51.815 35.9659C53.3985 36.7988 54.7534 38.0075 55.7609 39.486C56.7685 40.9644 57.3979 42.6675 57.5941 44.4459C57.7902 46.2242 57.5471 48.0235 56.8859 49.686L56.2852 51.2192L50.6913 45.6261L50.6837 45.6189C50.1379 45.0976 49.4122 44.8067 48.6574 44.8067C47.9026 44.8067 47.1769 45.0976 46.6311 45.6189L46.624 45.6257L46.617 45.6326C46.3484 45.9006 46.1352 46.2189 45.9897 46.5693C45.8443 46.9197 45.7693 47.2953 45.7692 47.6748C45.769 48.0542 45.8437 48.4299 45.989 48.7804C46.1342 49.1309 46.3471 49.4493 46.6155 49.7174L52.2014 55.304L50.6716 55.9042L50.6677 55.9058C49.3966 56.4114 48.0419 56.6734 46.674 56.6781C43.7621 56.6743 40.9706 55.5159 38.9116 53.4569C36.8524 51.3977 35.694 48.6058 35.6904 45.6937C35.6918 44.7391 35.8214 43.7891 36.0756 42.869L36.2162 42.3603L18.2998 24.4443L17.7912 24.5847C16.8707 24.8387 15.9202 24.9682 14.9652 24.9696L14.9629 24.9696C13.1738 24.9769 11.4102 24.5452 9.82678 23.7122C8.24337 22.8793 6.88847 21.6706 5.8809 20.1922C4.87333 18.7137 4.24385 17.0107 4.04767 15.2324C3.85148 13.454 4.09458 11.6547 4.75564 9.99218L4.7572 9.98824ZM18.1802 22.1906L18.1829 22.1895L18.8329 21.9343L38.7252 41.8271L38.47 42.4772L38.469 42.4799C37.9523 43.7729 37.7504 45.1702 37.88 46.5566C38.0096 47.9439 38.4674 49.2806 39.2156 50.456C39.9638 51.6315 40.9808 52.6122 42.1828 53.317C43.3848 54.0218 44.7372 54.4306 46.1283 54.5096L48.5 54.6442L45.094 51.2381C44.6259 50.7703 44.2545 50.2147 44.0012 49.6034C43.7479 48.992 43.6175 48.3367 43.6175 47.675C43.6175 47.0132 43.7479 46.358 44.0012 45.7466C44.2532 45.1385 44.6219 44.5856 45.0865 44.1193C46.0498 43.2037 47.3282 42.693 48.6575 42.6931C49.987 42.6933 51.2654 43.2044 52.2285 44.1205L55.6263 47.519L55.4913 45.1465C55.4122 43.7553 55.0032 42.4029 54.2983 41.201C53.5933 39.999 52.6126 38.982 51.4371 38.2339C50.2615 37.4857 48.9249 37.0279 47.5375 36.8983C46.1513 36.7688 44.7543 36.9705 43.4614 37.4869L43.458 37.4883L42.8083 37.7425L22.9173 17.8515L23.1725 17.2014L23.1735 17.1988C23.6902 15.9058 23.8921 14.5085 23.7626 13.122C23.633 11.7347 23.1753 10.398 22.4271 9.22251C21.679 8.04698 20.6619 7.06629 19.46 6.36142C18.258 5.65655 16.9056 5.24771 15.5144 5.16868L13.1436 5.03399L16.5476 8.43994C17.0156 8.90777 17.3872 9.46355 17.6405 10.0749C17.8938 10.6862 18.0242 11.3415 18.0242 12.0033C18.0242 12.665 17.8938 13.3203 17.6405 13.9316C17.3885 14.5398 17.0198 15.0926 16.5553 15.5589C15.592 16.4746 14.3136 16.9853 12.9842 16.9851C11.6548 16.985 10.3763 16.4739 9.41324 15.5578L6.01598 12.1598L6.15041 14.5316C6.22927 15.9228 6.63797 17.2753 7.34278 18.4773C8.04759 19.6793 9.02827 20.6964 10.2038 21.4446C11.3794 22.1928 12.716 22.6505 14.1034 22.78C15.4899 22.9095 16.8872 22.7074 18.1802 22.1906Z" fill="#6B6B6B"/>
</svg>
