<svg width="9" height="11" viewBox="0 0 9 11" fill="none" xmlns="http://www.w3.org/2000/svg">
<path d="M4.55072 11.0051C3.77072 11.0051 3.11072 10.9001 2.57072 10.6901C2.03072 10.4801 1.61572 10.1701 1.32572 9.76012C1.04572 9.34012 0.905723 8.81012 0.905723 8.17012C0.905723 7.98012 0.920723 7.80012 0.950723 7.63012C0.980723 7.45012 1.02072 7.28512 1.07072 7.13512H0.365723V6.17512H1.62572C1.82572 5.97512 2.09072 5.79512 2.42072 5.63512C2.76072 5.46512 3.11072 5.31512 3.47072 5.18512C3.84072 5.05512 4.16572 4.94512 4.44572 4.85512C4.72572 4.75512 4.90572 4.68512 4.98572 4.64512H0.365723V3.68512H6.09572C6.17572 3.54512 6.23072 3.40012 6.26072 3.25012C6.30072 3.10012 6.32072 2.91012 6.32072 2.68012C6.32072 2.37012 6.25072 2.10512 6.11072 1.88512C5.97072 1.65512 5.75572 1.48012 5.46572 1.36012C5.17572 1.24012 4.80072 1.18012 4.34072 1.18012C4.01072 1.18012 3.69072 1.21012 3.38072 1.27012C3.08072 1.33012 2.79572 1.41012 2.52572 1.51012C2.26572 1.60012 2.02072 1.70012 1.79072 1.81012L1.41572 0.625117C1.79572 0.445117 2.26072 0.295117 2.81072 0.175117C3.36072 0.0551172 3.89572 -0.00488281 4.41572 -0.00488281C5.09572 -0.00488281 5.67572 0.0901171 6.15572 0.280117C6.64572 0.460117 7.02072 0.735117 7.28072 1.10512C7.55072 1.47512 7.68572 1.94512 7.68572 2.51512C7.68572 2.72512 7.67072 2.93512 7.64072 3.14512C7.61072 3.34512 7.55572 3.52512 7.47572 3.68512H8.30072V4.64512H6.99572C6.83572 4.80512 6.58572 4.97012 6.24572 5.14012C5.90572 5.30012 5.55072 5.45012 5.18072 5.59012C4.81072 5.73012 4.47572 5.85012 4.17572 5.95012C3.87572 6.05012 3.68072 6.12512 3.59072 6.17512H8.30072V7.13512H2.46572C2.38572 7.28512 2.33072 7.42512 2.30072 7.55512C2.27072 7.68512 2.25572 7.86512 2.25572 8.09512C2.25572 8.48512 2.34572 8.81012 2.52572 9.07012C2.70572 9.32012 2.97572 9.51012 3.33572 9.64012C3.69572 9.77012 4.14072 9.83512 4.67072 9.83512C5.24072 9.83512 5.79072 9.76512 6.32072 9.62512C6.86072 9.47512 7.31072 9.32012 7.67072 9.16012V10.3751C7.33072 10.5351 6.87572 10.6801 6.30572 10.8101C5.73572 10.9401 5.15072 11.0051 4.55072 11.0051Z" fill="white"/>
</svg>
