<svg width="31" height="30" viewBox="0 0 31 30" fill="none" xmlns="http://www.w3.org/2000/svg">
<path d="M15.0428 15.6557C17.4844 15.6557 19.464 13.7179 19.464 11.3279C19.464 8.93784 17.4844 7 15.0428 7C12.6012 7 10.6216 8.93784 10.6216 11.3279C10.6242 13.7169 12.6023 15.6531 15.0422 15.6557H15.0428ZM15.0428 8.31148C16.7448 8.31148 18.1242 9.66177 18.1242 11.3279C18.1242 12.994 16.7448 14.3443 15.0428 14.3443C13.3407 14.3443 11.9613 12.994 11.9613 11.3279C11.9635 9.66282 13.3418 8.31357 15.0428 8.31148ZM23.0267 22.2047C22.1939 18.5829 18.9361 15.918 15.0422 15.918C11.1483 15.918 7.89057 18.583 7.06796 22.1512L7.05778 22.2047C7.04813 22.2467 7.04224 22.2949 7.04224 22.3443C7.04224 22.7062 7.34234 23 7.71212 23C8.03152 23 8.29893 22.7807 8.36592 22.488L8.367 22.4838C9.06421 19.4569 11.7877 17.2295 15.0428 17.2295C18.2979 17.2295 21.0208 19.4564 21.7094 22.4387L21.718 22.4833C21.7855 22.7802 22.0519 22.9995 22.3713 22.9995C22.4222 22.9995 22.4715 22.9937 22.5192 22.9832L22.5149 22.9843C22.8188 22.9187 23.0422 22.6574 23.0422 22.3448C23.0422 22.2949 23.0363 22.2467 23.0256 22.2L23.0267 22.2047Z" fill="#CBCBCB" stroke="#C4C4C4"/>
<rect x="1.04224" y="1" width="28" height="28" rx="14" stroke="#C4C4C4" stroke-width="2"/>
</svg>
