<svg width="78" height="78" viewBox="0 0 78 78" fill="none" xmlns="http://www.w3.org/2000/svg">
<g clip-path="url(#clip0_569_4930)">
<rect x="19" y="24" width="41" height="32" fill="white"/>
<path fill-rule="evenodd" clip-rule="evenodd" d="M30.9465 49.1886L30.9441 27.1176L52.0187 38.1912L30.9465 49.1886ZM77.22 23.293C77.22 23.293 76.4571 17.8802 74.1195 15.4966C71.1531 12.3668 67.8283 12.352 66.3049 12.1703C55.3897 11.375 39.0171 11.375 39.0171 11.375H38.9829C38.9829 11.375 22.6103 11.375 11.6951 12.1703C10.1693 12.352 6.84695 12.3668 3.87807 15.4966C1.54051 17.8802 0.779993 23.293 0.779993 23.293C0.779993 23.293 0 29.6509 0 36.0064V41.9666C0 48.3245 0.779993 54.68 0.779993 54.68C0.779993 54.68 1.54051 60.0928 3.87807 62.4764C6.84695 65.6063 10.7445 65.5081 12.48 65.8346C18.72 66.4384 39 66.625 39 66.625C39 66.625 55.3897 66.6005 66.3049 65.8051C67.8283 65.621 71.1531 65.6063 74.1195 62.4764C76.4571 60.0928 77.22 54.68 77.22 54.68C77.22 54.68 78 48.3245 78 41.9666V36.0064C78 29.6509 77.22 23.293 77.22 23.293Z" fill="#CE1312"/>
</g>
<defs>
<clipPath id="clip0_569_4930">
<rect width="78" height="78" fill="white"/>
</clipPath>
</defs>
</svg>
